{
.appVersion = "3087";
.formatVersion = 3;
DisplayStrings = (
H,
"/.notdef",
asdfghjkkljk,
a
);
axes = (
{
name = Weight;
tag = wght;
}
);
date = "2022-02-24 12:38:29 +0000";
familyName = Rain;
fontMaster = (
{
axesValues = (
10
);
customParameters = (
{
name = typoAscender;
value = 800;
},
{
name = typoDescender;
value = -200;
},
{
name = typoLineGap;
value = 200;
},
{
name = winAscent;
value = 1000;
},
{
name = winDescent;
value = 200;
},
{
name = hheaAscender;
value = 1000;
},
{
name = hheaDescender;
value = -200;
},
{
name = strikeoutPosition;
value = 250;
},
{
name = strikeoutSize;
value = 50;
},
{
name = underlinePosition;
value = -125;
}
);
iconName = Light_Condensed;
id = m01;
metricValues = (
{
over = 16;
pos = 800;
},
{
over = 16;
pos = 700;
},
{
over = 16;
pos = 500;
},
{
over = -16;
},
{
over = -16;
pos = -200;
},
{
over = -16;
}
);
name = Mild;
},
{
axesValues = (
100
);
customParameters = (
{
disabled = 1;
name = typoDescender;
value = -200;
},
{
disabled = 1;
name = typoLineGap;
value = 200;
},
{
disabled = 1;
name = winAscent;
value = 1000;
},
{
disabled = 1;
name = winDescent;
value = 200;
},
{
disabled = 1;
name = hheaAscender;
value = 1000;
},
{
disabled = 1;
name = hheaDescender;
value = -200;
},
{
disabled = 1;
name = strikeoutPosition;
value = 250;
},
{
disabled = 1;
name = strikeoutSize;
value = 50;
},
{
disabled = 1;
name = underlinePosition;
value = -125;
}
);
id = m002;
metricValues = (
{
over = 16;
pos = 800;
},
{
over = 16;
pos = 700;
},
{
over = 16;
pos = 500;
},
{
over = -16;
},
{
over = -16;
pos = -200;
},
{
over = -16;
}
);
name = Medium;
},
{
axesValues = (
300
);
customParameters = (
{
name = typoDescender;
value = -200;
},
{
name = typoLineGap;
value = 200;
},
{
name = winAscent;
value = 1000;
},
{
name = winDescent;
value = 200;
},
{
name = hheaAscender;
value = 1000;
},
{
name = hheaDescender;
value = -200;
},
{
name = strikeoutPosition;
value = 250;
},
{
name = strikeoutSize;
value = 50;
},
{
name = underlinePosition;

glyphs = (
{
glyphname = A;
lastChange = "2022-03-10 22:23:03 +0000";
layers = (
{
hints = (
{
horizontal = 1;
place = (205, 296);
place = (205, 296);
type = Stem;
},
{
place = (152, 303);
place = (152, 303);
type = Stem;
}
);
layerId = m01;
shapes = (
{
closed = 1;
nodes = (
(0,196,o),
(-5,218,o),
(8,240,cs),
(12,247,o),
(15,254,o),
(18,261,cs),
(22,272,o),
(31,278,o),
(40,282,cs),
(52,289,o),
(65,294,o),
(77,298,cs),
(82,300,o),
(90,301,o),
(95,299,cs),
(103,296,o),
(108,299,o),
(112,304,c),
(120,297,o),
(126,291,o),
(133,285,cs),
(149,269,o),
(155,249,o),
(149,228,cs),
(142,207,o),
(131,186,o),
(114,169,cs),
(108,162,o),
(100,160,o),
(92,160,cs),
(84,160,o),
(76,164,o),
(67,166,cs),
(64,166,o),
(61,169,o),
(58,168,cs),
(46,164,o),
(36,168,o),
(24,172,cs),
(19,173,o),
(14,173,o),
(6,174,c)
);
}
);
width = 151;
},
{
hints = (
{
horizontal = 1;
place = (160, 433);
place = (160, 433);
type = Stem;
},
{
place = (0, 455);
place = (0, 455);
type = Stem;
}
);
layerId = m002;
shapes = (
{
closed = 1;
nodes = (
(0,269,o),
(-14,335,o),
(25,401,cs),
(37,421,o),
(46,442,o),
(55,463,cs),
(68,495,o),
(95,513,o),
(122,527,cs),
(158,546,o),
(195,561,o),
(232,575,cs),
(248,581,o),
(270,584,o),
(285,578,cs),
(310,567,o),
(325,577,o),
(338,593,c),
(360,572,o),
(379,554,o),
(399,536,cs),
(448,488,o),
(467,427,o),
(447,365,cs),
(427,300,o),
(394,239,o),
(344,187,cs),
(324,166,o),
(301,160,o),
(278,160,cs),
(253,160,o),
(228,171,o),
(203,177,cs),
(194,179,o),
(183,188,o),
(176,185,cs),
(140,172,o),
(108,185,o),
(74,195,cs),
(59,200,o),
(42,200,o),
(20,203,c)
);
}
);
width = 555;
},
{
hints = (
{
horizontal = 1;
place = (25, 844);
place = (25, 844);
type = Stem;
},
{
place = (-455, 910);
place = (-455, 910);
type = Stem;
}
);
layerId = m003;
shapes = (
{
closed = 1;
nodes = (
(-1,487,o),
(-43,685,o),
(74,883,cs),
(110,943,o),
(137,1006,o),
(164,1069,cs),
(203,1165,o),
(284,1219,o),
(365,1261,cs),
(473,1318,o),
(584,1363,o),
(695,1405,cs),
(743,1423,o),
(809,1432,o),
(854,1414,cs),
(929,1381,o),
(974,1411,o),
(1013,1459,c),
(1079,1396,o),
(1136,1342,o),
(1196,1288,cs),
(1343,1144,o),
(1400,961,o),
(1340,775,cs),
(1280,580,o),
(1181,397,o),
(1031,241,cs),
(971,178,o),
(902,160,o),
(833,160,cs),
(758,160,o),
(683,193,o),
(608,211,cs),
(581,217,o),
(548,244,o),
(527,235,cs),
(419,196,o),
(323,235,o),
(221,265,cs),
(176,280,o),
(125,280,o),
(59,289,c)
);
}
);
width = 1264;
}
);
note = A;
unicode = 65;
},
{
glyphname = B;
lastChange = "2022-03-10 22:23:03 +0000";
layers = (
{
hints = (
{
horizontal = 1;
place = (21, 154);
place = (21, 154);
type = Stem;
},
{
place = (42, 115);
place = (42, 115);
type = Stem;
}
);
layerId = m01;
shapes = (
{
closed = 1;
nodes = (
(21,10,o),
(23,0,o),
(28,-6,cs),
(34,-13,o),
(43,-16,o),
(49,-22,cs),
(62,-34,o),
(68,-49,o),
(63,-67,cs),
(61,-77,o),
(52,-85,o),
(42,-85,cs),
(34,-85,o),
(28,-79,o),
(26,-67,cs),
(25,-63,o),
(25,-58,o),
(26,-54,cs),
(30,-42,o),
(24,-34,o),
(16,-26,cs),
(11,-21,o),
(6,-15,o),
(3,-9,cs),
(-1,-3,o),
(-2,3,o),
(6,8,cs),
(10,10,o),
(13,15,o),
(17,20,c)
);
}
);
width = 65;
},
{
hints = (
{
horizontal = 1;
place = (-85, 314);
place = (-85, 314);
type = Stem;
},
{
place = (-23, 195);
place = (-23, 195);
type = Stem;
}
);
layerId = m002;
shapes = (
{
closed = 1;
nodes = (
(40,200,o),
(46,171,o),
(62,151,cs),
(78,131,o),
(106,122,o),
(125,104,cs),
(163,68,o),
(182,24,o),
(167,-30,cs),
(159,-61,o),
(132,-86,o),
(104,-85,cs),
(80,-85,o),
(62,-66,o),
(55,-31,cs),
(53,-18,o),
(51,-3,o),
(54,9,cs),
(66,45,o),
(50,69,o),
(26,92,cs),
(10,107,o),
(-4,124,o),
(-15,142,cs),
(-26,160,o),
(-28,179,o),
(-4,193,cs),
(8,199,o),
(15,214,o),
(28,229,c)
);
}
);
width = 295;
},
{
hints = (
{
horizontal = 1;
place = (-404, 793);
place = (-404, 793);
type = Stem;
},
{
place = (-218, 436);
place = (-218, 436);
type = Stem;
}
);
layerId = m003;
shapes = (
{
closed = 1;
nodes = (
(189,770,o),
(207,683,o),
(255,623,cs),
(303,563,o),
(387,536,o),
(444,482,cs),
(558,374,o),
(615,242,o),
(570,80,cs),
(546,-13,o),
(465,-88,o),
(381,-85,cs),
(309,-85,o),
(255,-28,o),
(234,77,cs),
(228,116,o),
(222,161,o),
(231,197,cs),
(267,305,o),
(219,377,o),
(147,446,cs),
(99,491,o),
(57,542,o),
(24,596,cs),
(-9,650,o),
(-15,707,o),
(57,749,cs),
(93,767,o),
(114,812,o),
(153,857,c)
);
}
);
width = 485;
}
);
note = B;
unicode = 66;
},
{
glyphname = C;
lastChange = "2022-03-10 22:23:03 +0000";
layers = (
{
hints = (
{
horizontal = 1;
place = (155, 422);
place = (155, 422);
type = Stem;
},
{
place = (156, 312);
place = (156, 312);
type = Stem;
}
);
layerId = m01;
shapes = (
{
closed = 1;
nodes = (
(85,88,o),
(82,88,o),
(78,89,cs),
(75,90,o),
(70,91,o),
(68,93,cs),
(62,100,o),
(54,101,o),
(46,103,cs),
(44,103,o),
(41,104,o),
(39,103,cs),
(34,100,o),
(30,101,o),
(25,104,cs),
(18,109,o),
(10,110,o),
(0,108,c),
(1,119,o),
(0,130,o),
(4,140,cs),
(5,142,o),
(8,143,o),
(10,144,cs),
(14,146,o),
(18,147,o),
(23,148,cs),
(30,149,o),
(35,153,o),
(35,160,cs),
(36,171,o),
(36,182,o),
(37,193,cs),
(37,199,o),
(38,206,o),
(40,212,cs),
(42,217,o),
(43,222,o),
(41,227,cs),
(37,234,o),
(38,241,o),
(41,248,cs),
(44,258,o),
(52,261,o),
(62,258,cs),
(71,254,o),
(80,252,o),
(89,250,cs),
(95,248,o),
(100,251,o),
(105,255,cs),
(110,258,o),
(115,261,o),
(120,263,cs),
(125,265,o),
(129,263,o),
(132,258,cs),
(135,254,o),
(137,249,o),
(140,244,cs),
(153,218,ls),
(156,212,o),
(157,206,o),
(155,199,cs),
(150,177,o),
(147,154,o),
(150,131,cs),
(152,115,o),
(147,102,o),
(138,89,cs),
(137,87,o),
(134,84,o),
(133,81,cs),
(129,68,o),
(124,56,o),
(117,45,cs),
(112,36,o),
(109,26,o),
(112,14,cs),
(115,1,o),
(111,-3,o),
(98,-2,c),
(96,-1,o),
(95,-1,o),
(93,-1,cs),
(88,-1,o),
(83,-4,o),
(79,2,cs),
(75,9,o),
(71,15,o),
(71,24,cs),
(72,31,o),
(74,38,o),
(75,46,cs),
(75,47,o),
(76,49,o),
(77,50,cs),
(84,55,o),
(85,62,o),
(88,68,cs),
(91,74,o),
(91,81,o),
(88,88,c)
);
}
);
width = 156;
},
{
hints = (
{
horizontal = 1;
place = (-2, 798);
place = (-2, 798);
type = Stem;
},
{
place = (0, 468);
place = (0, 468);
type = Stem;
}
);
layerId = m002;
shapes = (
{
closed = 1;
nodes = (
(255,269,o),
(245,269,o),
(235,272,cs),
(224,274,o),
(211,276,o),
(205,283,cs),
(186,303,o),
(163,307,o),
(139,313,cs),
(132,314,o),
(122,316,o),
(117,313,cs),
(102,305,o),
(89,307,o),
(76,316,cs),
(54,330,o),
(29,333,o),
(0,328,c),
(3,362,o),
(1,393,o),
(12,423,cs),
(14,429,o),
(23,433,o),
(30,436,cs),
(42,441,o),
(55,445,o),
(68,447,cs),
(90,450,o),
(104,462,o),
(106,483,cs),
(108,516,o),
(108,549,o),
(111,582,cs),
(112,602,o),
(114,622,o),
(120,640,cs),
(126,656,o),
(129,670,o),
(122,685,cs),
(110,706,o),
(114,728,o),
(122,749,cs),
(133,779,o),
(157,787,o),
(187,777,cs),
(213,767,o),
(240,761,o),
(266,753,cs),
(285,748,o),
(300,757,o),
(315,768,cs),
(329,778,o),
(344,787,o),
(360,794,cs),
(375,800,o),
(388,793,o),
(396,779,cs),
(404,765,o),
(412,751,o),
(419,737,cs),
(460,657,ls),
(469,639,o),
(470,623,o),
(466,601,cs),
(450,534,o),
(440,466,o),
(450,397,cs),
(457,350,o),
(440,310,o),
(415,272,cs),
(410,264,o),
(403,256,o),
(400,247,cs),
(388,209,o),
(373,173,o),
(352,138,cs),
(336,112,o),
(326,81,o),
(335,46,cs),
(345,6,o),
(333,-5,o),
(293,-1,c),
(289,0,o),
(285,1,o),
(280,1,cs),
(265,0,o),
(249,-7,o),
(237,10,cs),
(224,30,o),
(212,50,o),
(214,75,cs),
(216,97,o),
(221,119,o),
(225,141,cs),
(226,145,o),
(228,152,o),
(232,155,cs),
(251,169,o),
(255,189,o),
(264,208,cs),
(273,227,o),
(273,246,o),
(265,268,c)
);
}
);
width = 801;
},
{
hints = (
{
horizontal = 1;
place = (-474, 1926);
place = (-474, 1926);
type = Stem;
},
{
place = (-468, 936);
place = (-468, 936);
type = Stem;
}
);
layerId = m003;
shapes = (
{
closed = 1;
nodes = (
(765,811,o),
(735,811,o),
(705,820,cs),
(672,826,o),
(633,832,o),
(615,853,cs),
(558,913,o),
(489,925,o),
(417,943,cs),
(396,946,o),
(366,952,o),
(351,943,cs),
(306,919,o),
(267,925,o),
(228,952,cs),
(162,994,o),
(87,1003,o),
(0,988,c),
(9,1090,o),
(3,1183,o),
(36,1273,cs),
(42,1291,o),
(69,1303,o),
(90,1312,cs),
(126,1327,o),
(165,1339,o),
(204,1345,cs),
(270,1354,o),
(312,1390,o),
(318,1453,cs),
(324,1552,o),
(324,1651,o),
(333,1750,cs),
(336,1810,o),
(342,1870,o),
(360,1924,cs),
(378,1972,o),
(387,2014,o),
(366,2059,cs),
(330,2122,o),
(342,2188,o),
(366,2251,cs),
(399,2341,o),
(471,2365,o),
(561,2335,cs),
(639,2305,o),
(720,2287,o),
(798,2263,cs),
(855,2248,o),
(900,2275,o),
(945,2308,cs),
(987,2338,o),
(1032,2365,o),
(1080,2386,cs),
(1125,2404,o),
(1164,2383,o),
(1188,2341,cs),
(1212,2299,o),
(1236,2257,o),
(1257,2215,cs),
(1380,1975,ls),
(1407,1921,o),
(1410,1873,o),
(1398,1807,cs),
(1350,1606,o),
(1320,1402,o),
(1350,1195,cs),
(1371,1054,o),
(1320,934,o),
(1245,820,cs),
(1230,796,o),
(1209,772,o),
(1200,745,cs),
(1164,631,o),
(1119,523,o),
(1056,418,cs),
(1008,340,o),
(978,247,o),
(1005,142,cs),
(1035,22,o),
(999,-11,o),
(879,1,c),
(867,4,o),
(855,7,o),
(840,7,cs),
(795,4,o),
(747,-17,o),
(711,34,cs),
(672,94,o),
(636,154,o),
(642,229,cs),
(648,295,o),
(663,361,o),
(675,427,cs),
(678,439,o),
(684,460,o),
(696,469,cs),
(753,511,o),
(765,571,o),
(792,628,cs),
(819,685,o),
(819,742,o),
(795,808,c)
);
}
);
width = 1305;
}
);
note = C;
unicode = 67;
},
{
glyphname = D;
lastChange = "2022-03-10 22:23:03 +0000";
layers = (
{
hints = (
{
horizontal = 1;
place = (65, 21);
target = up;
type = BottomGhost;
},
{
place = (66, 131);
place = (66, 131);
type = Stem;
},
{
horizontal = 1;
place = (59, 72);
place = (59, 72);
type = Stem;
}
);
layerId = m01;
shapes = (
{
closed = 1;
nodes = (
(0,-144,ls),
(4,-144,o),
(9,-144,o),
(12,-146,cs),
(20,-152,o),
(26,-148,o),
(32,-143,cs),
(42,-135,o),
(47,-135,o),
(55,-144,cs),
(68,-160,o),
(67,-176,o),
(61,-194,c),
(60,-195,o),
(59,-196,o),
(59,-197,c),
(50,-214,o),
(46,-216,o),
(33,-213,cs),
(14,-208,o),
(8,-200,o),
(6,-184,cs),
(5,-170,o),
(2,-157,o),
(0,-144,cs),
(0,-143,ls),
(0,-143,o),
(0,-144,o),
(0,-144,c)
);
}
);
width = 65;
},
{
hints = (
{
horizontal = 1;
place = (-3, 21);
target = up;
type = BottomGhost;
},
{
place = (0, 196);
place = (0, 196);
type = Stem;
},
{
horizontal = 1;
place = (-19, 18);
place = (-19, 18);
type = Stem;
}
);
layerId = m002;
shapes = (
{
closed = 1;
nodes = (
(1,-3,ls),
(13,-5,o),
(28,-3,o),
(37,-9,cs),
(61,-28,o),
(80,-17,o),
(98,-2,cs),
(127,24,o),
(142,24,o),
(166,-5,cs),
(204,-51,o),
(203,-101,o),
(183,-154,c),
(181,-157,o),
(179,-160,o),
(178,-163,c),
(151,-213,o),
(140,-220,o),
(99,-210,cs),
(44,-196,o),
(24,-171,o),
(20,-123,cs),
(17,-83,o),
(8,-43,o),
(1,-3,cs),
(1,-1,ls),
(1,-2,o),
(0,-3,o),
(0,-3,c)
);
}
);
width = 297;
},
{
hints = (
{
horizontal = 1;
place = (-206, 21);
target = up;
type = BottomGhost;
},
{
place = (-197, 391);
place = (-197, 391);
type = Stem;
},
{
horizontal = 1;
place = (-254, -143);
place = (-254, -143);
type = Stem;
}
);
layerId = m003;
shapes = (
{
closed = 1;
nodes = (
(3,419,ls),
(39,413,o),
(84,419,o),
(111,401,cs),
(183,344,o),
(240,377,o),
(294,422,cs),
(381,500,o),
(426,500,o),
(498,413,cs),
(612,275,o),
(609,125,o),
(549,-34,c),
(543,-43,o),
(537,-52,o),
(534,-61,c),
(453,-211,o),
(420,-232,o),
(297,-202,cs),
(132,-160,o),
(72,-85,o),
(60,59,cs),
(51,179,o),
(24,299,o),
(3,419,cs),
(3,425,ls),
(3,422,o),
(0,419,o),
(0,419,c)
);
}
);
width = 490;
}
);
note = D;
unicode = 68;
},
{
glyphname = E;
lastChange = "2022-03-10 22:23:03 +0000";
layers = (
{
hints = (
{
horizontal = 1;
place = (351, 482);
place = (351, 482);
type = Stem;
},
{
place = (320, 549);
place = (320, 549);
type = Stem;
}
);
layerId = m01;
shapes = (
{
closed = 1;
nodes = (
(182,164,o),
(178,166,o),
(172,168,c),
(175,171,o),
(177,172,o),
(179,174,c),
(178,175,o),
(178,176,o),
(177,176,cs),
(171,180,o),
(165,183,o),
(159,188,cs),
(151,194,o),
(144,202,o),
(132,193,cs),
(127,190,o),
(120,190,o),
(113,188,cs),
(108,185,o),
(103,182,o),
(97,180,c),
(97,171,l),
(95,170,o),
(94,170,o),
(93,170,cs),
(87,173,o),
(80,175,o),
(75,179,cs),
(67,184,o),
(60,188,o),
(60,200,cs),
(60,209,o),
(54,218,o),
(51,227,cs),
(49,231,o),
(48,236,o),
(47,240,cs),
(46,243,o),
(44,247,o),
(43,250,cs),
(40,254,o),
(38,257,o),
(36,261,cs),
(32,266,o),
(29,272,o),
(24,276,cs),
(5,291,o),
(-4,313,o),
(2,336,c),
(7,338,o),
(12,339,o),
(17,341,cs),
(27,343,o),
(36,344,o),
(43,335,cs),
(46,331,o),
(51,330,o),
(56,328,cs),
(69,325,o),
(83,322,o),
(96,318,cs),
(109,314,o),
(111,315,o),
(120,326,cs),
(141,352,o),
(145,349,o),
(173,335,cs),
(177,333,o),
(182,331,o),
(187,328,cs),
(207,319,o),
(222,305,o),
(227,283,cs),
(230,273,o),
(235,263,o),
(240,254,cs),
(243,247,o),
(247,240,o),
(250,233,cs),
(256,218,o),
(246,208,o),
(237,198,cs),
(231,192,o),
(222,189,o),
(215,184,cs),
(205,178,o),
(193,175,o),
(188,161,c)
);
}
);
width = 252;
},
{
hints = (
{
horizontal = 1;
place = (161, 554);
place = (161, 554);
type = Stem;
},
{
place = (69, 754);
place = (69, 754);
type = Stem;
}
);
layerId = m002;
shapes = (
{
closed = 1;
nodes = (
(615,169,o),
(602,175,o),
(583,183,c),
(592,191,o),
(598,195,o),
(604,200,c),
(603,202,o),
(602,206,o),
(600,207,cs),
(582,219,o),
(563,228,o),
(546,241,cs),
(521,261,o),
(500,285,o),
(464,258,cs),
(449,247,o),
(427,247,o),
(408,241,cs),
(392,234,o),
(376,225,o),
(358,217,c),
(358,190,l),
(353,189,o),
(349,187,o),
(347,188,cs),
(328,196,o),
(309,203,o),
(293,214,cs),
(269,229,o),
(247,242,o),
(248,278,cs),
(248,306,o),
(229,333,o),
(220,360,cs),
(216,372,o),
(213,385,o),
(209,398,cs),
(205,408,o),
(201,418,o),
(196,427,cs),
(189,439,o),
(183,450,o),
(176,461,cs),
(164,476,o),
(154,494,o),
(140,506,cs),
(83,552,o),
(57,618,o),
(74,687,c),
(89,691,o),
(104,696,o),
(120,700,cs),
(149,708,o),
(175,710,o),
(197,682,cs),
(205,672,o),
(222,667,o),
(236,663,cs),
(275,652,o),
(316,643,o),
(355,632,cs),
(395,621,o),
(401,622,o),
(427,655,cs),
(490,735,o),
(504,725,o),
(586,684,cs),
(600,677,o),
(615,670,o),
(630,662,cs),
(690,634,o),
(733,593,o),
(750,526,cs),
(758,496,o),
(774,468,o),
(788,440,cs),
(797,419,o),
(810,399,o),
(818,377,cs),
(835,332,o),
(806,301,o),
(778,273,cs),
(760,255,o),
(735,244,o),
(712,230,cs),
(683,212,o),
(648,202,o),
(632,161,c)
);
}
);
width = 854;
},
{
hints = (
{
horizontal = 1;
place = (-409, 770);
place = (-409, 770);
type = Stem;
},
{
place = (-685, 1370);
place = (-685, 1370);
type = Stem;
}
);
layerId = m003;
shapes = (
{
closed = 1;
nodes = (
(1638,185,o),
(1599,203,o),
(1542,227,c),
(1569,251,o),
(1587,263,o),
(1605,278,c),
(1602,284,o),
(1599,296,o),
(1593,299,cs),
(1539,335,o),
(1482,362,o),
(1431,401,cs),
(1356,461,o),
(1293,533,o),
(1185,452,cs),
(1140,419,o),
(1074,419,o),
(1017,401,cs),
(969,380,o),
(921,353,o),
(867,329,c),
(867,248,l),
(852,245,o),
(840,239,o),
(834,242,cs),
(777,266,o),
(720,287,o),
(672,320,cs),
(600,365,o),
(534,404,o),
(537,512,cs),
(537,596,o),
(480,677,o),
(453,758,cs),
(441,794,o),
(432,833,o),
(420,872,cs),
(408,902,o),
(396,932,o),
(381,959,cs),
(360,995,o),
(342,1028,o),
(321,1061,cs),
(285,1106,o),
(255,1160,o),
(213,1196,cs),
(42,1334,o),
(-36,1532,o),
(15,1739,c),
(60,1751,o),
(105,1766,o),
(153,1778,cs),
(240,1802,o),
(318,1808,o),
(384,1724,cs),
(408,1694,o),
(459,1679,o),
(501,1667,cs),
(618,1634,o),
(741,1607,o),
(858,1574,cs),
(978,1541,o),
(996,1544,o),
(1074,1643,cs),
(1263,1883,o),
(1305,1853,o),
(1551,1730,cs),
(1593,1709,o),
(1638,1688,o),
(1683,1664,cs),
(1863,1580,o),
(1992,1457,o),
(2043,1256,cs),
(2067,1166,o),
(2115,1082,o),
(2157,998,cs),
(2184,935,o),
(2223,875,o),
(2247,809,cs),
(2298,674,o),
(2211,581,o),
(2127,497,cs),
(2073,443,o),
(1998,410,o),
(1929,368,cs),
(1842,314,o),
(1737,284,o),
(1689,161,c)
);
}
);
width = 2162;
}
);
note = E;
unicode = 69;
},
{
glyphname = F;
lastChange = "2022-03-10 22:23:03 +0000";
layers = (
{
hints = (
{
horizontal = 1;
place = (189, 201);
place = (189, 201);
type = Stem;
},
{
place = (115, 231);
place = (115, 231);
type = Stem;
}
);
layerId = m01;
shapes = (
{
closed = 1;
nodes = (
(109,271,ls),
(106,263,o),
(102,257,o),
(100,249,cs),
(97,237,o),
(84,225,o),
(72,224,cs),
(67,224,o),
(63,224,o),
(59,223,cs),
(48,221,o),
(39,222,o),
(31,230,cs),
(25,237,o),
(17,241,o),
(10,246,cs),
(-3,256,o),
(-3,265,o),
(10,275,cs),
(20,283,o),
(30,292,o),
(42,296,cs),
(60,303,o),
(80,310,o),
(101,307,cs),
(110,306,o),
(116,300,o),
(116,288,c)
);
}
);
width = 116;
},
{
hints = (
{
horizontal = 1;
place = (222, 257);
place = (222, 257);
type = Stem;
},
{
place = (0, 346);
place = (0, 346);
type = Stem;
}
);
layerId = m002;
shapes = (
{
closed = 1;
nodes = (
(325,368,ls),
(316,346,o),
(305,326,o),
(300,304,cs),
(290,266,o),
(252,230,o),
(214,228,cs),
(201,227,o),
(187,228,o),
(175,225,cs),
(143,218,o),
(117,223,o),
(93,247,cs),
(75,266,o),
(49,278,o),
(29,294,cs),
(-10,324,o),
(-10,352,o),
(29,381,cs),
(59,404,o),
(89,432,o),
(124,444,cs),
(180,464,o),
(238,485,o),
(301,477,cs),
(329,474,o),
(346,456,o),
(346,419,c)
);
}
);
width = 446;
},
{
hints = (
{
horizontal = 1;
place = (320, 425);
place = (320, 425);
type = Stem;
},
{
place = (-346, 692);
place = (-346, 692);
type = Stem;
}
);
layerId = m003;
shapes = (
{
closed = 1;
nodes = (
(976,660,ls),
(949,594,o),
(916,534,o),
(901,468,cs),
(871,354,o),
(757,246,o),
(643,240,cs),
(604,237,o),
(562,240,o),
(526,231,cs),
(430,210,o),
(352,225,o),
(280,297,cs),
(226,354,o),
(148,390,o),
(88,438,cs),
(-29,528,o),
(-29,612,o),
(88,699,cs),
(178,768,o),
(268,852,o),
(373,888,cs),
(541,948,o),
(715,1011,o),
(904,987,cs),
(988,978,o),
(1039,924,o),
(1039,813,c)
);
}
);
width = 939;
}
);
note = F;
unicode = 70;
},
{
glyphname = G;
lastChange = "2022-03-10 22:23:03 +0000";
layers = (
{
hints = (
{
horizontal = 1;
place = (263, 245);
place = (263, 245);
type = Stem;
},
{
place = (181, 271);
place = (181, 271);
type = Stem;
}
);
layerId = m01;
shapes = (
{
closed = 1;
nodes = (
(1,319,o),
(-4,328,o),
(3,348,cs),
(6,357,o),
(9,366,o),
(18,373,cs),
(27,380,o),
(35,385,o),
(48,383,cs),
(56,382,o),
(64,384,o),
(71,390,cs),
(76,394,o),
(83,397,o),
(89,401,c),
(94,395,o),
(91,385,o),
(100,386,c),
(113,372,o),
(114,355,o),
(113,337,cs),
(112,330,o),
(104,326,o),
(96,328,cs),
(90,329,o),
(85,332,o),
(81,335,cs),
(60,350,o),
(43,339,o),
(28,323,cs),
(26,321,o),
(25,318,o),
(23,314,c)
);
}
);
width = 113;
},
{
hints = (
{
horizontal = 1;
place = (314, 260);
place = (314, 260);
type = Stem;
},
{
place = (68, 339);
place = (68, 339);
type = Stem;
}
);
layerId = m002;
shapes = (
{
closed = 1;
nodes = (
(71,330,o),
(57,357,o),
(76,415,cs),
(86,443,o),
(96,470,o),
(121,490,cs),
(149,512,o),
(174,527,o),
(211,521,cs),
(235,517,o),
(260,524,o),
(280,542,cs),
(296,555,o),
(317,563,o),
(336,574,c),
(351,558,o),
(340,528,o),
(368,529,c),
(406,487,o),
(410,436,o),
(406,384,cs),
(404,362,o),
(379,349,o),
(355,355,cs),
(339,359,o),
(324,367,o),
(311,377,cs),
(247,423,o),
(197,390,o),
(152,342,cs),
(145,335,o),
(142,325,o),
(136,314,c)
);
}
);
width = 439;
},
{
hints = (
{
horizontal = 1;
place = (467, 305);
place = (467, 305);
type = Stem;
},
{
place = (-271, 542);
place = (-271, 542);
type = Stem;
}
);
layerId = m003;
shapes = (
{
closed = 1;
nodes = (
(8,362,o),
(-34,443,o),
(23,617,cs),
(53,701,o),
(83,782,o),
(158,842,cs),
(242,908,o),
(317,953,o),
(428,935,cs),
(500,923,o),
(575,944,o),
(635,998,cs),
(683,1037,o),
(746,1061,o),
(803,1094,c),
(848,1046,o),
(815,956,o),
(899,959,c),
(1013,833,o),
(1025,680,o),
(1013,524,cs),
(1007,458,o),
(932,419,o),
(860,437,cs),
(812,449,o),
(767,473,o),
(728,503,cs),
(536,641,o),
(386,542,o),
(251,398,cs),
(230,377,o),
(221,347,o),
(203,314,c)
);
}
);
width = 917;
}
);
note = G;
unicode = 71;
},
{
glyphname = H;
lastChange = "2022-03-10 22:23:03 +0000";
layers = (
{
hints = (
{
horizontal = 1;
place = (-115, 74);
place = (-115, 74);
type = Stem;
},
{
place = (-45, 55);
place = (-45, 55);
type = Stem;
}
);
layerId = m01;
shapes = (
{
closed = 1;
nodes = (
(66,-291,o),
(61,-300,o),
(53,-309,cs),
(42,-320,o),
(30,-322,o),
(17,-313,cs),
(0,-302,o),
(-4,-291,o),
(4,-275,cs),
(10,-265,o),
(15,-256,o),
(21,-246,cs),
(29,-233,o),
(35,-233,o),
(48,-243,cs),
(59,-252,o),
(67,-263,o),
(63,-279,c)
);
}
);
width = 64;
},
{
hints = (
{
horizontal = 1;
place = (-318, 247);
place = (-318, 247);
type = Stem;
},
{
place = (-108, 190);
place = (-108, 190);
type = Stem;
}
);
layerId = m002;
shapes = (
{
closed = 1;
nodes = (
(89,-236,o),
(73,-263,o),
(49,-289,cs),
(17,-323,o),
(-19,-328,o),
(-59,-302,cs),
(-109,-268,o),
(-120,-235,o),
(-96,-189,cs),
(-80,-159,o),
(-65,-130,o),
(-47,-102,cs),
(-22,-63,o),
(-3,-61,o),
(34,-91,cs),
(67,-120,o),
(92,-152,o),
(79,-200,c)
);
}
);
width = 291;
},
{
hints = (
{
horizontal = 1;
place = (-928, 767);
place = (-928, 767);
type = Stem;
},
{
place = (-298, 596);
place = (-298, 596);
type = Stem;
}
);
layerId = m003;
shapes = (
{
closed = 1;
nodes = (
(592,-71,o),
(544,-152,o),
(472,-230,cs),
(376,-332,o),
(268,-347,o),
(148,-269,cs),
(-2,-167,o),
(-35,-68,o),
(37,70,cs),
(85,160,o),
(130,247,o),
(184,331,cs),
(259,448,o),
(316,454,o),
(427,364,cs),
(526,277,o),
(601,181,o),
(562,37,c)
);
}
);
width = 473;
}
);
note = H;
unicode = 72;
},
{
glyphname = I;
lastChange = "2022-03-10 22:23:03 +0000";
layers = (
{
hints = (
{
horizontal = 1;
place = (246, 250);
place = (246, 250);
type = Stem;
},
{
place = (141, 202);
place = (141, 202);
type = Stem;
}
);
layerId = m01;
shapes = (
{
closed = 1;
nodes = (
(6,392,o),
(12,402,o),
(16,411,cs),
(23,426,o),
(22,441,o),
(13,456,cs),
(3,471,o),
(7,483,o),
(22,492,cs),
(36,500,o),
(50,505,o),
(65,500,cs),
(80,496,o),
(85,489,o),
(78,475,cs),
(68,456,o),
(67,436,o),
(72,416,cs),
(74,409,o),
(75,402,o),
(74,396,cs),
(73,391,o),
(68,384,o),
(64,382,cs),
(49,378,o),
(35,375,o),
(20,373,cs),
(12,372,o),
(4,375,o),
(0,382,c)
);
}
);
width = 81;
},
{
hints = (
{
horizontal = 1;
place = (374, 386);
place = (374, 386);
type = Stem;
},
{
place = (60, 242);
place = (60, 242);
type = Stem;
}
);
layerId = m002;
shapes = (
{
closed = 1;
nodes = (
(78,431,o),
(96,459,o),
(109,488,cs),
(129,533,o),
(126,578,o),
(99,621,cs),
(70,667,o),
(81,702,o),
(127,729,cs),
(167,753,o),
(209,768,o),
(256,755,cs),
(301,743,o),
(314,720,o),
(293,679,cs),
(263,621,o),
(261,562,o),
(277,501,cs),
(282,482,o),
(286,461,o),
(281,443,cs),
(278,427,o),
(264,405,o),
(251,401,cs),
(208,388,o),
(164,379,o),
(120,374,cs),
(95,370,o),
(71,380,o),
(60,399,c)
);
}
);
width = 343;
},
{
hints = (
{
horizontal = 1;
place = (759, 795);
place = (759, 795);
type = Stem;
},
{
place = (-183, 363);
place = (-183, 363);
type = Stem;
}
);
layerId = m003;
shapes = (
{
closed = 1;
nodes = (
(54,547,o),
(108,631,o),
(147,718,cs),
(207,853,o),
(198,988,o),
(117,1117,cs),
(30,1255,o),
(63,1360,o),
(201,1441,cs),
(321,1513,o),
(447,1558,o),
(588,1519,cs),
(723,1483,o),
(762,1414,o),
(699,1291,cs),
(609,1117,o),
(603,940,o),
(651,757,cs),
(666,700,o),
(678,637,o),
(663,583,cs),
(654,535,o),
(612,469,o),
(573,457,cs),
(444,418,o),
(312,391,o),
(180,376,cs),
(105,364,o),
(33,394,o),
(0,451,c)
);
}
);
width = 628;
}
);
note = I;
unicode = 73;
},
{
glyphname = J;
lastChange = "2022-03-10 22:23:03 +0000";
layers = (
{
hints = (
{
horizontal = 1;
place = (30, 178);
place = (30, 178);
type = Stem;
},
{
place = (67, 135);
place = (67, 135);
type = Stem;
}
);
layerId = m01;
shapes = (
{
closed = 1;
nodes = (
(25,-106,o),
(22,-102,o),
(21,-99,cs),
(14,-86,o),
(11,-73,o),
(2,-62,cs),
(-2,-56,o),
(0,-45,o),
(0,-36,cs),
(0,-29,o),
(0,-21,o),
(1,-13,cs),
(2,-9,o),
(2,-3,o),
(5,0,cs),
(8,2,o),
(15,1,o),
(19,0,cs),
(23,-2,o),
(26,-5,o),
(30,-7,cs),
(41,-14,o),
(51,-19,o),
(65,-14,c),
(68,-25,o),
(68,-34,o),
(64,-44,cs),
(59,-55,o),
(54,-66,o),
(49,-77,cs),
(47,-85,o),
(44,-92,o),
(36,-97,cs),
(32,-99,o),
(31,-104,o),
(27,-110,c)
);
}
);
width = 67;
},
{
hints = (
{
horizontal = 1;
place = (-110, 333);
place = (-110, 333);
type = Stem;
},
{
place = (-1, 203);
place = (-1, 203);
type = Stem;
}
);
layerId = m002;
shapes = (
{
closed = 1;
nodes = (
(74,-97,o),
(67,-87,o),
(62,-76,cs),
(43,-39,o),
(34,1,o),
(7,35,cs),
(-6,52,o),
(1,85,o),
(1,112,cs),
(1,134,o),
(1,157,o),
(3,180,cs),
(5,194,o),
(7,212,o),
(16,219,cs),
(25,225,o),
(44,223,o),
(57,219,cs),
(69,215,o),
(79,205,o),
(91,198,cs),
(122,179,o),
(154,164,o),
(194,178,c),
(205,146,o),
(205,118,o),
(192,89,cs),
(176,56,o),
(161,23,o),
(148,-11,cs),
(140,-35,o),
(131,-56,o),
(107,-70,cs),
(97,-76,o),
(92,-93,o),
(82,-110,c)
);
}
);
width = 303;
},
{
hints = (
{
horizontal = 1;
place = (-531, 798);
place = (-531, 798);
type = Stem;
},
{
place = (-204, 408);
place = (-204, 408);
type = Stem;
}
);
layerId = m003;
shapes = (
{
closed = 1;
nodes = (
(225,-71,o),
(204,-41,o),
(189,-8,cs),
(132,103,o),
(105,223,o),
(24,325,cs),
(-15,376,o),
(6,475,o),
(6,556,cs),
(6,622,o),
(6,691,o),
(12,760,cs),
(18,802,o),
(24,856,o),
(51,877,cs),
(78,895,o),
(135,889,o),
(174,877,cs),
(210,865,o),
(240,835,o),
(276,814,cs),
(369,757,o),
(465,712,o),
(585,754,c),
(618,658,o),
(618,574,o),
(579,487,cs),
(531,388,o),
(486,289,o),
(447,187,cs),
(423,115,o),
(396,52,o),
(324,10,cs),
(294,-8,o),
(279,-59,o),
(249,-110,c)
);
}
);
width = 509;
}
);
note = J;
unicode = 74;
},
{
glyphname = K;
lastChange = "2022-03-10 22:23:03 +0000";
layers = (
{
hints = (
{
horizontal = 1;
place = (293, 290);
place = (293, 290);
type = Stem;
},
{
place = (191, 289);
place = (191, 289);
type = Stem;
}
);
layerId = m01;
shapes = (
{
closed = 1;
nodes = (
(7,482,l),
(7,482,o),
(7,482,o),
(7,482,c),
(7,483,l),
(7,482,o),
(8,482,o),
(8,482,c)
);
},
{
closed = 1;
nodes = (
(-3,470,o),
(1,476,o),
(7,482,c),
(7,482,o),
(7,483,o),
(7,483,c),
(13,486,o),
(18,489,o),
(23,494,cs),
(30,500,o),
(36,499,o),
(43,494,cs),
(47,491,o),
(51,487,o),
(55,483,cs),
(65,475,o),
(72,476,o),
(81,485,cs),
(83,487,o),
(84,489,o),
(85,490,cs),
(91,497,o),
(97,497,o),
(102,491,cs),
(116,472,o),
(124,452,o),
(120,429,cs),
(119,419,o),
(113,413,o),
(106,408,cs),
(101,405,o),
(97,401,o),
(95,396,cs),
(91,387,o),
(86,381,o),
(76,380,cs),
(72,380,o),
(69,378,o),
(66,377,cs),
(53,374,o),
(54,374,o),
(47,386,cs),
(38,400,o),
(27,414,o),
(19,428,cs),
(12,439,o),
(8,450,o),
(2,461,cs)
);
},
{
closed = 1;
nodes = (
(10,481,o),
(11,479,o),
(13,478,c),
(14,480,l),
(12,481,o),
(10,481,o),
(8,482,c)
);
}
);
width = 121;
},
{
hints = (
{
horizontal = 1;
place = (376, 367);
place = (376, 367);
type = Stem;
},
{
place = (70, 363);
place = (70, 363);
type = Stem;
}
);
layerId = m002;
shapes = (
{
closed = 1;
nodes = (
(90,696,l),
(90,696,o),
(90,696,o),
(90,696,c),
(91,697,l),
(92,696,o),
(93,696,o),
(94,695,c)
);
},
{
closed = 1;
nodes = (
(62,658,o),
(72,677,o),
(90,696,c),
(90,696,o),
(91,697,o),
(91,697,c),
(108,707,o),
(125,717,o),
(139,730,cs),
(159,748,o),
(178,746,o),
(198,731,cs),
(211,721,o),
(223,710,o),
(236,699,cs),
(266,674,o),
(286,676,o),
(313,704,cs),
(318,709,o),
(321,715,o),
(326,720,cs),
(344,739,o),
(360,741,o),
(376,721,cs),
(417,666,o),
(442,606,o),
(431,535,cs),
(426,506,o),
(410,488,o),
(387,472,cs),
(374,463,o),
(360,451,o),
(355,437,cs),
(344,409,o),
(327,393,o),
(297,390,cs),
(287,389,o),
(278,384,o),
(268,381,cs),
(229,371,o),
(231,372,o),
(210,406,cs),
(183,449,o),
(152,490,o),
(126,534,cs),
(107,565,o),
(94,599,o),
(77,631,cs)
);
},
{
closed = 1;
nodes = (
(99,691,o),
(103,687,o),
(108,683,c),
(111,689,l),
(105,691,o),
(100,693,o),
(94,695,c)
);
}
);
width = 464;
},
{
hints = (
{
horizontal = 1;
place = (625, 598);
place = (625, 598);
type = Stem;
},
{
place = (-293, 586);
place = (-293, 586);
type = Stem;
}
);
layerId = m003;
shapes = (
{
closed = 1;
nodes = (
(61,1337,l),
(61,1337,o),
(61,1337,o),
(61,1337,c),
(64,1340,l),
(67,1337,o),
(70,1337,o),
(73,1334,c)
);
},
{
closed = 1;
nodes = (
(-23,1223,o),
(7,1280,o),
(61,1337,c),
(61,1337,o),
(64,1340,o),
(64,1340,c),
(115,1370,o),
(166,1400,o),
(208,1439,cs),
(268,1493,o),
(325,1487,o),
(385,1442,cs),
(424,1412,o),
(460,1379,o),
(499,1346,cs),
(589,1271,o),
(649,1277,o),
(730,1361,cs),
(745,1376,o),
(754,1394,o),
(769,1409,cs),
(823,1466,o),
(871,1472,o),
(919,1412,cs),
(1042,1247,o),
(1117,1067,o),
(1084,854,cs),
(1069,767,o),
(1021,713,o),
(952,665,cs),
(913,638,o),
(871,602,o),
(856,560,cs),
(823,476,o),
(772,428,o),
(682,419,cs),
(652,416,o),
(625,401,o),
(595,392,cs),
(478,362,o),
(484,365,o),
(421,467,cs),
(340,596,o),
(247,719,o),
(169,851,cs),
(112,944,o),
(73,1046,o),
(22,1142,cs)
);
},
{
closed = 1;
nodes = (
(88,1322,o),
(100,1310,o),
(115,1298,c),
(124,1316,l),
(106,1322,o),
(91,1328,o),
(73,1334,c)
);
}
);
width = 992;
}
);
note = K;
unicode = 75;
},
{
glyphname = L;
lastChange = "2022-03-10 22:23:03 +0000";
layers = (
{
hints = (
{
horizontal = 1;
place = (221, 215);
place = (221, 215);
type = Stem;
},
{
place = (103, 205);
place = (103, 205);
type = Stem;
}
);
layerId = m01;
shapes = (
{
closed = 1;
nodes = (
(55,469,o),
(65,465,o),
(76,459,cs),
(82,455,o),
(88,451,o),
(89,444,cs),
(90,442,o),
(91,439,o),
(93,438,cs),
(106,424,o),
(102,408,o),
(98,391,cs),
(95,379,o),
(84,376,o),
(77,368,cs),
(72,363,o),
(64,360,o),
(57,356,cs),
(54,355,o),
(50,355,o),
(47,357,cs),
(42,359,o),
(37,361,o),
(32,365,cs),
(3,389,o),
(-15,422,o),
(15,457,cs),
(24,467,o),
(25,468,o),
(44,468,c)
);
}
);
width = 102;
},
{
hints = (
{
horizontal = 1;
place = (355, 338);
place = (355, 338);
type = Stem;
},
{
place = (0, 307);
place = (0, 307);
type = Stem;
}
);
layerId = m002;
shapes = (
{
closed = 1;
nodes = (
(166,697,o),
(197,685,o),
(228,666,cs),
(247,655,o),
(264,643,o),
(269,620,cs),
(271,614,o),
(274,607,o),
(279,602,cs),
(320,560,o),
(308,512,o),
(295,462,cs),
(286,427,o),
(254,416,o),
(233,394,cs),
(218,377,o),
(194,368,o),
(173,358,cs),
(164,354,o),
(151,355,o),
(141,359,cs),
(126,365,o),
(111,373,o),
(98,383,cs),
(11,455,o),
(-43,555,o),
(46,661,cs),
(72,691,o),
(77,693,o),
(134,692,c)
);
}
);
width = 407;
},
{
hints = (
{
horizontal = 1;
place = (757, 706);
place = (757, 706);
type = Stem;
},
{
place = (-308, 613);
place = (-308, 613);
type = Stem;
}
);
layerId = m003;
shapes = (
{
closed = 1;
nodes = (
(497,1380,o),
(590,1344,o),
(683,1287,cs),
(740,1254,o),
(791,1218,o),
(806,1149,cs),
(812,1131,o),
(821,1110,o),
(836,1095,cs),
(959,969,o),
(923,825,o),
(884,675,cs),
(857,570,o),
(761,537,o),
(698,471,cs),
(653,420,o),
(581,393,o),
(518,363,cs),
(491,351,o),
(452,354,o),
(422,366,cs),
(377,384,o),
(332,408,o),
(293,438,cs),
(32,654,o),
(-130,954,o),
(137,1272,cs),
(215,1362,o),
(230,1368,o),
(401,1365,c)
);
}
);
width = 821;
}
);
note = L;
unicode = 76;
},
{
glyphname = M;
lastChange = "2022-03-10 22:23:03 +0000";
layers = (
{
hints = (
{
horizontal = 1;
place = (225, 554);
place = (225, 554);
type = Stem;
},
{
place = (377, 637);
place = (377, 637);
type = Stem;
}
);
layerId = m01;
shapes = (
{
closed = 1;
nodes = (
(264,-165,o),
(265,-166,o),
(266,-167,cs),
(282,-176,o),
(283,-192,o),
(285,-207,cs),
(288,-226,o),
(289,-246,o),
(290,-265,cs),
(290,-272,o),
(285,-280,o),
(281,-286,cs),
(274,-296,o),
(265,-307,o),
(256,-316,cs),
(247,-325,o),
(237,-333,o),
(223,-333,cs),
(216,-333,o),
(209,-335,o),
(202,-338,cs),
(180,-346,o),
(158,-356,o),
(136,-365,cs),
(117,-372,o),
(100,-369,o),
(82,-360,cs),
(66,-352,o),
(56,-340,o),
(44,-328,cs),
(32,-317,o),
(20,-306,o),
(9,-295,cs),
(-2,-285,o),
(-2,-277,o),
(6,-264,cs),
(15,-250,o),
(23,-235,o),
(30,-219,cs),
(36,-202,o),
(47,-197,o),
(62,-208,cs),
(75,-217,o),
(88,-213,o),
(100,-215,cs),
(103,-216,o),
(108,-213,o),
(109,-211,cs),
(115,-201,o),
(125,-200,o),
(135,-201,cs),
(149,-202,o),
(161,-200,o),
(172,-193,cs),
(174,-191,o),
(177,-189,o),
(179,-189,cs),
(206,-194,o),
(225,-177,o),
(247,-168,cs),
(252,-166,o),
(256,-165,o),
(262,-162,c)
);
}
);
width = 290;
},
{
hints = (
{
horizontal = 1;
place = (-369, 619);
place = (-369, 619);
type = Stem;
},
{
place = (88, 868);
place = (88, 868);
type = Stem;
}
);
layerId = m002;
shapes = (
{
closed = 1;
nodes = (
(879,243,o),
(882,238,o),
(886,235,cs),
(932,208,o),
(936,160,o),
(942,116,cs),
(951,58,o),
(955,0,o),
(956,-58,cs),
(956,-79,o),
(943,-102,o),
(930,-120,cs),
(908,-152,o),
(883,-184,o),
(855,-212,cs),
(829,-239,o),
(799,-263,o),
(756,-263,cs),
(735,-262,o),
(714,-269,o),
(694,-276,cs),
(627,-302,o),
(562,-332,o),
(495,-357,cs),
(439,-378,o),
(386,-369,o),
(332,-343,cs),
(285,-320,o),
(254,-282,o),
(218,-247,cs),
(184,-214,o),
(147,-182,o),
(113,-149,cs),
(80,-117,o),
(81,-95,o),
(105,-56,cs),
(131,-12,o),
(157,33,o),
(176,81,cs),
(196,130,o),
(229,145,o),
(274,113,cs),
(312,87,o),
(350,98,o),
(388,92,cs),
(396,90,o),
(410,97,o),
(414,103,cs),
(433,135,o),
(463,137,o),
(493,134,cs),
(533,131,o),
(569,138,o),
(602,159,cs),
(609,164,o),
(618,170,o),
(625,169,cs),
(704,155,o),
(762,207,o),
(828,232,cs),
(842,238,o),
(856,243,o),
(873,250,c)
);
}
);
width = 968;
},
{
hints = (
{
horizontal = 1;
place = (-2151, 813);
place = (-2151, 813);
type = Stem;
},
{
place = (-780, 1560);
place = (-780, 1560);
type = Stem;
}
);
layerId = m003;
shapes = (
{
closed = 1;
nodes = (
(2374,1466,o),
(2383,1451,o),
(2395,1442,cs),
(2533,1361,o),
(2545,1217,o),
(2563,1085,cs),
(2590,911,o),
(2602,737,o),
(2605,563,cs),
(2605,500,o),
(2566,431,o),
(2527,377,cs),
(2461,281,o),
(2386,185,o),
(2302,101,cs),
(2224,20,o),
(2134,-52,o),
(2005,-52,cs),
(1942,-49,o),
(1879,-70,o),
(1819,-91,cs),
(1618,-169,o),
(1423,-259,o),
(1222,-334,cs),
(1054,-397,o),
(895,-370,o),
(733,-292,cs),
(592,-223,o),
(499,-109,o),
(391,-4,cs),
(289,95,o),
(178,191,o),
(76,290,cs),
(-23,386,o),
(-20,452,o),
(52,569,cs),
(130,701,o),
(208,836,o),
(265,980,cs),
(325,1127,o),
(424,1172,o),
(559,1076,cs),
(673,998,o),
(787,1031,o),
(901,1013,cs),
(925,1007,o),
(967,1028,o),
(979,1046,cs),
(1036,1142,o),
(1126,1148,o),
(1216,1139,cs),
(1336,1130,o),
(1444,1151,o),
(1543,1214,cs),
(1564,1229,o),
(1591,1247,o),
(1612,1244,cs),
(1849,1202,o),
(2023,1358,o),
(2221,1433,cs),
(2263,1451,o),
(2305,1466,o),
(2356,1487,c)
);
}
);
width = 2505;
}
);
note = M;
unicode = 77;
},
{
glyphname = N;
lastChange = "2022-03-10 22:23:03 +0000";
layers = (
{
hints = (
{
horizontal = 1;
place = (269, 431);
place = (269, 431);
type = Stem;
},
{
place = (270, 355);
place = (270, 355);
type = Stem;
}
);
layerId = m01;
shapes = (
{
closed = 1;
nodes = (
(31,268,o),
(34,276,o),
(40,282,cs),
(53,295,o),
(59,310,o),
(61,327,cs),
(61,334,o),
(62,341,o),
(71,343,c),
(76,331,o),
(80,320,o),
(79,307,cs),
(76,288,o),
(79,270,o),
(82,251,cs),
(85,228,o),
(95,209,o),
(107,190,cs),
(108,188,o),
(110,184,o),
(112,184,cs),
(126,180,o),
(125,166,o),
(131,155,c),
(125,153,o),
(120,151,o),
(115,149,cs),
(98,145,o),
(80,142,o),
(63,137,cs),
(50,133,o),
(33,138,o),
(27,151,cs),
(23,161,o),
(18,172,o),
(18,182,cs),
(17,194,o),
(14,204,o),
(7,213,cs),
(-3,227,o),
(-2,229,o),
(7,243,cs),
(12,252,o),
(17,257,o),
(25,257,c)
);
}
);
width = 131;
},
{
hints = (
{
horizontal = 1;
place = (136, 622);
place = (136, 622);
type = Stem;
},
{
place = (139, 393);
place = (139, 393);
type = Stem;
}
);
layerId = m002;
shapes = (
{
closed = 1;
nodes = (
(231,532,o),
(241,558,o),
(259,575,cs),
(299,613,o),
(315,659,o),
(321,711,cs),
(323,732,o),
(325,751,o),
(353,758,c),
(367,722,o),
(380,690,o),
(375,649,cs),
(367,594,o),
(375,538,o),
(384,482,cs),
(395,413,o),
(423,356,o),
(459,300,cs),
(464,293,o),
(468,282,o),
(474,280,cs),
(518,269,o),
(514,228,o),
(532,193,c),
(513,187,o),
(499,181,o),
(484,177,cs),
(432,164,o),
(380,154,o),
(329,139,cs),
(288,128,o),
(239,143,o),
(221,182,cs),
(207,211,o),
(194,244,o),
(193,276,cs),
(191,312,o),
(180,340,o),
(160,368,cs),
(130,409,o),
(133,416,o),
(160,459,cs),
(175,484,o),
(191,501,o),
(213,501,c)
);
}
);
width = 493;
},
{
hints = (
{
horizontal = 1;
place = (-263, 1195);
place = (-263, 1195);
type = Stem;
},
{
place = (-254, 508);
place = (-254, 508);
type = Stem;
}
);
layerId = m003;
shapes = (
{
closed = 1;
nodes = (
(277,1325,o),
(307,1403,o),
(361,1454,cs),
(481,1568,o),
(529,1706,o),
(547,1862,cs),
(553,1925,o),
(559,1982,o),
(643,2003,c),
(685,1895,o),
(724,1799,o),
(709,1676,cs),
(685,1511,o),
(709,1343,o),
(736,1175,cs),
(769,968,o),
(853,797,o),
(961,629,cs),
(976,608,o),
(988,575,o),
(1006,569,cs),
(1138,536,o),
(1126,413,o),
(1180,308,c),
(1123,290,o),
(1081,272,o),
(1036,260,cs),
(880,221,o),
(724,191,o),
(571,146,cs),
(448,113,o),
(301,158,o),
(247,275,cs),
(205,362,o),
(166,461,o),
(163,557,cs),
(157,665,o),
(124,749,o),
(64,833,cs),
(-26,956,o),
(-17,977,o),
(64,1106,cs),
(109,1181,o),
(157,1232,o),
(223,1232,c)
);
}
);
width = 1080;
}
);
note = N;
unicode = 78;
},
{
glyphname = O;
lastChange = "2022-03-10 22:23:03 +0000";
layers = (
{
hints = (
{
horizontal = 1;
place = (209, 200);
place = (209, 200);
type = Stem;
},
{
place = (71, 165);
place = (71, 165);
type = Stem;
}
);
layerId = m01;
shapes = (
{
closed = 1;
nodes = (
(49,505,o),
(66,492,o),
(83,478,cs),
(90,472,o),
(91,467,o),
(83,460,cs),
(75,454,o),
(72,446,o),
(71,436,cs),
(70,427,o),
(66,418,o),
(63,409,cs),
(57,396,o),
(43,393,o),
(34,404,cs),
(22,419,o),
(9,435,o),
(3,454,cs),
(-1,468,o),
(-1,484,o),
(6,496,cs),
(11,506,o),
(22,512,o),
(31,520,c)
);
}
);
width = 89;
},
{
hints = (
{
horizontal = 1;
place = (397, 368);
place = (397, 368);
type = Stem;
},
{
place = (-17, 265);
place = (-17, 265);
type = Stem;
}
);
layerId = m002;
shapes = (
{
closed = 1;
nodes = (
(130,721,o),
(181,682,o),
(230,641,cs),
(253,622,o),
(254,608,o),
(230,587,cs),
(207,567,o),
(198,544,o),
(194,514,cs),
(191,487,o),
(181,459,o),
(170,434,cs),
(154,394,o),
(111,384,o),
(85,417,cs),
(48,464,o),
(10,510,o),
(-8,569,cs),
(-21,611,o),
(-21,657,o),
(0,694,cs),
(16,723,o),
(49,742,o),
(74,765,c)
);
}
);
width = 365;
},
{
hints = (
{
horizontal = 1;
place = (960, 873);
place = (960, 873);
type = Stem;
},
{
place = (-282, 564);
place = (-282, 564);
type = Stem;
}
);
layerId = m003;
shapes = (
{
closed = 1;
nodes = (
(441,1369,o),
(594,1252,o),
(741,1129,cs),
(810,1072,o),
(813,1030,o),
(741,967,cs),
(672,907,o),
(645,838,o),
(633,748,cs),
(624,667,o),
(594,583,o),
(561,508,cs),
(513,388,o),
(384,358,o),
(306,457,cs),
(195,598,o),
(81,736,o),
(27,913,cs),
(-12,1039,o),
(-12,1177,o),
(51,1288,cs),
(99,1375,o),
(198,1432,o),
(273,1501,c)
);
}
);
width = 694;
}
);
note = O;
unicode = 79;
},
{
glyphname = P;
lastChange = "2022-03-10 22:23:03 +0000";
layers = (
{
hints = (
{
horizontal = 1;
place = (69, 219);
place = (69, 219);
type = Stem;
},
{
place = (60, 119);
place = (60, 119);
type = Stem;
}
);
layerId = m01;
shapes = (
{
closed = 1;
nodes = (
(60,181,o),
(61,174,o),
(58,165,cs),
(57,163,o),
(57,162,o),
(56,160,cs),
(43,138,o),
(46,115,o),
(50,92,cs),
(51,84,o),
(52,76,o),
(48,69,cs),
(41,57,o),
(36,45,o),
(29,34,cs),
(21,23,o),
(10,24,o),
(5,37,cs),
(-2,52,o),
(-2,68,o),
(4,84,cs),
(7,92,o),
(8,99,o),
(5,108,cs),
(1,123,o),
(2,140,o),
(8,153,cs),
(13,163,o),
(24,171,o),
(33,178,cs),
(37,182,o),
(43,183,o),
(49,186,c)
);
}
);
width = 59;
},
{
hints = (
{
horizontal = 1;
place = (27, 477);
place = (27, 477);
type = Stem;
},
{
place = (0, 179);
place = (0, 179);
type = Stem;
}
);
layerId = m002;
shapes = (
{
closed = 1;
nodes = (
(180,491,o),
(184,469,o),
(174,442,cs),
(172,437,o),
(172,432,o),
(170,428,cs),
(129,362,o),
(138,292,o),
(150,222,cs),
(155,198,o),
(156,176,o),
(144,154,cs),
(125,119,o),
(110,82,o),
(88,49,cs),
(65,16,o),
(30,20,o),
(15,57,cs),
(-4,103,o),
(-5,151,o),
(12,198,cs),
(21,222,o),
(25,245,o),
(17,270,cs),
(3,316,o),
(7,366,o),
(26,407,cs),
(40,437,o),
(74,459,o),
(101,482,cs),
(113,492,o),
(130,496,o),
(147,504,c)
);
}
);
width = 279;
},
{
hints = (
{
horizontal = 1;
place = (-98, 1252);
place = (-98, 1252);
type = Stem;
},
{
place = (-179, 358);
place = (-179, 358);
type = Stem;
}
);
layerId = m003;
shapes = (
{
closed = 1;
nodes = (
(540,1420,o),
(552,1354,o),
(522,1273,cs),
(516,1258,o),
(516,1243,o),
(510,1231,cs),
(387,1033,o),
(414,823,o),
(450,613,cs),
(465,541,o),
(468,475,o),
(432,409,cs),
(375,304,o),
(330,193,o),
(264,94,cs),
(195,-5,o),
(90,7,o),
(45,118,cs),
(-12,256,o),
(-15,400,o),
(36,541,cs),
(63,613,o),
(75,682,o),
(51,757,cs),
(9,895,o),
(21,1045,o),
(78,1168,cs),
(120,1258,o),
(222,1324,o),
(303,1393,cs),
(339,1423,o),
(390,1435,o),
(441,1459,c)
);
}
);
width = 436;
}
);
note = P;
unicode = 80;
},
{
glyphname = Q;
lastChange = "2022-03-10 22:23:03 +0000";
layers = (
{
hints = (
{
horizontal = 1;
place = (350, 417);
place = (350, 417);
type = Stem;
},
{
place = (334, 414);
place = (334, 414);
type = Stem;
}
);
layerId = m01;
shapes = (
{
closed = 1;
nodes = (
(26,387,o),
(35,384,o),
(42,376,cs),
(61,353,o),
(86,338,o),
(115,332,cs),
(129,330,o),
(135,320,o),
(138,307,cs),
(140,298,o),
(141,289,o),
(143,280,cs),
(146,266,o),
(141,255,o),
(129,242,c),
(128,254,o),
(125,262,o),
(125,270,cs),
(125,286,o),
(116,296,o),
(105,305,cs),
(96,312,o),
(89,310,o),
(84,300,cs),
(82,295,o),
(81,290,o),
(79,286,cs),
(76,276,o),
(72,269,o),
(62,265,cs),
(55,262,o),
(50,255,o),
(46,249,cs),
(37,237,o),
(28,236,o),
(17,247,cs),
(3,260,o),
(0,278,o),
(0,297,cs),
(1,312,o),
(1,328,o),
(3,343,cs),
(6,357,o),
(11,371,o),
(15,386,c)
);
}
);
width = 144;
},
{
hints = (
{
horizontal = 1;
place = (239, 439);
place = (239, 439);
type = Stem;
},
{
place = (191, 430);
place = (191, 430);
type = Stem;
}
);
layerId = m002;
shapes = (
{
closed = 1;
nodes = (
(269,681,o),
(294,674,o),
(317,648,cs),
(374,580,o),
(447,536,o),
(535,518,cs),
(576,510,o),
(596,482,o),
(603,443,cs),
(609,415,o),
(614,387,o),
(619,360,cs),
(628,319,o),
(613,286,o),
(578,248,c),
(573,282,o),
(565,307,o),
(565,332,cs),
(566,380,o),
(539,410,o),
(505,436,cs),
(477,458,o),
(457,452,o),
(442,420,cs),
(436,407,o),
(432,392,o),
(427,378,cs),
(418,350,o),
(405,329,o),
(375,316,cs),
(356,308,o),
(340,286,o),
(327,268,cs),
(300,232,o),
(274,230,o),
(242,261,cs),
(198,302,o),
(190,355,o),
(191,411,cs),
(193,457,o),
(193,504,o),
(200,549,cs),
(207,593,o),
(222,635,o),
(234,678,c)
);
}
);
width = 531;
},
{
hints = (
{
horizontal = 1;
place = (-95, 505);
place = (-95, 505);
type = Stem;
},
{
place = (-239, 478);
place = (-239, 478);
type = Stem;
}
);
layerId = m003;
shapes = (
{
closed = 1;
nodes = (
(234,1564,o),
(309,1543,o),
(378,1465,cs),
(549,1261,o),
(768,1129,o),
(1032,1075,cs),
(1155,1051,o),
(1215,967,o),
(1236,850,cs),
(1254,766,o),
(1269,682,o),
(1284,601,cs),
(1311,478,o),
(1266,379,o),
(1161,265,c),
(1146,367,o),
(1122,442,o),
(1122,517,cs),
(1125,661,o),
(1044,751,o),
(942,829,cs),
(858,895,o),
(798,877,o),
(753,781,cs),
(735,742,o),
(723,697,o),
(708,655,cs),
(681,571,o),
(642,508,o),
(552,469,cs),
(495,445,o),
(447,379,o),
(408,325,cs),
(327,217,o),
(249,211,o),
(153,304,cs),
(21,427,o),
(-3,586,o),
(0,754,cs),
(6,892,o),
(6,1033,o),
(27,1168,cs),
(48,1300,o),
(93,1426,o),
(129,1555,c)
);
}
);
width = 1192;
}
);
note = Q;
unicode = 81;
},
{
glyphname = R;
lastChange = "2022-03-10 22:23:03 +0000";
layers = (
{
hints = (
{
horizontal = 1;
place = (162, 280);
place = (162, 280);
type = Stem;
},
{
place = (96, 276);
place = (96, 276);
type = Stem;
}
);
layerId = m01;
shapes = (
{
closed = 1;
nodes = (
(35,258,o),
(43,258,o),
(52,256,cs),
(63,255,o),
(73,258,o),
(82,267,cs),
(86,270,o),
(91,273,o),
(94,278,cs),
(101,289,o),
(112,293,o),
(124,297,cs),
(134,299,o),
(144,300,o),
(152,292,cs),
(160,283,o),
(161,271,o),
(157,260,cs),
(148,238,o),
(130,225,o),
(108,223,cs),
(90,221,o),
(81,211,o),
(73,198,cs),
(67,187,o),
(64,175,o),
(59,163,cs),
(56,156,o),
(53,150,o),
(49,144,cs),
(43,137,o),
(36,132,o),
(26,137,cs),
(24,138,o),
(23,138,o),
(21,138,cs),
(11,138,o),
(4,143,o),
(1,153,cs),
(-2,163,o),
(0,173,o),
(8,180,cs),
(13,184,o),
(18,187,o),
(23,191,cs),
(39,203,o),
(40,206,o),
(34,225,cs),
(32,230,o),
(28,235,o),
(27,241,cs),
(25,246,o),
(26,252,o),
(26,259,c)
);
}
);
width = 159;
},
{
hints = (
{
horizontal = 1;
place = (135, 489);
place = (135, 489);
type = Stem;
},
{
place = (-64, 478);
place = (-64, 478);
type = Stem;
}
);
layerId = m002;
shapes = (
{
closed = 1;
nodes = (
(42,504,o),
(67,503,o),
(92,499,cs),
(127,494,o),
(157,505,o),
(182,530,cs),
(194,541,o),
(210,550,o),
(218,563,cs),
(240,598,o),
(273,610,o),
(309,620,cs),
(340,627,o),
(370,629,o),
(393,605,cs),
(418,578,o),
(419,542,o),
(407,511,cs),
(382,445,o),
(327,406,o),
(260,400,cs),
(207,394,o),
(180,363,o),
(157,325,cs),
(138,292,o),
(129,254,o),
(114,219,cs),
(106,199,o),
(97,179,o),
(84,162,cs),
(67,140,o),
(44,126,o),
(14,141,cs),
(10,143,o),
(5,145,o),
(0,145,cs),
(-31,144,o),
(-52,160,o),
(-60,188,cs),
(-69,218,o),
(-63,248,o),
(-38,270,cs),
(-25,282,o),
(-9,292,o),
(5,303,cs),
(53,339,o),
(56,348,o),
(39,404,cs),
(33,421,o),
(21,436,o),
(17,454,cs),
(13,468,o),
(16,485,o),
(16,507,c)
);
}
);
width = 578;
},
{
hints = (
{
horizontal = 1;
place = (54, 1116);
place = (54, 1116);
type = Stem;
},
{
place = (-543, 1083);
place = (-543, 1083);
type = Stem;
}
);
layerId = m003;
shapes = (
{
closed = 1;
nodes = (
(318,1242,o),
(393,1239,o),
(468,1227,cs),
(573,1212,o),
(663,1245,o),
(738,1320,cs),
(774,1353,o),
(822,1380,o),
(846,1419,cs),
(912,1524,o),
(1011,1560,o),
(1119,1590,cs),
(1212,1611,o),
(1302,1617,o),
(1371,1545,cs),
(1446,1464,o),
(1449,1356,o),
(1413,1263,cs),
(1338,1065,o),
(1173,948,o),
(972,930,cs),
(813,912,o),
(732,819,o),
(663,705,cs),
(606,606,o),
(579,492,o),
(534,387,cs),
(510,327,o),
(483,267,o),
(444,216,cs),
(393,150,o),
(324,108,o),
(234,153,cs),
(222,159,o),
(207,165,o),
(192,165,cs),
(99,162,o),
(36,210,o),
(12,294,cs),
(-15,384,o),
(3,474,o),
(78,540,cs),
(117,576,o),
(165,606,o),
(207,639,cs),
(351,747,o),
(360,774,o),
(309,942,cs),
(291,993,o),
(255,1038,o),
(243,1092,cs),
(231,1134,o),
(240,1185,o),
(240,1251,c)
);
}
);
width = 1335;
}
);
note = R;
unicode = 82;
},
{
glyphname = S;
lastChange = "2022-03-10 22:23:03 +0000";
layers = (
{
hints = (
{
horizontal = 1;
place = (331, 525);
place = (331, 525);
type = Stem;
},
{
place = (352, 506);
place = (352, 506);
type = Stem;
}
);
layerId = m01;
shapes = (
{
closed = 1;
nodes = (
(176,83,o),
(167,88,o),
(161,108,c),
(161,111,o),
(160,113,o),
(159,115,cs),
(155,123,o),
(148,128,o),
(140,129,cs),
(132,129,o),
(129,122,o),
(126,116,cs),
(125,115,o),
(124,113,o),
(123,112,c),
(115,95,o),
(107,90,o),
(90,96,cs),
(62,106,o),
(35,118,o),
(17,143,cs),
(12,150,o),
(8,158,o),
(5,167,cs),
(-1,184,o),
(-4,201,o),
(13,215,cs),
(22,223,o),
(31,232,o),
(39,242,cs),
(47,254,o),
(54,267,o),
(62,280,cs),
(64,285,o),
(66,291,o),
(68,296,cs),
(74,308,o),
(82,313,o),
(93,305,cs),
(113,290,o),
(135,277,o),
(139,249,cs),
(142,231,o),
(147,214,o),
(150,196,cs),
(151,184,o),
(150,172,o),
(150,161,cs),
(150,145,o),
(158,137,o),
(173,137,cs),
(196,137,o),
(207,125,o),
(203,103,cs),
(202,98,o),
(201,93,o),
(199,89,c)
);
}
);
width = 204;
},
{
hints = (
{
horizontal = 1;
place = (86, 667);
place = (86, 667);
type = Stem;
},
{
place = (149, 611);
place = (149, 611);
type = Stem;
}
);
layerId = m002;
shapes = (
{
closed = 1;
nodes = (
(675,76,o),
(650,90,o),
(631,152,c),
(630,159,o),
(628,165,o),
(625,171,cs),
(613,195,o),
(592,211,o),
(567,213,cs),
(545,214,o),
(534,194,o),
(525,175,cs),
(523,171,o),
(521,166,o),
(518,162,c),
(493,113,o),
(470,98,o),
(418,116,cs),
(335,145,o),
(253,180,o),
(200,256,cs),
(184,278,o),
(171,302,o),
(163,327,cs),
(145,378,o),
(135,429,o),
(186,472,cs),
(215,496,o),
(241,523,o),
(264,553,cs),
(290,589,o),
(311,629,o),
(333,668,cs),
(341,682,o),
(346,699,o),
(353,714,cs),
(370,752,o),
(394,765,o),
(427,741,cs),
(486,697,o),
(553,659,o),
(565,574,cs),
(573,520,o),
(589,468,o),
(597,414,cs),
(602,380,o),
(599,344,o),
(599,310,cs),
(599,262,o),
(623,237,o),
(668,237,cs),
(736,238,o),
(768,202,o),
(758,135,cs),
(755,120,o),
(750,106,o),
(746,93,c)
);
}
);
width = 712;
},
{
hints = (
{
horizontal = 1;
place = (-650, 1093);
place = (-650, 1093);
type = Stem;
},
{
place = (-461, 925);
place = (-461, 925);
type = Stem;
}
);
layerId = m003;
shapes = (
{
closed = 1;
nodes = (
(1580,55,o),
(1505,97,o),
(1448,283,c),
(1445,304,o),
(1439,322,o),
(1430,340,cs),
(1394,412,o),
(1331,460,o),
(1256,466,cs),
(1190,469,o),
(1157,409,o),
(1130,352,cs),
(1124,340,o),
(1118,325,o),
(1109,313,c),
(1034,166,o),
(965,121,o),
(809,175,cs),
(560,262,o),
(314,367,o),
(155,595,cs),
(107,661,o),
(68,733,o),
(44,808,cs),
(-10,961,o),
(-40,1114,o),
(113,1243,cs),
(200,1315,o),
(278,1396,o),
(347,1486,cs),
(425,1594,o),
(488,1714,o),
(554,1831,cs),
(578,1873,o),
(593,1924,o),
(614,1969,cs),
(665,2083,o),
(737,2122,o),
(836,2050,cs),
(1013,1918,o),
(1214,1804,o),
(1250,1549,cs),
(1274,1387,o),
(1322,1231,o),
(1346,1069,cs),
(1361,967,o),
(1352,859,o),
(1352,757,cs),
(1352,613,o),
(1424,538,o),
(1559,538,cs),
(1763,541,o),
(1859,433,o),
(1829,232,cs),
(1820,187,o),
(1805,145,o),
(1793,106,c)
);
}
);
width = 1734;
}
);
note = S;
unicode = 83;
},
{
glyphname = T;
lastChange = "2022-03-10 22:23:03 +0000";
layers = (
{
hints = (
{
horizontal = 1;
place = (39, 338);
place = (39, 338);
type = Stem;
},
{
place = (15, 202);
place = (15, 202);
type = Stem;
}
);
layerId = m01;
shapes = (
{
closed = 1;
nodes = (
(98,-12,o),
(90,1,o),
(78,9,cs),
(61,20,o),
(53,36,o),
(45,52,cs),
(41,62,o),
(40,73,o),
(36,82,cs),
(31,91,o),
(25,100,o),
(18,108,cs),
(-3,130,o),
(-5,154,o),
(7,181,cs),
(12,191,o),
(13,202,o),
(17,212,cs),
(18,215,o),
(21,219,o),
(24,220,cs),
(49,229,o),
(80,206,o),
(79,180,cs),
(79,177,o),
(80,175,o),
(79,173,cs),
(71,160,o),
(74,147,o),
(77,134,cs),
(82,117,o),
(86,99,o),
(91,82,cs),
(94,74,o),
(99,69,o),
(107,67,cs),
(120,63,o),
(127,53,o),
(130,41,cs),
(134,24,o),
(138,7,o),
(142,-10,cs),
(147,-31,o),
(143,-40,o),
(126,-52,cs),
(111,-62,o),
(100,-58,o),
(98,-40,cs),
(98,-36,o),
(98,-32,o),
(98,-28,cs)
);
}
);
width = 144;
},
{
hints = (
{
horizontal = 1;
place = (-57, 839);
place = (-57, 839);
type = Stem;
},
{
place = (-129, 432);
place = (-129, 432);
type = Stem;
}
);
layerId = m002;
shapes = (
{
closed = 1;
nodes = (
(166,79,o),
(142,119,o),
(104,142,cs),
(53,174,o),
(31,223,o),
(7,272,cs),
(-6,300,o),
(-8,333,o),
(-22,361,cs),
(-35,389,o),
(-53,416,o),
(-75,439,cs),
(-137,505,o),
(-144,576,o),
(-107,658,cs),
(-93,687,o),
(-89,721,o),
(-78,752,cs),
(-75,761,o),
(-67,773,o),
(-58,776,cs),
(17,802,o),
(110,734,o),
(109,654,cs),
(109,647,o),
(110,640,o),
(107,635,cs),
(83,596,o),
(94,557,o),
(103,518,cs),
(116,465,o),
(130,412,o),
(145,360,cs),
(152,336,o),
(167,322,o),
(193,315,cs),
(232,304,o),
(253,274,o),
(262,237,cs),
(274,187,o),
(286,136,o),
(297,86,cs),
(312,23,o),
(301,-5,o),
(249,-42,cs),
(205,-72,o),
(172,-58,o),
(166,-5,cs),
(165,7,o),
(166,18,o),
(166,30,cs)
);
}
);
width = 533;
},
{
hints = (
{
horizontal = 1;
place = (-345, 2000);
place = (-345, 2000);
type = Stem;
},
{
place = (-561, 1122);
place = (-561, 1122);
type = Stem;
}
);
layerId = m003;
shapes = (
{
closed = 1;
nodes = (
(887,352,o),
(815,472,o),
(701,541,cs),
(548,637,o),
(482,784,o),
(410,931,cs),
(371,1015,o),
(365,1114,o),
(323,1198,cs),
(284,1282,o),
(230,1363,o),
(164,1432,cs),
(-22,1630,o),
(-43,1843,o),
(68,2089,cs),
(110,2176,o),
(122,2278,o),
(155,2371,cs),
(164,2398,o),
(188,2434,o),
(215,2443,cs),
(440,2521,o),
(719,2317,o),
(716,2077,cs),
(716,2056,o),
(719,2035,o),
(710,2020,cs),
(638,1903,o),
(671,1786,o),
(698,1669,cs),
(737,1510,o),
(779,1351,o),
(824,1195,cs),
(845,1123,o),
(890,1081,o),
(968,1060,cs),
(1085,1027,o),
(1148,937,o),
(1175,826,cs),
(1211,676,o),
(1247,523,o),
(1280,373,cs),
(1325,184,o),
(1292,100,o),
(1136,-11,cs),
(1004,-101,o),
(905,-59,o),
(887,100,cs),
(884,136,o),
(887,169,o),
(887,205,cs)
);
}
);
width = 1199;
}
);
note = T;
unicode = 84;
},
{
glyphname = U;
lastChange = "2022-03-10 22:23:03 +0000";
layers = (
{
hints = (
{
horizontal = 1;
place = (139, 386);
place = (139, 386);
type = Stem;
},
{
place = (272, 388);
place = (272, 388);
type = Stem;
}
);
layerId = m01;
shapes = (
{
closed = 1;
nodes = (
(80,-215,o),
(74,-235,o),
(68,-254,cs),
(67,-259,o),
(67,-264,o),
(67,-269,cs),
(67,-279,o),
(63,-284,o),
(54,-282,cs),
(38,-277,o),
(23,-270,o),
(7,-263,cs),
(5,-263,o),
(3,-259,o),
(3,-257,c),
(1,-238,o),
(-4,-220,o),
(8,-202,cs),
(17,-190,o),
(22,-177,o),
(21,-162,cs),
(21,-158,o),
(25,-152,o),
(29,-149,cs),
(40,-135,o),
(57,-132,o),
(73,-139,cs),
(77,-140,o),
(81,-141,o),
(85,-142,cs),
(97,-147,o),
(108,-145,o),
(118,-136,cs),
(127,-128,o),
(132,-128,o),
(141,-135,cs),
(157,-147,o),
(159,-165,o),
(148,-179,cs),
(146,-181,o),
(142,-183,o),
(140,-183,cs),
(130,-185,o),
(121,-185,o),
(112,-186,cs),
(103,-188,o),
(95,-192,o),
(87,-195,c)
);
}
);
width = 155;
},
{
hints = (
{
horizontal = 1;
place = (-283, 459);
place = (-283, 459);
type = Stem;
},
{
place = (117, 464);
place = (117, 464);
type = Stem;
}
);
layerId = m002;
shapes = (
{
closed = 1;
nodes = (
(358,-81,o),
(339,-139,o),
(322,-198,cs),
(318,-212,o),
(319,-227,o),
(318,-242,cs),
(317,-273,o),
(307,-288,o),
(280,-281,cs),
(232,-267,o),
(185,-245,o),
(138,-225,cs),
(132,-223,o),
(126,-212,o),
(126,-205,c),
(119,-149,o),
(104,-94,o),
(142,-42,cs),
(167,-6,o),
(183,33,o),
(180,79,cs),
(179,92,o),
(192,108,o),
(203,119,cs),
(238,159,o),
(288,169,o),
(337,148,cs),
(348,144,o),
(360,142,o),
(371,138,cs),
(409,123,o),
(441,130,o),
(472,158,cs),
(498,182,o),
(514,181,o),
(541,160,cs),
(587,124,o),
(595,70,o),
(560,29,cs),
(554,22,o),
(544,16,o),
(536,15,cs),
(508,11,o),
(479,11,o),
(452,6,cs),
(427,0,o),
(402,-11,o),
(377,-20,c)
);
}
);
width = 565;
},
{
hints = (
{
horizontal = 1;
place = (-1548, 678);
place = (-1548, 678);
type = Stem;
},
{
place = (-348, 693);
place = (-348, 693);
type = Stem;
}
);
layerId = m003;
shapes = (
{
closed = 1;
nodes = (
(723,322,o),
(666,148,o),
(615,-29,cs),
(603,-71,o),
(606,-116,o),
(603,-161,cs),
(600,-254,o),
(570,-299,o),
(489,-278,cs),
(345,-236,o),
(204,-170,o),
(63,-110,cs),
(45,-104,o),
(27,-71,o),
(27,-50,c),
(6,118,o),
(-39,283,o),
(75,439,cs),
(150,547,o),
(198,664,o),
(189,802,cs),
(186,841,o),
(225,889,o),
(258,922,cs),
(363,1042,o),
(513,1072,o),
(660,1009,cs),
(693,997,o),
(729,991,o),
(762,979,cs),
(876,934,o),
(972,955,o),
(1065,1039,cs),
(1143,1111,o),
(1191,1108,o),
(1272,1045,cs),
(1410,937,o),
(1434,775,o),
(1329,652,cs),
(1311,631,o),
(1281,613,o),
(1257,610,cs),
(1173,598,o),
(1086,598,o),
(1005,583,cs),
(930,565,o),
(855,532,o),
(780,505,c)
);
}
);
width = 1294;
}
);
note = U;
unicode = 85;
},
{
glyphname = V;
lastChange = "2022-03-10 22:23:03 +0000";
layers = (
{
hints = (
{
horizontal = 1;
place = (52, 259);
place = (52, 259);
type = Stem;
},
{
place = (131, 261);
place = (131, 261);
type = Stem;
}
);
layerId = m01;
shapes = (
{
closed = 1;
nodes = (
(0,-140,l),
(3,-134,o),
(6,-129,o),
(10,-124,cs),
(12,-121,o),
(16,-119,o),
(19,-116,cs),
(29,-106,o),
(36,-106,o),
(46,-117,cs),
(53,-125,o),
(60,-132,o),
(67,-139,cs),
(70,-142,o),
(74,-144,o),
(78,-145,cs),
(103,-151,o),
(115,-171,o),
(127,-190,cs),
(135,-202,o),
(128,-222,o),
(116,-232,cs),
(116,-232,o),
(116,-233,o),
(115,-233,cs),
(99,-232,o),
(82,-244,o),
(66,-232,cs),
(56,-224,o),
(45,-219,o),
(32,-219,cs),
(24,-219,o),
(20,-214,o),
(20,-206,cs),
(20,-199,o),
(16,-193,o),
(12,-187,cs),
(8,-180,o),
(6,-171,o),
(4,-162,cs),
(2,-155,o),
(3,-148,o),
(2,-141,c)
);
}
);
width = 130;
},
{
hints = (
{
horizontal = 1;
place = (-237, 386);
place = (-237, 386);
type = Stem;
},
{
place = (0, 392);
place = (0, 392);
type = Stem;
}
);
layerId = m002;
shapes = (
{
closed = 1;
nodes = (
(0,56,l),
(10,72,o),
(19,89,o),
(31,104,cs),
(38,113,o),
(49,118,o),
(57,126,cs),
(89,157,o),
(109,157,o),
(140,123,cs),
(160,101,o),
(180,79,o),
(202,59,cs),
(212,50,o),
(224,42,o),
(236,39,cs),
(310,22,o),
(346,-37,o),
(382,-94,cs),
(405,-132,o),
(386,-192,o),
(350,-221,cs),
(349,-222,o),
(348,-223,o),
(346,-223,cs),
(297,-222,o),
(247,-258,o),
(198,-220,cs),
(169,-198,o),
(137,-182,o),
(98,-183,cs),
(74,-183,o),
(61,-167,o),
(61,-144,cs),
(61,-121,o),
(49,-105,o),
(38,-86,cs),
(26,-64,o),
(19,-37,o),
(13,-12,cs),
(8,9,o),
(9,31,o),
(7,52,c)
);
}
);
width = 492;
},
{
hints = (
{
horizontal = 1;
place = (-1103, 766);
place = (-1103, 766);
type = Stem;
},
{
place = (-392, 784);
place = (-392, 784);
type = Stem;
}
);
layerId = m003;
shapes = (
{
closed = 1;
nodes = (
(0,643,l),
(30,691,o),
(57,742,o),
(93,787,cs),
(114,814,o),
(147,829,o),
(171,853,cs),
(267,946,o),
(327,946,o),
(420,844,cs),
(480,778,o),
(540,712,o),
(606,652,cs),
(636,625,o),
(672,601,o),
(708,592,cs),
(930,541,o),
(1038,364,o),
(1146,193,cs),
(1215,79,o),
(1158,-101,o),
(1050,-188,cs),
(1047,-191,o),
(1044,-194,o),
(1038,-194,cs),
(891,-191,o),
(741,-299,o),
(594,-185,cs),
(507,-119,o),
(411,-71,o),
(294,-74,cs),
(222,-74,o),
(183,-26,o),
(183,43,cs),
(183,112,o),
(147,160,o),
(114,217,cs),
(78,283,o),
(57,364,o),
(39,439,cs),
(24,502,o),
(27,568,o),
(21,631,c)
);
}
);
width = 1076;
}
);
note = V;
unicode = 86;
},
{
glyphname = W;
lastChange = "2022-03-10 22:23:03 +0000";
layers = (
{
hints = (
{
horizontal = 1;
place = (319, 381);
place = (319, 381);
type = Stem;
},
{
place = (235, 469);
place = (235, 469);
type = Stem;
}
);
layerId = m01;
shapes = (
{
closed = 1;
nodes = (
(147,266,o),
(139,260,o),
(128,256,cs),
(120,253,o),
(114,253,o),
(106,257,cs),
(96,263,o),
(83,264,o),
(74,270,cs),
(59,280,o),
(47,293,o),
(34,305,cs),
(27,311,o),
(20,318,o),
(12,322,cs),
(-1,330,o),
(-1,341,o),
(0,354,cs),
(1,366,o),
(8,373,o),
(18,377,cs),
(38,385,o),
(58,388,o),
(80,386,cs),
(89,385,o),
(99,385,o),
(108,387,cs),
(115,389,o),
(121,396,o),
(128,400,c),
(143,390,o),
(151,376,o),
(153,358,cs),
(153,349,o),
(157,341,o),
(161,333,cs),
(170,319,o),
(185,318,o),
(199,315,cs),
(201,315,o),
(204,316,o),
(207,316,cs),
(227,316,o),
(237,304,o),
(234,285,cs),
(232,276,o),
(225,274,o),
(218,272,cs),
(210,269,o),
(202,268,o),
(194,267,cs),
(192,267,o),
(189,268,o),
(188,269,cs),
(178,278,o),
(167,277,o),
(153,277,c)
);
}
);
width = 235;
},
{
hints = (
{
horizontal = 1;
place = (254, 439);
place = (254, 439);
type = Stem;
},
{
place = (0, 704);
place = (0, 704);
type = Stem;
}
);
layerId = m002;
shapes = (
{
closed = 1;
nodes = (
(443,291,o),
(417,272,o),
(384,260,cs),
(361,252,o),
(342,251,o),
(318,263,cs),
(288,280,o),
(250,283,o),
(222,302,cs),
(179,332,o),
(142,371,o),
(103,406,cs),
(82,424,o),
(62,445,o),
(38,459,cs),
(-1,481,o),
(-1,514,o),
(1,553,cs),
(3,591,o),
(25,610,o),
(55,623,cs),
(114,647,o),
(176,656,o),
(240,651,cs),
(268,648,o),
(297,647,o),
(324,654,cs),
(346,660,o),
(365,679,o),
(386,693,c),
(429,661,o),
(455,621,o),
(459,565,cs),
(460,540,o),
(472,514,o),
(485,491,cs),
(510,450,o),
(555,446,o),
(598,438,cs),
(605,436,o),
(614,440,o),
(622,440,cs),
(681,441,o),
(712,404,o),
(702,347,cs),
(697,321,o),
(675,314,o),
(656,307,cs),
(632,299,o),
(607,297,o),
(583,294,cs),
(577,293,o),
(569,295,o),
(564,299,cs),
(536,325,o),
(501,324,o),
(460,322,c)
);
}
);
width = 804;
},
{
hints = (
{
horizontal = 1;
place = (58, 613);
place = (58, 613);
type = Stem;
},
{
place = (-704, 1408);
place = (-704, 1408);
type = Stem;
}
);
layerId = m003;
shapes = (
{
closed = 1;
nodes = (
(1328,365,o),
(1250,308,o),
(1151,272,cs),
(1082,248,o),
(1025,245,o),
(953,281,cs),
(863,332,o),
(749,341,o),
(665,398,cs),
(536,488,o),
(425,605,o),
(308,710,cs),
(245,764,o),
(185,827,o),
(113,869,cs),
(-4,935,o),
(-4,1034,o),
(2,1151,cs),
(8,1265,o),
(74,1322,o),
(164,1361,cs),
(341,1433,o),
(527,1460,o),
(719,1445,cs),
(803,1436,o),
(890,1433,o),
(971,1454,cs),
(1037,1472,o),
(1094,1529,o),
(1157,1571,c),
(1286,1475,o),
(1364,1355,o),
(1376,1187,cs),
(1379,1112,o),
(1415,1034,o),
(1454,965,cs),
(1529,842,o),
(1664,830,o),
(1793,806,cs),
(1814,800,o),
(1841,812,o),
(1865,812,cs),
(2042,815,o),
(2135,704,o),
(2105,533,cs),
(2090,455,o),
(2024,434,o),
(1967,413,cs),
(1895,389,o),
(1820,383,o),
(1748,374,cs),
(1730,371,o),
(1706,377,o),
(1691,389,cs),
(1607,467,o),
(1502,464,o),
(1379,458,c)
);
}
);
width = 2011;
}
);
note = W;
unicode = 87;
},
{
glyphname = X;
lastChange = "2022-03-10 22:23:03 +0000";
layers = (
{
hints = (
{
horizontal = 1;
place = (406, 427);
place = (406, 427);
type = Stem;
},
{
place = (424, 847);
place = (424, 847);
type = Stem;
},
{
horizontal = 1;
place = (394, 430);
place = (394, 430);
type = Stem;
}
);
layerId = m01;
shapes = (
{
closed = 1;
nodes = (
(249,-19,o),
(248,-19,o),
(248,-19,c),
(242,-32,o),
(236,-45,o),
(230,-58,cs),
(226,-66,o),
(225,-74,o),
(224,-83,cs),
(224,-90,o),
(220,-96,o),
(217,-103,cs),
(213,-109,o),
(210,-115,o),
(210,-122,cs),
(209,-128,o),
(204,-133,o),
(202,-139,cs),
(201,-143,o),
(200,-147,o),
(201,-151,cs),
(201,-157,o),
(201,-162,o),
(193,-166,c),
(200,-171,o),
(207,-168,o),
(212,-167,cs),
(223,-165,o),
(233,-168,o),
(238,-177,cs),
(242,-183,o),
(245,-188,o),
(247,-194,cs),
(250,-202,o),
(250,-210,o),
(244,-217,cs),
(238,-224,o),
(230,-229,o),
(220,-227,cs),
(218,-227,o),
(216,-225,o),
(214,-224,cs),
(206,-216,o),
(198,-207,o),
(190,-199,cs),
(184,-193,o),
(184,-193,o),
(186,-181,c),
(180,-179,o),
(176,-172,o),
(168,-177,c),
(160,-171,o),
(151,-174,o),
(142,-172,cs),
(130,-170,o),
(126,-159,o),
(121,-150,cs),
(110,-134,o),
(100,-117,o),
(90,-100,cs),
(85,-92,o),
(81,-84,o),
(77,-77,cs),
(73,-70,o),
(68,-66,o),
(59,-68,cs),
(55,-69,o),
(50,-67,o),
(46,-66,c),
(42,-68,o),
(39,-72,o),
(36,-73,cs),
(33,-73,o),
(28,-69,o),
(26,-66,cs),
(21,-59,o),
(15,-52,o),
(12,-43,cs),
(9,-33,o),
(7,-22,o),
(3,-12,cs),
(1,-5,o),
(3,3,o),
(3,10,cs),
(3,20,o),
(3,29,o),
(5,39,cs),
(5,45,o),
(4,50,o),
(0,52,c),
(2,57,o),
(4,61,o),
(7,65,cs),
(9,69,o),
(16,71,o),
(22,68,cs),
(36,61,o),
(48,65,o),
(60,72,cs),
(64,75,o),
(68,78,o),
(73,80,cs),
(88,87,o),
(103,88,o),
(119,80,cs),
(128,76,o),
(139,74,o),
(148,69,cs),
(150,67,o),
(156,70,o),
(161,72,c),
(163,69,o),
(165,66,o),
(168,64,cs),
(172,59,o),
(177,55,o),
(182,51,cs),
(189,45,o),
(196,40,o),
(203,35,cs),
(214,28,o),
(221,17,o),
(229,7,cs),
(243,-10,l),
(249,-10,o),
(257,-11,o),
(264,-10,cs),
(268,-10,o),
(272,-9,o),
(275,-7,cs),
(282,-2,o),
(288,-1,o),
(296,-4,cs),
(304,-6,o),
(307,-3,o),
(306,5,cs),
(306,7,o),
(305,10,o),
(304,12,cs),
(298,18,o),
(298,26,o),
(298,34,cs),
(298,38,o),
(299,42,o),
(301,44,cs),
(306,50,o),
(305,57,o),
(302,63,cs),
(301,66,o),
(298,69,o),
(297,72,cs),
(292,82,o),
(299,92,o),
(299,101,cs),
(299,102,o),
(303,104,o),
(305,104,cs),
(318,107,o),
(327,101,o),
(332,89,cs),
(337,77,o),
(343,64,o),
(348,52,cs),
(354,39,o),
(363,29,o),
(373,20,cs),
(377,16,o),
(381,11,o),
(385,7,cs),
(388,4,o),
(391,1,o),
(396,1,cs),
(402,2,o),
(408,0,o),
(414,-2,cs),
(419,-3,o),
(424,-15,o),
(423,-21,cs),
(423,-34,o),
(417,-45,o),
(411,-56,c),
(398,-52,o),
(386,-49,o),
(379,-62,c),
(374,-61,o),
(370,-60,o),
(367,-60,cs),
(360,-60,o),
(356,-55,o),
(352,-51,cs),
(347,-47,o),
(344,-41,o),
(335,-42,c),
(332,-47,o),
(329,-51,o),
(325,-55,cs),
(321,-61,o),
(315,-64,o),
(307,-64,cs),
(293,-65,o),
(282,-60,o),
(273,-50,cs),
(271,-48,o),
(269,-46,o),
(266,-45,c),
(260,-41,o),
(256,-35,o),
(255,-28,cs),
(254,-24,o),
(253,-21,o),
(251,-18,c)
);
}
);
width = 423;
},
{
hints = (
{
horizontal = 1;
place = (-52, 10);
place = (-52, 10);
type = Stem;
},
{
place = (0, 1271);
place = (0, 1271);
type = Stem;
},
{
horizontal = 1;
place = (-89, 19);
place = (-89, 19);
type = Stem;
}
);
layerId = m002;
shapes = (
{
closed = 1;
nodes = (
(747,399,o),
(745,399,o),
(745,399,c),
(726,359,o),
(709,320,o),
(691,280,cs),
(680,257,o),
(675,232,o),
(674,206,cs),
(673,186,o),
(660,166,o),
(651,147,cs),
(641,128,o),
(632,110,o),
(630,88,cs),
(627,71,o),
(614,55,o),
(607,37,cs),
(604,26,o),
(602,14,o),
(603,2,cs),
(605,-17,o),
(604,-32,o),
(581,-42,c),
(602,-58,o),
(621,-50,o),
(638,-46,cs),
(670,-39,o),
(700,-48,o),
(716,-76,cs),
(726,-93,o),
(736,-110,o),
(742,-127,cs),
(751,-151,o),
(750,-175,o),
(734,-195,cs),
(715,-217,o),
(692,-231,o),
(661,-227,cs),
(655,-226,o),
(649,-221,o),
(644,-216,cs),
(620,-192,o),
(596,-166,o),
(571,-142,cs),
(554,-124,o),
(554,-124,o),
(559,-89,c),
(541,-83,o),
(528,-61,o),
(504,-75,c),
(481,-58,o),
(453,-66,o),
(428,-61,cs),
(391,-54,o),
(379,-23,o),
(363,4,cs),
(332,54,o),
(301,105,o),
(271,156,cs),
(257,178,o),
(245,202,o),
(232,224,cs),
(219,244,o),
(204,257,o),
(179,251,cs),
(166,249,o),
(151,255,o),
(138,257,c),
(128,250,o),
(118,238,o),
(108,237,cs),
(99,236,o),
(86,247,o),
(80,256,cs),
(64,277,o),
(47,300,o),
(38,325,cs),
(27,356,o),
(23,388,o),
(11,419,cs),
(4,439,o),
(10,464,o),
(11,486,cs),
(11,515,o),
(11,543,o),
(15,572,cs),
(17,590,o),
(13,604,o),
(0,612,c),
(8,627,o),
(14,639,o),
(22,650,cs),
(29,662,o),
(49,668,o),
(67,660,cs),
(108,639,o),
(146,650,o),
(181,672,cs),
(194,680,o),
(206,688,o),
(219,694,cs),
(265,717,o),
(310,719,o),
(359,695,cs),
(386,682,o),
(417,678,o),
(444,662,cs),
(452,657,o),
(468,664,o),
(485,672,c),
(491,662,o),
(497,653,o),
(504,646,cs),
(518,632,o),
(531,619,o),
(546,607,cs),
(567,591,o),
(588,575,o),
(609,561,cs),
(643,538,o),
(665,505,o),
(689,475,cs),
(731,424,l),
(749,424,o),
(771,423,o),
(792,424,cs),
(804,425,o),
(817,428,o),
(826,434,cs),
(846,449,o),
(866,452,o),
(890,444,cs),
(912,438,o),
(921,447,o),
(919,470,cs),
(918,477,o),
(916,485,o),
(912,490,cs),
(896,510,o),
(896,534,o),
(896,558,cs),
(896,568,o),
(899,580,o),
(905,588,cs),
(918,606,o),
(917,625,o),
(907,644,cs),
(903,654,o),
(896,662,o),
(891,672,cs),
(876,702,o),
(897,730,o),
(898,758,cs),
(898,762,o),
(909,766,o),
(916,768,cs),
(954,776,o),
(982,759,o),
(997,722,cs),
(1013,685,o),
(1030,647,o),
(1045,611,cs),
(1062,572,o),
(1091,543,o),
(1119,515,cs),
(1131,502,o),
(1144,489,o),
(1157,477,cs),
(1166,467,o),
(1174,459,o),
(1190,459,cs),
(1208,460,o),
(1226,454,o),
(1243,449,cs),
(1258,445,o),
(1272,411,o),
(1271,391,cs),
(1269,353,o),
(1253,320,o),
(1234,288,c),
(1196,298,o),
(1159,309,o),
(1138,268,c),
(1124,271,o),
(1112,275,o),
(1101,275,cs),
(1080,275,o),
(1069,290,o),
(1056,302,cs),
(1042,315,o),
(1032,333,o),
(1007,328,c),
(997,315,o),
(988,302,o),
(977,289,cs),
(964,271,o),
(946,264,o),
(922,262,cs),
(880,260,o),
(848,275,o),
(819,304,cs),
(813,310,o),
(807,317,o),
(800,320,c),
(780,332,o),
(769,349,o),
(766,372,cs),
(764,382,o),
(759,391,o),
(754,401,c)
);
}
);
width = 1371;
},
{
hints = (
{
horizontal = 1;
place = (-1427, -1241);
place = (-1427, -1241);
type = Stem;
},
{
place = (-1271, 2000);
place = (-1271, 2000);
type = Stem;
},
{
horizontal = 1;
place = (-1538, -1214);
place = (-1538, -1214);
type = Stem;
}
);
layerId = m003;
shapes = (
{
closed = 1;
nodes = (
(2241,1652,o),
(2235,1652,o),
(2235,1652,c),
(2178,1532,o),
(2127,1415,o),
(2073,1295,cs),
(2040,1226,o),
(2025,1151,o),
(2022,1073,cs),
(2019,1013,o),
(1980,953,o),
(1953,896,cs),
(1923,839,o),
(1896,785,o),
(1890,719,cs),
(1881,668,o),
(1842,620,o),
(1821,566,cs),
(1812,533,o),
(1806,497,o),
(1809,461,cs),
(1815,404,o),
(1812,359,o),
(1743,329,c),
(1806,281,o),
(1863,305,o),
(1914,317,cs),
(2010,338,o),
(2100,311,o),
(2148,227,cs),
(2178,176,o),
(2208,125,o),
(2226,74,cs),
(2253,2,o),
(2250,-70,o),
(2202,-130,cs),
(2145,-196,o),
(2076,-238,o),
(1983,-226,cs),
(1965,-223,o),
(1947,-208,o),
(1932,-193,cs),
(1860,-121,o),
(1788,-43,o),
(1713,29,cs),
(1662,83,o),
(1662,83,o),
(1677,188,c),
(1623,206,o),
(1584,272,o),
(1512,230,c),
(1443,281,o),
(1359,257,o),
(1284,272,cs),
(1173,293,o),
(1137,386,o),
(1089,467,cs),
(996,617,o),
(903,770,o),
(813,923,cs),
(771,989,o),
(735,1061,o),
(696,1127,cs),
(657,1187,o),
(612,1226,o),
(537,1208,cs),
(498,1202,o),
(453,1220,o),
(414,1226,c),
(384,1205,o),
(354,1169,o),
(324,1166,cs),
(297,1163,o),
(258,1196,o),
(240,1223,cs),
(192,1286,o),
(141,1355,o),
(114,1430,cs),
(81,1523,o),
(69,1619,o),
(33,1712,cs),
(12,1772,o),
(30,1847,o),
(33,1913,cs),
(33,2000,o),
(33,2084,o),
(45,2171,cs),
(51,2225,o),
(39,2267,o),
(0,2291,c),
(24,2336,o),
(42,2372,o),
(66,2405,cs),
(87,2441,o),
(147,2459,o),
(201,2435,cs),
(324,2372,o),
(438,2405,o),
(543,2471,cs),
(582,2495,o),
(618,2519,o),
(657,2537,cs),
(795,2606,o),
(930,2612,o),
(1077,2540,cs),
(1158,2501,o),
(1251,2489,o),
(1332,2441,cs),
(1356,2426,o),
(1404,2447,o),
(1455,2471,c),
(1473,2441,o),
(1491,2414,o),
(1512,2393,cs),
(1554,2351,o),
(1593,2312,o),
(1638,2276,cs),
(1701,2228,o),
(1764,2180,o),
(1827,2138,cs),
(1929,2069,o),
(1995,1970,o),
(2067,1880,cs),
(2193,1727,l),
(2247,1727,o),
(2313,1724,o),
(2376,1727,cs),
(2412,1730,o),
(2451,1739,o),
(2478,1757,cs),
(2538,1802,o),
(2598,1811,o),
(2670,1787,cs),
(2736,1769,o),
(2763,1796,o),
(2757,1865,cs),
(2754,1886,o),
(2748,1910,o),
(2736,1925,cs),
(2688,1985,o),
(2688,2057,o),
(2688,2129,cs),
(2688,2159,o),
(2697,2195,o),
(2715,2219,cs),
(2754,2273,o),
(2751,2330,o),
(2721,2387,cs),
(2709,2417,o),
(2688,2441,o),
(2673,2471,cs),
(2628,2561,o),
(2691,2645,o),
(2694,2729,cs),
(2694,2741,o),
(2727,2753,o),
(2748,2759,cs),
(2862,2783,o),
(2946,2732,o),
(2991,2621,cs),
(3039,2510,o),
(3090,2396,o),
(3135,2288,cs),
(3186,2171,o),
(3273,2084,o),
(3357,2000,cs),
(3393,1961,o),
(3432,1922,o),
(3471,1886,cs),
(3498,1856,o),
(3522,1832,o),
(3570,1832,cs),
(3624,1835,o),
(3678,1817,o),
(3729,1802,cs),
(3774,1790,o),
(3816,1688,o),
(3813,1628,cs),
(3807,1514,o),
(3759,1415,o),
(3702,1319,c),
(3588,1349,o),
(3477,1382,o),
(3414,1259,c),
(3372,1268,o),
(3336,1280,o),
(3303,1280,cs),
(3240,1280,o),
(3207,1325,o),
(3168,1361,cs),
(3126,1400,o),
(3096,1454,o),
(3021,1439,c),
(2991,1400,o),
(2964,1361,o),
(2931,1322,cs),
(2892,1268,o),
(2838,1247,o),
(2766,1241,cs),
(2640,1235,o),
(2544,1280,o),
(2457,1367,cs),
(2439,1385,o),
(2421,1406,o),
(2400,1415,c),
(2340,1451,o),
(2307,1502,o),
(2298,1571,cs),
(2292,1601,o),
(2277,1628,o),
(2262,1658,c)
);
}
);
width = 3713;
}
);
note = X;
unicode = 88;
},
{
glyphname = Y;
lastChange = "2022-03-10 22:23:03 +0000";
layers = (
{
hints = (
{
horizontal = 1;
place = (180, 433);
place = (180, 433);
type = Stem;
},
{
place = (271, 382);
place = (271, 382);
type = Stem;
}
);
layerId = m01;
shapes = (
{
closed = 1;
nodes = (
(3,-29,l),
(16,-26,o),
(21,-18,o),
(21,-6,cs),
(21,-2,o),
(22,2,o),
(24,5,cs),
(29,12,o),
(31,20,o),
(32,28,cs),
(32,38,o),
(40,47,o),
(48,49,cs),
(57,52,o),
(67,48,o),
(72,39,cs),
(79,28,o),
(84,16,o),
(89,5,cs),
(95,-8,o),
(103,-18,o),
(118,-24,cs),
(123,-26,o),
(128,-30,o),
(131,-35,cs),
(143,-51,o),
(149,-69,o),
(149,-89,cs),
(149,-98,o),
(151,-107,o),
(151,-116,cs),
(151,-135,o),
(143,-144,o),
(122,-151,cs),
(107,-155,o),
(94,-149,o),
(85,-136,cs),
(73,-120,o),
(78,-104,o),
(84,-88,cs),
(85,-84,o),
(94,-80,o),
(100,-79,cs),
(106,-77,o),
(114,-76,o),
(113,-69,cs),
(112,-62,o),
(107,-55,o),
(102,-49,cs),
(101,-47,o),
(94,-49,o),
(91,-50,cs),
(83,-55,o),
(75,-59,o),
(67,-65,cs),
(56,-73,o),
(44,-77,o),
(30,-76,cs),
(8,-75,o),
(-3,-62,o),
(1,-40,cs)
);
}
);
width = 151;
},
{
hints = (
{
horizontal = 1;
place = (-152, 606);
place = (-152, 606);
type = Stem;
},
{
place = (120, 453);
place = (120, 453);
type = Stem;
}
);
layerId = m002;
shapes = (
{
closed = 1;
nodes = (
(130,218,l),
(169,226,o),
(184,249,o),
(182,287,cs),
(182,298,o),
(186,311,o),
(193,320,cs),
(208,341,o),
(214,363,o),
(215,389,cs),
(215,418,o),
(239,444,o),
(265,451,cs),
(292,459,o),
(321,449,o),
(337,421,cs),
(356,389,o),
(371,353,o),
(387,319,cs),
(405,280,o),
(430,249,o),
(473,233,cs),
(488,227,o),
(503,213,o),
(513,198,cs),
(548,150,o),
(568,97,o),
(567,36,cs),
(567,9,o),
(572,-17,o),
(573,-44,cs),
(574,-100,o),
(550,-128,o),
(485,-148,cs),
(442,-161,o),
(402,-142,o),
(374,-103,cs),
(339,-55,o),
(353,-7,o),
(371,39,cs),
(376,53,o),
(402,63,o),
(420,68,cs),
(439,72,o),
(463,76,o),
(460,96,cs),
(457,118,o),
(440,139,o),
(425,158,cs),
(422,162,o),
(403,158,o),
(394,153,cs),
(369,140,o),
(344,126,o),
(322,109,cs),
(288,84,o),
(252,74,o),
(210,76,cs),
(144,79,o),
(110,119,o),
(123,184,cs)
);
}
);
width = 553;
},
{
hints = (
{
horizontal = 1;
place = (-1149, 1125);
place = (-1149, 1125);
type = Stem;
},
{
place = (-333, 666);
place = (-333, 666);
type = Stem;
}
);
layerId = m003;
shapes = (
{
closed = 1;
nodes = (
(29,958,l),
(146,982,o),
(191,1051,o),
(185,1165,cs),
(185,1198,o),
(197,1237,o),
(218,1264,cs),
(263,1327,o),
(281,1393,o),
(284,1471,cs),
(284,1558,o),
(356,1636,o),
(434,1657,cs),
(515,1681,o),
(602,1651,o),
(650,1567,cs),
(707,1471,o),
(752,1363,o),
(800,1261,cs),
(854,1144,o),
(929,1051,o),
(1058,1003,cs),
(1103,985,o),
(1148,943,o),
(1178,898,cs),
(1283,754,o),
(1343,595,o),
(1340,412,cs),
(1340,331,o),
(1355,253,o),
(1358,172,cs),
(1361,4,o),
(1289,-80,o),
(1094,-140,cs),
(965,-179,o),
(845,-122,o),
(761,-5,cs),
(656,139,o),
(698,283,o),
(752,421,cs),
(767,463,o),
(845,493,o),
(899,508,cs),
(956,520,o),
(1028,532,o),
(1019,592,cs),
(1010,658,o),
(959,721,o),
(914,778,cs),
(905,790,o),
(848,778,o),
(821,763,cs),
(746,724,o),
(671,682,o),
(605,631,cs),
(503,556,o),
(395,526,o),
(269,532,cs),
(71,541,o),
(-31,661,o),
(8,856,cs)
);
}
);
width = 1258;
}
);
note = Y;
unicode = 89;
},
{
glyphname = Z;
lastChange = "2022-03-10 22:23:03 +0000";
layers = (
{
hints = (
{
horizontal = 1;
place = (183, 443);
place = (183, 443);
type = Stem;
},
{
place = (178, 355);
place = (178, 355);
type = Stem;
}
);
layerId = m01;
shapes = (
{
closed = 1;
nodes = (
(52,71,o),
(55,73,o),
(57,73,cs),
(77,78,o),
(93,97,o),
(91,118,cs),
(91,126,o),
(85,135,o),
(79,142,cs),
(68,154,o),
(58,166,o),
(52,181,cs),
(49,189,o),
(39,196,o),
(30,200,cs),
(8,210,o),
(-3,228,o),
(0,253,cs),
(1,265,o),
(4,275,o),
(18,281,c),
(22,275,o),
(27,269,o),
(30,262,cs),
(35,250,o),
(44,245,o),
(56,241,cs),
(79,233,o),
(103,227,o),
(127,222,cs),
(139,219,o),
(147,212,o),
(148,199,cs),
(150,186,o),
(153,173,o),
(155,160,cs),
(156,155,o),
(157,149,o),
(158,144,cs),
(158,136,o),
(160,127,o),
(158,119,cs),
(156,104,o),
(159,91,o),
(167,78,cs),
(169,75,o),
(171,73,o),
(173,70,cs),
(182,52,o),
(178,39,o),
(160,30,cs),
(155,27,o),
(150,25,o),
(146,22,cs),
(136,14,o),
(126,14,o),
(115,21,cs),
(110,24,o),
(105,28,o),
(98,25,cs),
(82,17,o),
(70,24,o),
(61,37,cs),
(54,46,o),
(43,54,o),
(50,71,c)
);
}
);
width = 178;
},
{
hints = (
{
horizontal = 1;
place = (16, 797);
place = (16, 797);
type = Stem;
},
{
place = (0, 533);
place = (0, 533);
type = Stem;
}
);
layerId = m002;
shapes = (
{
closed = 1;
nodes = (
(158,183,o),
(165,187,o),
(173,189,cs),
(233,204,o),
(281,261,o),
(275,322,cs),
(273,347,o),
(256,375,o),
(238,395,cs),
(205,431,o),
(175,466,o),
(156,513,cs),
(147,537,o),
(117,558,o),
(91,570,cs),
(25,599,o),
(-7,654,o),
(1,727,cs),
(5,764,o),
(14,794,o),
(55,813,c),
(67,794,o),
(81,775,o),
(90,755,cs),
(105,719,o),
(132,705,o),
(168,693,cs),
(238,669,o),
(309,649,o),
(382,634,cs),
(417,626,o),
(441,605,o),
(446,566,cs),
(451,527,o),
(459,488,o),
(465,449,cs),
(468,433,o),
(472,417,o),
(474,401,cs),
(476,376,o),
(481,351,o),
(476,327,cs),
(468,281,o),
(479,241,o),
(503,204,cs),
(509,195,o),
(515,187,o),
(519,178,cs),
(547,126,o),
(534,87,o),
(481,59,cs),
(467,51,o),
(451,45,o),
(438,35,cs),
(408,10,o),
(378,10,o),
(347,31,cs),
(331,42,o),
(316,54,o),
(296,44,cs),
(247,19,o),
(211,42,o),
(184,79,cs),
(164,106,o),
(129,131,o),
(152,181,c)
);
}
);
width = 633;
},
{
hints = (
{
horizontal = 1;
place = (-485, 1858);
place = (-485, 1858);
type = Stem;
},
{
place = (-533, 1066);
place = (-533, 1066);
type = Stem;
}
);
layerId = m003;
shapes = (
{
closed = 1;
nodes = (
(475,518,o),
(496,530,o),
(520,536,cs),
(700,581,o),
(844,752,o),
(826,935,cs),
(820,1010,o),
(769,1094,o),
(715,1154,cs),
(616,1262,o),
(526,1367,o),
(469,1508,cs),
(442,1580,o),
(352,1643,o),
(274,1679,cs),
(76,1766,o),
(-20,1931,o),
(4,2150,cs),
(16,2261,o),
(43,2351,o),
(166,2408,c),
(202,2351,o),
(244,2294,o),
(271,2234,cs),
(316,2126,o),
(397,2084,o),
(505,2048,cs),
(715,1976,o),
(928,1916,o),
(1147,1871,cs),
(1252,1847,o),
(1324,1784,o),
(1339,1667,cs),
(1354,1550,o),
(1378,1433,o),
(1396,1316,cs),
(1405,1268,o),
(1417,1220,o),
(1423,1172,cs),
(1429,1097,o),
(1444,1022,o),
(1429,950,cs),
(1405,812,o),
(1438,692,o),
(1510,581,cs),
(1528,554,o),
(1546,530,o),
(1558,503,cs),
(1642,347,o),
(1603,230,o),
(1444,146,cs),
(1402,122,o),
(1354,104,o),
(1315,74,cs),
(1225,-1,o),
(1135,-1,o),
(1042,62,cs),
(994,95,o),
(949,131,o),
(889,101,cs),
(742,26,o),
(634,95,o),
(553,206,cs),
(493,287,o),
(388,362,o),
(457,512,c)
);
}
);
width = 1501;
}
);
note = Z;
unicode = 90;
},
{
glyphname = a;
lastChange = "2022-03-10 22:23:03 +0000";
layers = (
{
hints = (
{
horizontal = 1;
place = (126, 257);
place = (126, 257);
type = Stem;
},
{
place = (125, 251);
place = (125, 251);
type = Stem;
}
);
layerId = m01;
shapes = (
{
closed = 1;
nodes = (
(100,0,o),
(90,0,o),
(81,10,cs),
(70,22,o),
(69,31,o),
(78,44,cs),
(85,54,o),
(88,65,o),
(88,77,cs),
(86,96,o),
(76,106,o),
(56,107,cs),
(33,108,ls),
(27,108,o),
(24,106,o),
(20,102,cs),
(13,92,o),
(13,93,o),
(0,101,c),
(10,116,o),
(23,125,o),
(40,127,cs),
(46,128,o),
(51,129,o),
(56,130,cs),
(70,135,o),
(84,133,o),
(95,127,cs),
(104,123,o),
(111,113,o),
(116,105,cs),
(120,98,o),
(121,89,o),
(121,81,cs),
(120,71,o),
(118,62,o),
(124,53,cs),
(126,52,o),
(126,49,o),
(125,47,cs),
(122,32,o),
(118,17,o),
(114,3,c)
);
}
);
width = 126;
},
{
hints = (
{
horizontal = 1;
place = (1, 396);
place = (1, 396);
type = Stem;
},
{
place = (0, 376);
place = (0, 376);
type = Stem;
}
);
layerId = m002;
shapes = (
{
closed = 1;
nodes = (
(299,-3,o),
(268,-2,o),
(242,27,cs),
(210,64,o),
(205,90,o),
(233,130,cs),
(254,160,o),
(264,192,o),
(262,228,cs),
(258,286,o),
(227,317,o),
(167,319,cs),
(97,322,ls),
(81,323,o),
(71,317,o),
(60,303,cs),
(38,275,o),
(37,276,o),
(0,302,c),
(28,346,o),
(67,373,o),
(120,379,cs),
(136,381,o),
(153,384,o),
(168,389,cs),
(209,403,o),
(250,397,o),
(285,379,cs),
(311,366,o),
(332,338,o),
(347,312,cs),
(359,292,o),
(361,264,o),
(361,240,cs),
(360,212,o),
(354,184,o),
(372,158,cs),
(376,153,o),
(377,145,o),
(375,139,cs),
(364,95,o),
(353,50,o),
(341,6,c)
);
}
);
width = 476;
},
{
hints = (
{
horizontal = 1;
place = (-373, 812);
place = (-373, 812);
type = Stem;
},
{
place = (-376, 752);
place = (-376, 752);
type = Stem;
}
);
layerId = m003;
shapes = (
{
closed = 1;
nodes = (
(897,-11,o),
(804,-8,o),
(726,79,cs),
(630,190,o),
(615,268,o),
(699,388,cs),
(762,478,o),
(792,574,o),
(786,682,cs),
(774,856,o),
(681,949,o),
(501,955,cs),
(291,964,ls),
(243,967,o),
(213,949,o),
(180,907,cs),
(114,823,o),
(111,826,o),
(0,904,c),
(84,1036,o),
(201,1117,o),
(360,1135,cs),
(408,1141,o),
(459,1150,o),
(504,1165,cs),
(627,1207,o),
(750,1189,o),
(855,1135,cs),
(933,1096,o),
(996,1012,o),
(1041,934,cs),
(1077,874,o),
(1083,790,o),
(1083,718,cs),
(1080,634,o),
(1062,550,o),
(1116,472,cs),
(1128,457,o),
(1131,433,o),
(1125,415,cs),
(1092,283,o),
(1059,148,o),
(1023,16,c)
);
}
);
width = 1028;
}
);
note = a;
unicode = 97;
},
{
glyphname = b;
lastChange = "2022-03-10 22:23:03 +0000";
layers = (
{
hints = (
{
horizontal = 1;
place = (213, 204);
place = (213, 204);
type = Stem;
},
{
place = (103, 159);
place = (103, 159);
type = Stem;
}
);
layerId = m01;
shapes = (
{
closed = 1;
nodes = (
(54,368,o),
(50,371,o),
(46,374,cs),
(36,382,o),
(27,391,o),
(17,399,cs),
(1,411,o),
(-2,428,o),
(1,446,cs),
(1,450,o),
(2,455,o),
(5,457,cs),
(15,465,o),
(24,474,o),
(38,477,cs),
(49,479,o),
(56,473,o),
(64,469,cs),
(70,466,o),
(69,455,o),
(64,448,cs),
(59,441,o),
(53,435,o),
(49,428,cs),
(40,415,o),
(42,406,o),
(54,395,cs),
(63,387,o),
(65,378,o),
(59,364,c)
);
}
);
width = 68;
},
{
hints = (
{
horizontal = 1;
place = (364, 339);
place = (364, 339);
type = Stem;
},
{
place = (35, 204);
place = (35, 204);
type = Stem;
}
);
layerId = m002;
shapes = (
{
closed = 1;
nodes = (
(197,375,o),
(185,385,o),
(173,395,cs),
(144,419,o),
(115,445,o),
(86,469,cs),
(38,506,o),
(30,556,o),
(37,611,cs),
(39,622,o),
(42,636,o),
(49,643,cs),
(79,668,o),
(107,695,o),
(150,702,cs),
(182,708,o),
(204,692,o),
(228,679,cs),
(245,669,o),
(242,638,o),
(226,616,cs),
(211,596,o),
(194,578,o),
(181,557,cs),
(156,516,o),
(161,491,o),
(197,458,cs),
(225,433,o),
(229,407,o),
(211,364,c)
);
}
);
width = 304;
},
{
hints = (
{
horizontal = 1;
place = (818, 743);
place = (818, 743);
type = Stem;
},
{
place = (-169, 338);
place = (-169, 338);
type = Stem;
}
);
layerId = m003;
shapes = (
{
closed = 1;
nodes = (
(487,397,o),
(451,427,o),
(415,457,cs),
(328,529,o),
(241,607,o),
(154,679,cs),
(10,790,o),
(-14,940,o),
(7,1105,cs),
(13,1138,o),
(22,1180,o),
(43,1201,cs),
(133,1276,o),
(217,1357,o),
(346,1378,cs),
(442,1396,o),
(508,1348,o),
(580,1309,cs),
(631,1279,o),
(622,1186,o),
(574,1120,cs),
(529,1060,o),
(478,1006,o),
(439,943,cs),
(364,820,o),
(379,745,o),
(487,646,cs),
(571,571,o),
(583,493,o),
(529,364,c)
);
}
);
width = 514;
}
);
note = b;
unicode = 98;
},
{
glyphname = c;
lastChange = "2022-03-10 22:23:03 +0000";
layers = (
{
hints = (
{
horizontal = 1;
place = (282, 478);
place = (282, 478);
type = Stem;
},
{
place = (282, 563);
place = (282, 563);
type = Stem;
}
);
layerId = m01;
shapes = (
{
closed = 1;
nodes = (
(146,90,o),
(140,88,o),
(134,85,cs),
(125,79,o),
(117,78,o),
(106,80,cs),
(95,84,o),
(82,84,o),
(72,90,cs),
(61,97,o),
(52,105,o),
(46,116,cs),
(40,129,o),
(31,140,o),
(16,145,cs),
(12,147,o),
(8,149,o),
(5,152,cs),
(-2,159,o),
(-2,165,o),
(5,172,c),
(10,177,ls),
(25,189,o),
(31,188,o),
(42,172,cs),
(44,170,o),
(46,167,o),
(48,164,cs),
(59,152,o),
(72,153,o),
(81,166,cs),
(86,173,o),
(91,180,o),
(96,186,cs),
(106,199,o),
(118,201,o),
(131,193,cs),
(139,188,o),
(146,181,o),
(154,174,cs),
(163,165,o),
(167,153,o),
(168,140,cs),
(169,137,o),
(169,135,o),
(169,133,cs),
(173,113,o),
(181,110,o),
(197,123,cs),
(210,133,o),
(223,140,o),
(239,142,cs),
(242,142,o),
(247,142,o),
(250,140,cs),
(257,133,o),
(265,126,o),
(272,118,cs),
(281,108,o),
(284,97,o),
(278,84,cs),
(270,63,o),
(262,41,o),
(253,19,cs),
(251,14,o),
(244,9,o),
(239,7,cs),
(231,4,o),
(222,3,o),
(213,2,cs),
(200,0,o),
(194,3,o),
(190,15,cs),
(187,24,o),
(183,34,o),
(183,44,cs),
(182,58,o),
(174,70,o),
(169,82,cs),
(166,90,o),
(160,92,o),
(150,92,c)
);
}
);
width = 281;
},
{
hints = (
{
horizontal = 1;
place = (1, 589);
place = (1, 589);
type = Stem;
},
{
place = (1, 843);
place = (1, 843);
type = Stem;
}
);
layerId = m002;
shapes = (
{
closed = 1;
nodes = (
(440,268,o),
(420,262,o),
(404,252,cs),
(377,233,o),
(353,230,o),
(320,238,cs),
(285,248,o),
(248,249,o),
(216,268,cs),
(184,288,o),
(157,312,o),
(140,346,cs),
(120,385,o),
(93,417,o),
(49,432,cs),
(37,437,o),
(25,445,o),
(15,454,cs),
(-5,473,o),
(-4,493,o),
(16,514,c),
(31,527,ls),
(76,564,o),
(95,561,o),
(128,514,cs),
(134,506,o),
(138,497,o),
(145,489,cs),
(177,453,o),
(217,456,o),
(245,495,cs),
(260,515,o),
(274,536,o),
(290,555,cs),
(320,593,o),
(354,601,o),
(394,576,cs),
(419,560,o),
(440,539,o),
(462,519,cs),
(491,491,o),
(503,455,o),
(506,416,cs),
(507,409,o),
(507,402,o),
(508,396,cs),
(520,336,o),
(545,327,o),
(593,365,cs),
(630,395,o),
(671,417,o),
(718,422,cs),
(728,424,o),
(742,422,o),
(750,416,cs),
(773,396,o),
(796,374,o),
(817,351,cs),
(844,322,o),
(852,288,o),
(836,250,cs),
(811,185,o),
(788,119,o),
(761,55,cs),
(754,39,o),
(734,25,o),
(718,19,cs),
(693,9,o),
(666,7,o),
(640,3,cs),
(601,-3,o),
(583,6,o),
(571,41,cs),
(562,70,o),
(551,99,o),
(550,128,cs),
(548,172,o),
(523,206,o),
(508,244,cs),
(499,266,o),
(481,273,o),
(450,272,c)
);
}
);
width = 944;
},
{
hints = (
{
horizontal = 1;
place = (-842, 922);
place = (-842, 922);
type = Stem;
},
{
place = (-842, 1684);
place = (-842, 1684);
type = Stem;
}
);
layerId = m003;
shapes = (
{
closed = 1;
nodes = (
(1319,801,o),
(1259,783,o),
(1211,753,cs),
(1130,696,o),
(1058,687,o),
(959,711,cs),
(854,741,o),
(743,744,o),
(647,801,cs),
(551,861,o),
(470,933,o),
(419,1035,cs),
(359,1152,o),
(278,1248,o),
(146,1293,cs),
(110,1308,o),
(74,1332,o),
(44,1359,cs),
(-16,1416,o),
(-13,1476,o),
(47,1539,c),
(92,1578,ls),
(227,1689,o),
(284,1680,o),
(383,1539,cs),
(401,1515,o),
(413,1488,o),
(434,1464,cs),
(530,1356,o),
(650,1365,o),
(734,1482,cs),
(779,1542,o),
(821,1605,o),
(869,1662,cs),
(959,1776,o),
(1061,1800,o),
(1181,1725,cs),
(1256,1677,o),
(1319,1614,o),
(1385,1554,cs),
(1472,1470,o),
(1508,1362,o),
(1517,1245,cs),
(1520,1224,o),
(1520,1203,o),
(1523,1185,cs),
(1559,1005,o),
(1634,978,o),
(1778,1092,cs),
(1889,1182,o),
(2012,1248,o),
(2153,1263,cs),
(2183,1269,o),
(2225,1263,o),
(2249,1245,cs),
(2318,1185,o),
(2387,1119,o),
(2450,1050,cs),
(2531,963,o),
(2555,861,o),
(2507,747,cs),
(2432,552,o),
(2363,354,o),
(2282,162,cs),
(2261,114,o),
(2201,72,o),
(2153,54,cs),
(2078,24,o),
(1997,18,o),
(1919,6,cs),
(1802,-12,o),
(1748,15,o),
(1712,120,cs),
(1685,207,o),
(1652,294,o),
(1649,381,cs),
(1643,513,o),
(1568,615,o),
(1523,729,cs),
(1496,795,o),
(1442,816,o),
(1349,813,c)
);
}
);
width = 2432;
}
);
note = c;
unicode = 99;
},
{
glyphname = d;
lastChange = "2022-03-10 22:23:03 +0000";
layers = (
{
hints = (
{
horizontal = 1;
place = (203, 515);
place = (203, 515);
type = Stem;
},
{
place = (328, 517);
place = (328, 517);
type = Stem;
}
);
layerId = m01;
shapes = (
{
closed = 1;
nodes = (
(120,-81,o),
(136,-64,o),
(154,-52,cs),
(162,-47,o),
(174,-49,o),
(183,-49,cs),
(191,-49,o),
(198,-50,o),
(205,-51,cs),
(216,-51,o),
(225,-62,o),
(223,-73,cs),
(220,-97,o),
(206,-107,o),
(182,-108,cs),
(171,-108,o),
(160,-114,o),
(149,-117,cs),
(142,-119,o),
(136,-121,o),
(128,-124,c),
(128,-132,o),
(127,-141,o),
(118,-147,cs),
(116,-148,o),
(114,-151,o),
(114,-154,c),
(112,-169,o),
(100,-179,o),
(93,-191,cs),
(91,-194,o),
(86,-197,o),
(82,-197,cs),
(61,-198,o),
(56,-203,o),
(53,-223,cs),
(51,-231,o),
(49,-239,o),
(46,-246,cs),
(39,-266,o),
(35,-269,o),
(14,-270,cs),
(3,-270,o),
(-2,-266,o),
(0,-257,cs),
(5,-236,o),
(1,-216,o),
(1,-196,cs),
(1,-190,o),
(4,-187,o),
(9,-185,cs),
(21,-180,o),
(28,-171,o),
(34,-160,cs),
(45,-142,o),
(59,-127,o),
(84,-131,cs),
(89,-131,o),
(96,-128,o),
(102,-125,cs),
(110,-120,o),
(118,-114,o),
(128,-107,c)
);
}
);
width = 223;
},
{
hints = (
{
horizontal = 1;
place = (-270, 665);
place = (-270, 665);
type = Stem;
},
{
place = (104, 671);
place = (104, 671);
type = Stem;
}
);
layerId = m002;
shapes = (
{
closed = 1;
nodes = (
(466,297,o),
(512,347,o),
(568,385,cs),
(590,400,o),
(626,393,o),
(655,394,cs),
(677,394,o),
(698,390,o),
(720,388,cs),
(753,386,o),
(780,353,o),
(774,320,cs),
(764,250,o),
(722,219,o),
(652,216,cs),
(618,215,o),
(585,199,o),
(553,189,cs),
(532,183,o),
(513,176,o),
(488,167,c),
(490,144,o),
(485,117,o),
(459,99,cs),
(452,95,o),
(446,86,o),
(446,78,c),
(441,32,o),
(405,3,o),
(384,-34,cs),
(378,-43,o),
(363,-50,o),
(352,-50,cs),
(289,-55,o),
(274,-69,o),
(264,-128,cs),
(259,-152,o),
(251,-176,o),
(243,-199,cs),
(222,-259,o),
(209,-268,o),
(146,-270,cs),
(114,-271,o),
(98,-259,o),
(106,-230,cs),
(121,-169,o),
(108,-108,o),
(108,-48,cs),
(109,-29,o),
(117,-20,o),
(132,-14,cs),
(168,0,o),
(188,27,o),
(208,60,cs),
(239,114,o),
(282,159,o),
(356,148,cs),
(373,146,o),
(394,156,o),
(411,165,cs),
(436,180,o),
(459,199,o),
(488,220,c)
);
}
);
width = 771;
},
{
hints = (
{
horizontal = 1;
place = (-1689, 1116);
place = (-1689, 1116);
type = Stem;
},
{
place = (-567, 1134);
place = (-567, 1134);
type = Stem;
}
);
layerId = m003;
shapes = (
{
closed = 1;
nodes = (
(1086,1431,o),
(1224,1581,o),
(1392,1695,cs),
(1458,1740,o),
(1566,1719,o),
(1653,1722,cs),
(1719,1722,o),
(1782,1710,o),
(1848,1704,cs),
(1947,1698,o),
(2028,1599,o),
(2010,1500,cs),
(1980,1290,o),
(1854,1197,o),
(1644,1188,cs),
(1542,1185,o),
(1443,1137,o),
(1347,1107,cs),
(1284,1089,o),
(1227,1068,o),
(1152,1041,c),
(1158,972,o),
(1143,891,o),
(1065,837,cs),
(1044,825,o),
(1026,798,o),
(1026,774,c),
(1011,636,o),
(903,549,o),
(840,438,cs),
(822,411,o),
(777,390,o),
(744,390,cs),
(555,375,o),
(510,333,o),
(480,156,cs),
(465,84,o),
(441,12,o),
(417,-57,cs),
(354,-237,o),
(315,-264,o),
(126,-270,cs),
(30,-273,o),
(-18,-237,o),
(6,-150,cs),
(51,33,o),
(12,216,o),
(12,396,cs),
(15,453,o),
(39,480,o),
(84,498,cs),
(192,540,o),
(252,621,o),
(312,720,cs),
(405,882,o),
(534,1017,o),
(756,984,cs),
(807,978,o),
(870,1008,o),
(921,1035,cs),
(996,1080,o),
(1065,1137,o),
(1152,1200,c)
);
}
);
width = 1913;
}
);
note = d;
unicode = 100;
},
{
glyphname = e;
lastChange = "2022-03-10 22:23:03 +0000";
layers = (
{
hints = (
{
horizontal = 1;
place = (274, 401);
place = (274, 401);
type = Stem;
},
{
place = (209, 436);
place = (209, 436);
type = Stem;
}
);
layerId = m01;
shapes = (
{
closed = 1;
nodes = (
(221,304,l),
(220,297,o),
(219,290,o),
(219,282,cs),
(218,272,o),
(213,260,o),
(222,251,c),
(220,241,o),
(220,229,o),
(214,222,cs),
(204,209,o),
(191,199,o),
(179,189,cs),
(170,181,o),
(159,179,o),
(149,185,cs),
(135,193,o),
(120,191,o),
(106,189,cs),
(88,185,o),
(72,190,o),
(56,197,cs),
(45,202,o),
(37,216,o),
(39,230,cs),
(41,240,o),
(44,249,o),
(46,259,cs),
(48,266,o),
(48,274,o),
(51,281,cs),
(53,288,o),
(57,294,o),
(61,300,cs),
(68,309,o),
(68,320,o),
(60,332,cs),
(54,343,o),
(47,346,o),
(35,343,cs),
(30,342,o),
(26,341,o),
(21,340,cs),
(13,338,o),
(7,340,o),
(4,347,cs),
(1,351,o),
(-1,358,o),
(0,362,cs),
(2,366,o),
(9,368,o),
(14,369,cs),
(30,371,o),
(44,368,o),
(57,357,cs),
(68,347,o),
(69,349,o),
(82,357,cs),
(90,361,o),
(100,366,o),
(108,366,cs),
(121,366,o),
(134,370,o),
(147,365,cs),
(153,363,o),
(161,366,o),
(167,366,cs),
(184,368,o),
(199,363,o),
(210,349,cs),
(214,343,o),
(221,322,o),
(221,312,cs),
(221,309,o),
(220,307,o),
(220,304,c)
);
}
);
width = 222;
},
{
hints = (
{
horizontal = 1;
place = (182, 563);
place = (182, 563);
type = Stem;
},
{
place = (-14, 668);
place = (-14, 668);
type = Stem;
}
);
layerId = m002;
shapes = (
{
closed = 1;
nodes = (
(651,548,l),
(648,527,o),
(645,506,o),
(643,484,cs),
(640,452,o),
(627,418,o),
(654,389,c),
(646,360,o),
(646,324,o),
(629,302,cs),
(600,265,o),
(561,234,o),
(525,203,cs),
(498,180,o),
(463,175,o),
(435,191,cs),
(392,216,o),
(347,210,o),
(305,203,cs),
(250,193,o),
(203,208,o),
(156,228,cs),
(121,243,o),
(98,286,o),
(104,327,cs),
(109,356,o),
(118,385,o),
(125,414,cs),
(130,436,o),
(132,460,o),
(140,481,cs),
(147,501,o),
(158,519,o),
(171,536,cs),
(190,563,o),
(190,596,o),
(168,633,cs),
(148,665,o),
(129,674,o),
(93,667,cs),
(78,664,o),
(64,659,o),
(49,656,cs),
(27,651,o),
(8,658,o),
(-2,677,cs),
(-10,691,o),
(-17,711,o),
(-12,723,cs),
(-7,734,o),
(14,741,o),
(29,743,cs),
(76,749,o),
(119,740,o),
(157,707,cs),
(192,677,o),
(194,683,o),
(234,707,cs),
(257,721,o),
(286,735,o),
(312,735,cs),
(351,734,o),
(390,748,o),
(429,733,cs),
(446,726,o),
(469,734,o),
(488,735,cs),
(540,740,o),
(583,725,o),
(616,684,cs),
(629,667,o),
(650,604,o),
(649,573,cs),
(649,565,o),
(648,557,o),
(648,548,c)
);
}
);
width = 768;
},
{
hints = (
{
horizontal = 1;
place = (-94, 1049);
place = (-94, 1049);
type = Stem;
},
{
place = (-682, 1364);
place = (-682, 1364);
type = Stem;
}
);
layerId = m003;
shapes = (
{
closed = 1;
nodes = (
(1994,1281,l),
(1985,1218,o),
(1976,1155,o),
(1970,1089,cs),
(1961,993,o),
(1922,891,o),
(2003,804,c),
(1979,717,o),
(1979,609,o),
(1928,543,cs),
(1841,432,o),
(1724,339,o),
(1616,246,cs),
(1535,177,o),
(1430,162,o),
(1346,210,cs),
(1217,285,o),
(1082,267,o),
(956,246,cs),
(791,216,o),
(650,261,o),
(509,321,cs),
(404,366,o),
(335,495,o),
(353,618,cs),
(368,705,o),
(395,792,o),
(416,879,cs),
(431,945,o),
(437,1017,o),
(461,1080,cs),
(482,1140,o),
(515,1194,o),
(554,1245,cs),
(611,1326,o),
(611,1425,o),
(545,1536,cs),
(485,1632,o),
(428,1659,o),
(320,1638,cs),
(275,1629,o),
(233,1614,o),
(188,1605,cs),
(122,1590,o),
(65,1611,o),
(35,1668,cs),
(11,1710,o),
(-10,1770,o),
(5,1806,cs),
(20,1839,o),
(83,1860,o),
(128,1866,cs),
(269,1884,o),
(398,1857,o),
(512,1758,cs),
(617,1668,o),
(623,1686,o),
(743,1758,cs),
(812,1800,o),
(899,1842,o),
(977,1842,cs),
(1094,1839,o),
(1211,1881,o),
(1328,1836,cs),
(1379,1815,o),
(1448,1839,o),
(1505,1842,cs),
(1661,1857,o),
(1790,1812,o),
(1889,1689,cs),
(1928,1638,o),
(1991,1449,o),
(1988,1356,cs),
(1988,1332,o),
(1985,1308,o),
(1985,1281,c)
);
}
);
width = 1903;
}
);
note = e;
unicode = 101;
},
{
glyphname = f;
lastChange = "2022-03-10 22:23:03 +0000";
layers = (
{
hints = (
{
horizontal = 1;
place = (164, 384);
place = (164, 384);
type = Stem;
},
{
place = (249, 410);
place = (249, 410);
type = Stem;
}
);
layerId = m01;
shapes = (
{
closed = 1;
nodes = (
(3,-121,o),
(2,-113,o),
(1,-105,cs),
(-2,-85,o),
(7,-66,o),
(25,-57,cs),
(39,-50,o),
(49,-37,o),
(65,-35,cs),
(73,-34,o),
(80,-32,o),
(87,-33,cs),
(98,-34,o),
(108,-38,o),
(119,-35,cs),
(122,-34,o),
(125,-36,o),
(127,-37,cs),
(146,-46,o),
(161,-60,o),
(177,-72,cs),
(183,-76,o),
(185,-83,o),
(182,-91,cs),
(177,-104,o),
(174,-116,o),
(170,-129,cs),
(169,-132,o),
(166,-136,o),
(163,-138,cs),
(147,-149,o),
(132,-160,o),
(121,-177,cs),
(120,-180,o),
(115,-182,o),
(112,-182,cs),
(96,-185,o),
(81,-186,o),
(66,-188,cs),
(38,-191,o),
(18,-180,o),
(6,-156,cs),
(4,-151,o),
(2,-146,o),
(2,-142,cs),
(1,-137,o),
(3,-133,o),
(3,-128,c)
);
}
);
width = 183;
},
{
hints = (
{
horizontal = 1;
place = (-189, 469);
place = (-189, 469);
type = Stem;
},
{
place = (66, 549);
place = (66, 549);
type = Stem;
}
);
layerId = m002;
shapes = (
{
closed = 1;
nodes = (
(73,15,o),
(71,38,o),
(68,61,cs),
(59,122,o),
(86,179,o),
(140,207,cs),
(181,228,o),
(212,267,o),
(261,273,cs),
(283,275,o),
(305,282,o),
(325,279,cs),
(358,274,o),
(389,262,o),
(423,272,cs),
(430,274,o),
(439,269,o),
(447,265,cs),
(502,239,o),
(548,198,o),
(597,162,cs),
(615,148,o),
(620,128,o),
(611,103,cs),
(597,66,o),
(588,28,o),
(575,-10,cs),
(571,-20,o),
(564,-32,o),
(555,-37,cs),
(507,-69,o),
(461,-104,o),
(429,-154,cs),
(424,-162,o),
(411,-169,o),
(400,-170,cs),
(354,-177,o),
(308,-182,o),
(262,-187,cs),
(180,-197,o),
(120,-164,o),
(83,-90,cs),
(77,-77,o),
(72,-62,o),
(71,-48,cs),
(69,-35,o),
(73,-22,o),
(75,-6,c)
);
}
);
width = 649;
},
{
hints = (
{
horizontal = 1;
place = (-1249, 725);
place = (-1249, 725);
type = Stem;
},
{
place = (-484, 965);
place = (-484, 965);
type = Stem;
}
);
layerId = m003;
shapes = (
{
closed = 1;
nodes = (
(20,422,o),
(14,491,o),
(5,560,cs),
(-22,743,o),
(59,914,o),
(221,998,cs),
(344,1061,o),
(437,1178,o),
(584,1196,cs),
(650,1202,o),
(716,1223,o),
(776,1214,cs),
(875,1199,o),
(968,1163,o),
(1070,1193,cs),
(1091,1199,o),
(1118,1184,o),
(1142,1172,cs),
(1307,1094,o),
(1445,971,o),
(1592,863,cs),
(1646,821,o),
(1661,761,o),
(1634,686,cs),
(1592,575,o),
(1565,461,o),
(1526,347,cs),
(1514,317,o),
(1493,281,o),
(1466,266,cs),
(1322,170,o),
(1184,65,o),
(1088,-85,cs),
(1073,-109,o),
(1034,-130,o),
(1001,-133,cs),
(863,-154,o),
(725,-169,o),
(587,-184,cs),
(341,-214,o),
(161,-115,o),
(50,107,cs),
(32,146,o),
(17,191,o),
(14,233,cs),
(8,272,o),
(20,311,o),
(26,359,c)
);
}
);
width = 1547;
}
);
note = f;
unicode = 102;
},
{
glyphname = g;
lastChange = "2022-03-10 22:23:03 +0000";
layers = (
{
hints = (
{
horizontal = 1;
place = (270, 396);
place = (270, 396);
type = Stem;
},
{
place = (242, 371);
place = (242, 371);
type = Stem;
}
);
layerId = m01;
shapes = (
{
closed = 1;
nodes = (
(93,170,o),
(90,170,o),
(89,171,cs),
(67,188,o),
(41,201,o),
(26,226,cs),
(23,231,o),
(19,236,o),
(15,240,c),
(0,252,o),
(-2,266,o),
(2,283,cs),
(2,285,o),
(3,288,o),
(3,290,cs),
(5,303,o),
(10,312,o),
(26,314,cs),
(50,318,o),
(73,327,o),
(93,343,cs),
(109,355,o),
(137,354,o),
(149,341,cs),
(158,333,o),
(159,327,o),
(153,317,cs),
(148,309,o),
(141,302,o),
(133,295,cs),
(126,289,o),
(120,283,o),
(118,272,cs),
(115,255,o),
(105,239,o),
(101,222,cs),
(97,207,o),
(98,191,o),
(97,176,c),
(97,174,o),
(97,173,o),
(97,169,c)
);
}
);
width = 157;
},
{
hints = (
{
horizontal = 1;
place = (169, 547);
place = (169, 547);
type = Stem;
},
{
place = (85, 471);
place = (85, 471);
type = Stem;
}
);
layerId = m002;
shapes = (
{
closed = 1;
nodes = (
(364,172,o),
(356,173,o),
(352,176,cs),
(285,226,o),
(207,264,o),
(164,341,cs),
(155,356,o),
(143,371,o),
(130,383,c),
(86,417,o),
(79,461,o),
(90,512,cs),
(92,518,o),
(93,525,o),
(94,531,cs),
(101,572,o),
(114,597,o),
(164,605,cs),
(235,616,o),
(304,643,o),
(363,690,cs),
(411,728,o),
(496,723,o),
(533,685,cs),
(558,660,o),
(563,644,o),
(545,614,cs),
(529,590,o),
(507,569,o),
(485,548,cs),
(464,528,o),
(445,512,o),
(438,477,cs),
(429,426,o),
(400,379,o),
(388,328,cs),
(377,284,o),
(379,236,o),
(376,190,c),
(375,185,o),
(376,181,o),
(376,169,c)
);
}
);
width = 571;
},
{
hints = (
{
horizontal = 1;
place = (-134, 1000);
place = (-134, 1000);
type = Stem;
},
{
place = (-386, 772);
place = (-386, 772);
type = Stem;
}
);
layerId = m003;
shapes = (
{
closed = 1;
nodes = (
(836,178,o),
(812,181,o),
(800,190,cs),
(599,340,o),
(365,454,o),
(236,685,cs),
(209,730,o),
(173,775,o),
(134,811,c),
(2,913,o),
(-19,1045,o),
(14,1198,cs),
(20,1216,o),
(23,1237,o),
(26,1255,cs),
(47,1378,o),
(86,1453,o),
(236,1477,cs),
(449,1510,o),
(656,1591,o),
(833,1732,cs),
(977,1846,o),
(1232,1831,o),
(1343,1717,cs),
(1418,1642,o),
(1433,1594,o),
(1379,1504,cs),
(1331,1432,o),
(1265,1369,o),
(1199,1306,cs),
(1136,1246,o),
(1079,1198,o),
(1058,1093,cs),
(1031,940,o),
(944,799,o),
(908,646,cs),
(875,514,o),
(881,370,o),
(872,232,c),
(869,217,o),
(872,205,o),
(872,169,c)
);
}
);
width = 1311;
}
);
note = g;
unicode = 103;
},
{
glyphname = h;
lastChange = "2022-03-10 22:23:03 +0000";
layers = (
{
hints = (
{
horizontal = 1;
place = (52, 297);
place = (52, 297);
type = Stem;
},
{
place = (103, 164);
place = (103, 164);
type = Stem;
}
);
layerId = m01;
shapes = (
{
closed = 1;
nodes = (
(62,-117,o),
(61,-109,o),
(58,-101,cs),
(56,-96,o),
(56,-87,o),
(48,-88,cs),
(44,-89,o),
(40,-95,o),
(36,-100,cs),
(34,-102,o),
(33,-106,o),
(32,-111,c),
(24,-100,o),
(20,-89,o),
(20,-77,cs),
(20,-61,o),
(22,-45,o),
(17,-30,cs),
(9,-10,o),
(9,11,o),
(4,31,cs),
(1,43,o),
(-2,54,o),
(3,65,cs),
(11,81,o),
(30,88,o),
(46,80,cs),
(57,75,o),
(65,68,o),
(67,54,cs),
(70,29,o),
(75,5,o),
(67,-20,cs),
(64,-32,o),
(62,-45,o),
(59,-58,cs),
(57,-68,o),
(62,-81,o),
(64,-92,cs),
(66,-102,o),
(69,-111,o),
(72,-121,c)
);
}
);
width = 72;
},
{
hints = (
{
horizontal = 1;
place = (-121, 613);
place = (-121, 613);
type = Stem;
},
{
place = (32, 215);
place = (32, 215);
type = Stem;
}
);
layerId = m002;
shapes = (
{
closed = 1;
nodes = (
(217,-109,o),
(213,-84,o),
(206,-62,cs),
(200,-45,o),
(200,-19,o),
(176,-23,cs),
(162,-25,o),
(150,-44,o),
(139,-57,cs),
(133,-64,o),
(131,-75,o),
(126,-90,c),
(103,-57,o),
(92,-25,o),
(92,10,cs),
(92,58,o),
(98,106,o),
(81,153,cs),
(59,212,o),
(58,275,o),
(43,335,cs),
(33,372,o),
(24,403,o),
(41,438,cs),
(64,485,o),
(121,506,o),
(168,483,cs),
(201,466,o),
(227,447,o),
(233,403,cs),
(242,329,o),
(257,258,o),
(233,183,cs),
(222,146,o),
(217,106,o),
(209,68,cs),
(202,37,o),
(216,0,o),
(223,-34,cs),
(230,-63,o),
(239,-92,o),
(247,-121,c)
);
}
);
width = 316;
},
{
hints = (
{
horizontal = 1;
place = (-641, 1561);
place = (-641, 1561);
type = Stem;
},
{
place = (-182, 367);
place = (-182, 367);
type = Stem;
}
);
layerId = m003;
shapes = (
{
closed = 1;
nodes = (
(557,-85,o),
(545,-10,o),
(524,56,cs),
(506,107,o),
(506,185,o),
(434,173,cs),
(392,167,o),
(356,110,o),
(323,71,cs),
(305,50,o),
(299,17,o),
(284,-28,c),
(215,71,o),
(182,167,o),
(182,272,cs),
(182,416,o),
(200,560,o),
(149,701,cs),
(83,878,o),
(80,1067,o),
(35,1247,cs),
(5,1358,o),
(-22,1451,o),
(29,1556,cs),
(98,1697,o),
(269,1760,o),
(410,1691,cs),
(509,1640,o),
(587,1583,o),
(605,1451,cs),
(632,1229,o),
(677,1016,o),
(605,791,cs),
(572,680,o),
(557,560,o),
(533,446,cs),
(512,353,o),
(554,242,o),
(575,140,cs),
(596,53,o),
(623,-34,o),
(647,-121,c)
);
}
);
width = 547;
}
);
note = h;
unicode = 104;
},
{
glyphname = i;
lastChange = "2022-03-10 22:23:03 +0000";
layers = (
{
hints = (
{
horizontal = 1;
place = (306, 143);
place = (306, 143);
type = Stem;
},
{
place = (162, 149);
place = (162, 149);
type = Stem;
},
{
place = (157, 154);
place = (157, 154);
type = Stem;
}
);
layerId = m01;
shapes = (
{
closed = 1;
nodes = (
(19,354,o),
(17,353,o),
(16,352,c),
(14,351,o),
(15,349,o),
(16,348,cs),
(17,348,o),
(18,348,o),
(18,348,cs),
(20,347,o),
(23,347,o),
(25,347,c),
(25,348,l),
(24,350,o),
(24,352,o),
(25,354,cs),
(25,356,o),
(24,358,o),
(23,359,cs),
(22,360,o),
(21,361,o),
(21,362,cs),
(20,363,o),
(20,364,o),
(21,365,cs),
(21,367,o),
(22,368,o),
(23,369,cs),
(24,370,o),
(25,371,o),
(26,371,cs),
(30,373,o),
(34,371,o),
(36,367,cs),
(37,364,o),
(38,361,o),
(39,358,cs),
(40,356,o),
(38,352,o),
(36,352,cs),
(36,351,o),
(35,351,o),
(34,351,c),
(30,352,l),
(30,349,o),
(32,346,o),
(34,344,cs),
(44,332,l),
(44,332,o),
(44,332,o),
(45,332,cs),
(51,325,l),
(48,323,o),
(46,324,o),
(45,326,cs),
(43,329,o),
(40,331,o),
(38,332,cs),
(36,334,o),
(34,333,o),
(33,331,cs),
(32,329,ls),
(31,325,o),
(31,325,o),
(34,324,cs),
(35,323,o),
(35,323,o),
(35,322,cs),
(36,321,o),
(37,320,o),
(39,320,cs),
(44,320,o),
(48,316,o),
(50,311,cs),
(50,310,o),
(51,308,o),
(52,307,cs),
(53,305,o),
(55,303,o),
(56,301,c),
(57,300,l),
(60,300,o),
(61,298,o),
(63,296,cs),
(64,294,o),
(64,294,o),
(68,296,c),
(67,299,o),
(70,301,o),
(69,304,c),
(72,306,o),
(73,306,o),
(75,303,cs),
(76,302,o),
(77,301,o),
(77,301,c),
(81,298,o),
(83,294,o),
(84,290,cs),
(84,290,o),
(84,289,o),
(84,288,c),
(83,285,o),
(82,283,o),
(81,280,cs),
(80,278,o),
(80,277,o),
(81,275,cs),
(82,274,o),
(83,273,o),
(85,273,cs),
(87,272,o),
(89,270,o),
(90,268,cs),
(90,268,o),
(90,267,o),
(91,267,cs),
(93,267,o),
(95,265,o),
(97,263,c),
(98,261,o),
(101,262,o),
(101,264,c),
(101,270,l),
(100,274,o),
(101,275,o),
(106,275,cs),
(107,275,o),
(108,276,o),
(109,276,c),
(111,276,o),
(112,277,o),
(113,279,cs),
(115,282,o),
(116,282,o),
(117,281,cs),
(120,281,o),
(122,278,o),
(122,276,cs),
(122,272,l),
(119,273,o),
(117,272,o),
(116,269,cs),
(115,267,o),
(113,266,o),
(111,265,c),
(111,264,o),
(110,262,o),
(108,261,cs),
(105,259,o),
(104,257,o),
(105,253,cs),
(106,251,o),
(107,248,o),
(106,246,c),
(106,245,o),
(106,244,o),
(106,244,cs),
(107,241,o),
(109,238,o),
(110,235,c),
(111,233,o),
(110,230,o),
(108,229,c),
(107,229,o),
(106,229,o),
(106,230,cs),
(104,231,o),
(103,232,o),
(102,234,cs),
(101,235,o),
(99,236,o),
(99,237,cs),
(98,238,o),
(97,238,o),
(97,239,c),
(95,246,o),
(90,252,o),
(85,257,c),
(85,258,o),
(84,258,o),
(84,258,cs),
(79,260,o),
(75,264,o),
(72,267,cs),
(69,269,o),
(66,271,o),
(63,273,cs),
(62,273,o),
(62,274,o),
(62,275,cs),
(62,276,o),
(61,276,o),
(61,277,c),
(57,282,o),
(57,282,o),
(51,279,c),
(47,282,o),
(46,287,o),
(49,291,cs),
(51,293,l),
(52,294,o),
(52,294,o),
(53,294,c),
(58,291,ls),
(59,291,o),
(59,291,o),
(60,290,c),
(60,291,o),
(60,291,o),
(60,291,cs),
(60,292,o),
(59,293,o),
(59,294,cs),
(56,297,o),
(54,301,o),
(52,304,cs),
(51,306,o),
(50,307,o),
(48,308,cs),
(46,309,o),
(44,309,o),
(43,306,cs),
(41,304,o),
(40,301,o),
(37,298,c),
(36,298,o),
(36,296,o),
(36,295,cs),
(35,294,o),
(35,292,o),
(33,292,cs),
(31,292,o),
(30,292,o),
(29,294,c),
(29,295,l),
(29,296,o),
(29,296,o),
(30,297,cs),
(31,298,o),
(31,299,o),
(31,301,c),
(30,304,o),
(31,307,o),
(31,310,cs),
(31,311,o),
(32,313,o),
(32,314,c),
(34,316,o),
(36,314,o),
(38,316,c),
(38,317,o),
(36,318,o),
(35,319,cs),
(31,323,o),
(27,327,o),
(23,331,cs),
(23,332,o),
(22,332,o),
(21,333,c),
(17,338,ls),
(15,342,o),
(13,345,o),
(11,349,c),
(9,347,o),
(10,345,o),
(10,344,cs),
(10,342,o),
(10,340,o),
(8,339,cs),
(7,338,o),
(5,338,o),
(4,340,cs),
(1,342,o),
(2,346,o),
(1,349,cs),
(0,350,o),
(0,352,o),
(2,354,cs),
(3,355,o),
(2,356,o),
(1,357,c),
(1,358,o),
(0,358,o),
(0,360,c),
(0,360,o),
(0,359,o),
(1,359,cs),
(2,359,l),
(2,363,o),
(1,366,o),
(0,368,cs),
(-1,372,o),
(1,375,o),
(5,375,cs),
(6,375,l),
(7,373,o),
(9,373,o),
(11,372,c),
(12,371,o),
(13,370,o),
(14,369,c),
(15,367,o),
(15,366,o),
(15,364,cs),
(15,363,o),
(15,361,o),
(15,359,cs),
(16,357,o),
(17,357,o),
(19,356,c),
(19,356,o),
(20,355,o),
(20,355,c)
);
}
);
width = 122;
},
{
hints = (
{
horizontal = 1;
place = (501, 13);
place = (501, 13);
type = Stem;
},
{
place = (69, 31);
place = (69, 31);
type = Stem;
},
{
place = (55, 45);
place = (55, 45);
type = Stem;
}
);
layerId = m002;
shapes = (
{
closed = 1;
nodes = (
(81,605,o),
(75,602,o),
(72,598,c),
(67,594,o),
(69,590,o),
(74,587,cs),
(76,586,o),
(78,585,o),
(80,585,cs),
(86,584,o),
(93,583,o),
(100,582,c),
(100,587,l),
(98,593,o),
(98,599,o),
(99,605,cs),
(100,610,o),
(98,615,o),
(94,619,cs),
(91,621,o),
(89,624,o),
(87,627,cs),
(84,631,o),
(84,634,o),
(87,638,cs),
(89,642,o),
(91,646,o),
(94,649,cs),
(96,652,o),
(99,655,o),
(103,656,cs),
(114,660,o),
(128,654,o),
(133,643,cs),
(137,635,o),
(140,625,o),
(143,616,cs),
(144,611,o),
(139,599,o),
(134,597,cs),
(132,596,o),
(129,596,o),
(127,596,c),
(115,599,l),
(115,588,o),
(120,581,o),
(127,574,cs),
(157,539,l),
(158,539,o),
(158,538,o),
(159,537,cs),
(177,518,l),
(170,512,o),
(163,513,o),
(159,520,cs),
(154,528,o),
(146,534,o),
(138,539,cs),
(132,544,o),
(126,542,o),
(123,536,cs),
(120,528,ls),
(117,518,o),
(117,517,o),
(127,513,cs),
(129,512,o),
(130,510,o),
(131,508,cs),
(133,504,o),
(137,501,o),
(142,501,cs),
(157,501,o),
(170,490,o),
(174,475,cs),
(175,471,o),
(178,467,o),
(180,463,cs),
(184,457,o),
(189,452,o),
(193,446,c),
(197,443,l),
(204,441,o),
(209,437,o),
(213,431,cs),
(216,425,o),
(218,425,o),
(228,429,c),
(225,438,o),
(236,444,o),
(231,454,c),
(242,460,o),
(243,460,o),
(251,451,cs),
(253,449,o),
(255,446,o),
(257,445,c),
(268,436,o),
(273,425,o),
(276,412,cs),
(276,411,o),
(277,408,o),
(276,407,c),
(274,398,o),
(271,390,o),
(267,382,cs),
(265,377,o),
(265,372,o),
(269,368,cs),
(272,365,o),
(275,362,o),
(279,360,cs),
(285,357,o),
(291,353,o),
(295,347,cs),
(296,346,o),
(296,344,o),
(297,344,cs),
(305,342,o),
(310,336,o),
(316,331,c),
(320,326,o),
(327,329,o),
(328,335,c),
(328,351,l),
(326,363,o),
(329,367,o),
(342,368,cs),
(345,368,o),
(348,369,o),
(351,370,c),
(358,370,o),
(362,373,o),
(365,378,cs),
(370,387,o),
(372,388,o),
(377,386,cs),
(385,384,o),
(392,377,o),
(392,371,cs),
(392,357,l),
(383,360,o),
(377,357,o),
(374,349,cs),
(371,342,o),
(365,340,o),
(359,338,c),
(358,333,o),
(354,329,o),
(349,326,cs),
(340,320,o),
(338,312,o),
(341,301,cs),
(344,294,o),
(347,287,o),
(343,279,c),
(342,278,o),
(343,275,o),
(344,273,cs),
(347,264,o),
(351,256,o),
(355,247,c),
(359,241,o),
(356,232,o),
(349,229,c),
(347,229,o),
(343,230,o),
(342,231,cs),
(337,235,o),
(334,239,o),
(330,243,cs),
(327,246,o),
(323,249,o),
(321,252,cs),
(319,255,o),
(316,257,o),
(315,259,c),
(309,281,o),
(296,298,o),
(281,313,c),
(280,315,o),
(278,316,o),
(276,317,cs),
(262,323,o),
(251,333,o),
(240,342,cs),
(232,349,o),
(223,354,o),
(215,360,cs),
(212,362,o),
(210,363,o),
(210,367,cs),
(210,369,o),
(209,371,o),
(207,373,c),
(197,388,o),
(196,388,o),
(179,379,c),
(165,387,o),
(162,403,o),
(172,415,cs),
(178,422,l),
(180,423,o),
(182,423,o),
(185,423,c),
(199,415,ls),
(201,414,o),
(203,414,o),
(205,413,c),
(205,414,o),
(206,414,o),
(206,415,cs),
(205,418,o),
(203,422,o),
(201,425,cs),
(193,434,o),
(188,444,o),
(182,454,cs),
(179,459,o),
(174,463,o),
(169,466,cs),
(162,470,o),
(157,468,o),
(153,461,cs),
(148,453,o),
(144,444,o),
(137,437,c),
(134,435,o),
(134,431,o),
(133,427,cs),
(131,423,o),
(131,417,o),
(125,417,cs),
(119,417,o),
(114,419,o),
(111,425,c),
(111,427,l),
(112,429,o),
(113,431,o),
(115,433,cs),
(118,437,o),
(118,440,o),
(118,446,c),
(116,454,o),
(117,463,o),
(118,471,cs),
(118,476,o),
(120,480,o),
(121,484,c),
(126,489,o),
(134,483,o),
(139,489,c),
(138,494,o),
(134,497,o),
(130,500,cs),
(117,510,o),
(105,522,o),
(95,535,cs),
(93,537,o),
(91,538,o),
(89,540,c),
(77,557,ls),
(71,567,o),
(65,578,o),
(57,588,c),
(53,582,o),
(55,578,o),
(55,574,cs),
(56,568,o),
(54,563,o),
(49,559,cs),
(45,555,o),
(40,557,o),
(36,561,cs),
(29,569,o),
(31,579,o),
(28,588,cs),
(26,593,o),
(25,599,o),
(30,604,cs),
(33,606,o),
(32,610,o),
(29,612,c),
(27,615,o),
(25,617,o),
(24,621,c),
(25,621,o),
(26,620,o),
(27,620,cs),
(30,620,l),
(31,630,o),
(28,639,o),
(25,647,cs),
(21,658,o),
(28,668,o),
(40,667,cs),
(43,667,l),
(45,660,o),
(53,662,o),
(57,658,c),
(61,656,o),
(63,651,o),
(67,648,c),
(71,643,o),
(69,639,o),
(69,635,cs),
(69,630,o),
(71,624,o),
(71,619,cs),
(72,613,o),
(77,612,o),
(82,610,c),
(83,610,o),
(84,608,o),
(85,608,c)
);
}
);
width = 468;
},
{
hints = (
{
horizontal = 1;
place = (1087, -377);
place = (1087, -377);
type = Stem;
},
{
place = (-209, -323);
place = (-209, -323);
type = Stem;
},
{
place = (-251, -281);
place = (-251, -281);
type = Stem;
}
);
layerId = m003;
shapes = (
{
closed = 1;
nodes = (
(171,1357,o),
(153,1348,o),
(144,1336,c),
(129,1324,o),
(135,1312,o),
(150,1303,cs),
(156,1300,o),
(162,1297,o),
(168,1297,cs),
(186,1294,o),
(207,1291,o),
(228,1288,c),
(228,1303,l),
(222,1321,o),
(222,1339,o),
(225,1357,cs),
(228,1372,o),
(222,1387,o),
(210,1399,cs),
(201,1405,o),
(195,1414,o),
(189,1423,cs),
(180,1435,o),
(180,1444,o),
(189,1456,cs),
(195,1468,o),
(201,1480,o),
(210,1489,cs),
(216,1498,o),
(225,1507,o),
(237,1510,cs),
(270,1522,o),
(312,1504,o),
(327,1471,cs),
(339,1447,o),
(348,1417,o),
(357,1390,cs),
(360,1375,o),
(345,1339,o),
(330,1333,cs),
(324,1330,o),
(315,1330,o),
(309,1330,c),
(273,1339,l),
(273,1306,o),
(288,1285,o),
(309,1264,cs),
(399,1159,l),
(402,1159,o),
(402,1156,o),
(405,1153,cs),
(459,1096,l),
(438,1078,o),
(417,1081,o),
(405,1102,cs),
(390,1126,o),
(366,1144,o),
(342,1159,cs),
(324,1174,o),
(306,1168,o),
(297,1150,cs),
(288,1126,ls),
(279,1096,o),
(279,1093,o),
(309,1081,cs),
(315,1078,o),
(318,1072,o),
(321,1066,cs),
(327,1054,o),
(339,1045,o),
(354,1045,cs),
(399,1045,o),
(438,1012,o),
(450,967,cs),
(453,955,o),
(462,943,o),
(468,931,cs),
(480,913,o),
(495,898,o),
(507,880,c),
(519,871,l),
(540,865,o),
(555,853,o),
(567,835,cs),
(576,817,o),
(582,817,o),
(612,829,c),
(603,856,o),
(636,874,o),
(621,904,c),
(654,922,o),
(657,922,o),
(681,895,cs),
(687,889,o),
(693,880,o),
(699,877,c),
(732,850,o),
(747,817,o),
(756,778,cs),
(756,775,o),
(759,766,o),
(756,763,c),
(750,736,o),
(741,712,o),
(729,688,cs),
(723,673,o),
(723,658,o),
(735,646,cs),
(744,637,o),
(753,628,o),
(765,622,cs),
(783,613,o),
(801,601,o),
(813,583,cs),
(816,580,o),
(816,574,o),
(819,574,cs),
(843,568,o),
(858,550,o),
(876,535,c),
(888,520,o),
(909,529,o),
(912,547,c),
(912,595,l),
(906,631,o),
(915,643,o),
(954,646,cs),
(963,646,o),
(972,649,o),
(981,652,c),
(1002,652,o),
(1014,661,o),
(1023,676,cs),
(1038,703,o),
(1044,706,o),
(1059,700,cs),
(1083,694,o),
(1104,673,o),
(1104,655,cs),
(1104,613,l),
(1077,622,o),
(1059,613,o),
(1050,589,cs),
(1041,568,o),
(1023,562,o),
(1005,556,c),
(1002,541,o),
(990,529,o),
(975,520,cs),
(948,502,o),
(942,478,o),
(951,445,cs),
(960,424,o),
(969,403,o),
(957,379,c),
(954,376,o),
(957,367,o),
(960,361,cs),
(969,334,o),
(981,310,o),
(993,283,c),
(1005,265,o),
(996,238,o),
(975,229,c),
(969,229,o),
(957,232,o),
(954,235,cs),
(939,247,o),
(930,259,o),
(918,271,cs),
(909,280,o),
(897,289,o),
(891,298,cs),
(885,307,o),
(876,313,o),
(873,319,c),
(855,385,o),
(816,436,o),
(771,481,c),
(768,487,o),
(762,490,o),
(756,493,cs),
(714,511,o),
(681,541,o),
(648,568,cs),
(624,589,o),
(597,604,o),
(573,622,cs),
(564,628,o),
(558,631,o),
(558,643,cs),
(558,649,o),
(555,655,o),
(549,661,c),
(519,706,o),
(516,706,o),
(465,679,c),
(423,703,o),
(414,751,o),
(444,787,cs),
(462,808,l),
(468,811,o),
(474,811,o),
(483,811,c),
(525,787,ls),
(531,784,o),
(537,784,o),
(543,781,c),
(543,784,o),
(546,784,o),
(546,787,cs),
(543,796,o),
(537,808,o),
(531,817,cs),
(507,844,o),
(492,874,o),
(474,904,cs),
(465,919,o),
(450,931,o),
(435,940,cs),
(414,952,o),
(399,946,o),
(387,925,cs),
(372,901,o),
(360,874,o),
(339,853,c),
(330,847,o),
(330,835,o),
(327,823,cs),
(321,811,o),
(321,793,o),
(303,793,cs),
(285,793,o),
(270,799,o),
(261,817,c),
(261,823,l),
(264,829,o),
(267,835,o),
(273,841,cs),
(282,853,o),
(282,862,o),
(282,880,c),
(276,904,o),
(279,931,o),
(282,955,cs),
(282,970,o),
(288,982,o),
(291,994,c),
(306,1009,o),
(330,991,o),
(345,1009,c),
(342,1024,o),
(330,1033,o),
(318,1042,cs),
(279,1072,o),
(243,1108,o),
(213,1147,cs),
(207,1153,o),
(201,1156,o),
(195,1162,c),
(159,1213,ls),
(141,1243,o),
(123,1276,o),
(99,1306,c),
(87,1288,o),
(93,1276,o),
(93,1264,cs),
(96,1246,o),
(90,1231,o),
(75,1219,cs),
(63,1207,o),
(48,1213,o),
(36,1225,cs),
(15,1249,o),
(21,1279,o),
(12,1306,cs),
(6,1321,o),
(3,1339,o),
(18,1354,cs),
(27,1360,o),
(24,1372,o),
(15,1378,c),
(9,1387,o),
(3,1393,o),
(0,1405,c),
(3,1405,o),
(6,1402,o),
(9,1402,cs),
(18,1402,l),
(21,1432,o),
(12,1459,o),
(3,1483,cs),
(-9,1516,o),
(12,1546,o),
(48,1543,cs),
(57,1543,l),
(63,1522,o),
(87,1528,o),
(99,1516,c),
(111,1510,o),
(117,1495,o),
(129,1486,c),
(141,1471,o),
(135,1459,o),
(135,1447,cs),
(135,1432,o),
(141,1414,o),
(141,1399,cs),
(144,1381,o),
(159,1378,o),
(174,1372,c),
(177,1372,o),
(180,1366,o),
(183,1366,c)
);
}
);
width = 1004;
}
);
note = i;
unicode = 105;
},
{
glyphname = j;
lastChange = "2022-03-10 22:23:03 +0000";
layers = (
{
hints = (
{
horizontal = 1;
place = (22, 304);
place = (22, 304);
type = Stem;
},
{
place = (107, 179);
place = (107, 179);
type = Stem;
}
);
layerId = m01;
shapes = (
{
closed = 1;
nodes = (
(45,-228,l),
(33,-233,o),
(24,-227,o),
(15,-222,cs),
(6,-215,o),
(5,-203,o),
(12,-194,cs),
(24,-179,o),
(25,-156,o),
(14,-140,cs),
(13,-139,o),
(12,-137,o),
(11,-136,cs),
(-2,-119,o),
(-3,-102,o),
(6,-83,cs),
(11,-72,o),
(14,-61,o),
(19,-51,cs),
(23,-41,o),
(26,-32,o),
(39,-34,cs),
(42,-34,o),
(45,-33,o),
(47,-31,cs),
(58,-23,o),
(57,-23,o),
(70,-29,c),
(70,-40,o),
(70,-51,o),
(70,-62,cs),
(70,-68,o),
(65,-71,o),
(59,-72,cs),
(42,-78,o),
(40,-80,o),
(44,-97,cs),
(51,-125,o),
(60,-152,o),
(75,-177,cs),
(76,-178,o),
(78,-179,o),
(78,-181,c),
(79,-189,o),
(80,-198,o),
(81,-206,c),
(74,-207,o),
(67,-208,o),
(60,-209,cs),
(56,-209,o),
(53,-208,o),
(48,-208,c)
);
}
);
width = 81;
},
{
hints = (
{
horizontal = 1;
place = (-230, 616);
place = (-230, 616);
type = Stem;
},
{
place = (27, 241);
place = (27, 241);
type = Stem;
}
);
layerId = m002;
shapes = (
{
closed = 1;
nodes = (
(161,-225,l),
(126,-238,o),
(98,-222,o),
(72,-205,cs),
(44,-186,o),
(42,-150,o),
(63,-122,cs),
(98,-76,o),
(100,-8,o),
(68,40,cs),
(66,44,o),
(62,48,o),
(59,52,cs),
(21,102,o),
(18,154,o),
(44,211,cs),
(58,243,o),
(69,276,o),
(82,308,cs),
(94,336,o),
(105,365,o),
(144,359,cs),
(151,358,o),
(160,362,o),
(166,367,cs),
(199,391,o),
(198,392,o),
(236,373,c),
(236,340,o),
(237,307,o),
(236,275,cs),
(235,255,o),
(221,248,o),
(203,243,cs),
(151,227,o),
(146,221,o),
(158,169,cs),
(179,86,o),
(207,5,o),
(252,-70,cs),
(255,-74,o),
(260,-78,o),
(260,-82,c),
(264,-108,o),
(266,-133,o),
(268,-159,c),
(248,-161,o),
(227,-165,o),
(206,-166,cs),
(195,-167,o),
(184,-165,o),
(170,-163,c)
);
}
);
width = 341;
},
{
hints = (
{
horizontal = 1;
place = (-985, 1553);
place = (-985, 1553);
type = Stem;
},
{
place = (-214, 428);
place = (-214, 428);
type = Stem;
}
);
layerId = m003;
shapes = (
{
closed = 1;
nodes = (
(402,-215,l),
(297,-254,o),
(213,-206,o),
(135,-155,cs),
(51,-98,o),
(45,10,o),
(108,94,cs),
(213,232,o),
(219,436,o),
(123,580,cs),
(117,592,o),
(105,604,o),
(96,616,cs),
(-18,766,o),
(-27,922,o),
(51,1093,cs),
(93,1189,o),
(126,1288,o),
(165,1384,cs),
(201,1468,o),
(234,1555,o),
(351,1537,cs),
(372,1534,o),
(399,1546,o),
(417,1561,cs),
(516,1633,o),
(513,1636,o),
(627,1579,c),
(627,1480,o),
(630,1381,o),
(627,1285,cs),
(624,1225,o),
(582,1204,o),
(528,1189,cs),
(372,1141,o),
(357,1123,o),
(393,967,cs),
(456,718,o),
(540,475,o),
(675,250,cs),
(684,238,o),
(699,226,o),
(699,214,c),
(711,136,o),
(717,61,o),
(723,-17,c),
(663,-23,o),
(600,-35,o),
(537,-38,cs),
(504,-41,o),
(471,-35,o),
(429,-29,c)
);
}
);
width = 623;
}
);
note = j;
unicode = 106;
},
{
glyphname = k;
lastChange = "2022-03-10 22:23:03 +0000";
layers = (
{
hints = (
{
horizontal = 1;
place = (232, 496);
place = (232, 496);
type = Stem;
},
{
place = (251, 415);
place = (251, 415);
type = Stem;
}
);
layerId = m01;
shapes = (
{
closed = 1;
nodes = (
(88,32,o),
(75,27,o),
(64,16,cs),
(59,11,o),
(54,4,o),
(45,8,cs),
(35,12,o),
(27,19,o),
(26,31,cs),
(23,50,o),
(33,63,o),
(45,77,c),
(72,86,o),
(70,110,o),
(68,131,cs),
(67,147,o),
(64,164,o),
(50,177,cs),
(43,183,o),
(37,189,o),
(28,191,cs),
(16,193,o),
(6,199,o),
(2,212,cs),
(-3,227,o),
(2,237,o),
(17,251,cs),
(21,255,o),
(27,258,o),
(32,260,cs),
(44,265,o),
(56,269,o),
(68,273,cs),
(75,275,o),
(83,274,o),
(88,267,cs),
(93,261,o),
(91,256,o),
(87,249,cs),
(78,232,o),
(79,215,o),
(84,197,cs),
(86,188,o),
(92,182,o),
(103,181,cs),
(115,181,o),
(128,178,o),
(140,178,cs),
(149,178,o),
(154,175,o),
(158,167,cs),
(165,150,o),
(172,133,o),
(182,116,cs),
(190,102,o),
(184,92,o),
(175,82,cs),
(168,75,o),
(159,68,o),
(150,61,cs),
(146,58,o),
(140,56,o),
(136,57,cs),
(125,59,o),
(120,52,o),
(115,45,cs),
(112,39,o),
(109,34,o),
(105,27,c)
);
}
);
width = 186;
},
{
hints = (
{
horizontal = 1;
place = (7, 801);
place = (7, 801);
type = Stem;
},
{
place = (66, 556);
place = (66, 556);
type = Stem;
}
);
layerId = m002;
shapes = (
{
closed = 1;
nodes = (
(330,82,o),
(290,68,o),
(256,34,cs),
(242,19,o),
(227,-2,o),
(201,10,cs),
(171,24,o),
(147,44,o),
(142,79,cs),
(133,136,o),
(164,177,o),
(199,217,c),
(281,245,o),
(274,316,o),
(270,379,cs),
(266,429,o),
(256,480,o),
(214,518,cs),
(194,537,o),
(175,553,o),
(148,559,cs),
(113,567,o),
(84,583,o),
(71,622,cs),
(57,667,o),
(71,697,o),
(115,739,cs),
(128,751,o),
(145,761,o),
(161,768,cs),
(197,782,o),
(233,794,o),
(270,805,cs),
(291,811,o),
(313,808,o),
(328,789,cs),
(343,770,o),
(338,754,o),
(327,734,cs),
(300,684,o),
(303,631,o),
(317,579,cs),
(324,552,o),
(340,532,o),
(373,531,cs),
(411,529,o),
(448,522,o),
(486,521,cs),
(511,520,o),
(527,512,o),
(538,489,cs),
(561,438,o),
(581,385,o),
(610,336,cs),
(635,293,o),
(618,263,o),
(591,234,cs),
(568,211,o),
(541,190,o),
(515,171,cs),
(503,162,o),
(486,156,o),
(473,158,cs),
(440,164,o),
(425,144,o),
(411,121,cs),
(402,105,o),
(393,89,o),
(381,69,c)
);
}
);
width = 656;
},
{
hints = (
{
horizontal = 1;
place = (-667, 1715);
place = (-667, 1715);
type = Stem;
},
{
place = (-490, 980);
place = (-490, 980);
type = Stem;
}
);
layerId = m003;
shapes = (
{
closed = 1;
nodes = (
(793,233,o),
(673,191,o),
(571,89,cs),
(529,44,o),
(484,-19,o),
(406,17,cs),
(316,59,o),
(244,119,o),
(229,224,cs),
(202,395,o),
(295,518,o),
(400,638,c),
(646,722,o),
(625,935,o),
(613,1124,cs),
(601,1274,o),
(571,1427,o),
(445,1541,cs),
(385,1598,o),
(328,1646,o),
(247,1664,cs),
(142,1688,o),
(55,1736,o),
(16,1853,cs),
(-26,1988,o),
(16,2078,o),
(148,2204,cs),
(187,2240,o),
(238,2270,o),
(286,2291,cs),
(394,2333,o),
(502,2369,o),
(613,2402,cs),
(676,2420,o),
(742,2411,o),
(787,2354,cs),
(832,2297,o),
(817,2249,o),
(784,2189,cs),
(703,2039,o),
(712,1880,o),
(754,1724,cs),
(775,1643,o),
(823,1583,o),
(922,1580,cs),
(1036,1574,o),
(1147,1553,o),
(1261,1550,cs),
(1336,1547,o),
(1384,1523,o),
(1417,1454,cs),
(1486,1301,o),
(1546,1142,o),
(1633,995,cs),
(1708,866,o),
(1657,776,o),
(1576,689,cs),
(1507,620,o),
(1426,557,o),
(1348,500,cs),
(1312,473,o),
(1261,455,o),
(1222,461,cs),
(1123,479,o),
(1078,419,o),
(1036,350,cs),
(1009,302,o),
(982,254,o),
(946,194,c)
);
}
);
width = 1570;
}
);
note = k;
unicode = 107;
},
{
glyphname = l;
lastChange = "2022-03-10 22:23:03 +0000";
layers = (
{
hints = (
{
horizontal = 1;
place = (77, 172);
place = (77, 172);
type = Stem;
},
{
place = (77, 154);
place = (77, 154);
type = Stem;
}
);
layerId = m01;
shapes = (
{
closed = 1;
nodes = (
(1,49,o),
(3,66,o),
(19,76,cs),
(20,77,o),
(21,79,o),
(22,80,cs),
(27,89,o),
(32,97,o),
(43,94,cs),
(55,91,o),
(66,87,o),
(68,73,cs),
(71,56,o),
(74,39,o),
(77,22,cs),
(78,16,o),
(75,13,o),
(69,11,cs),
(64,10,o),
(59,9,o),
(55,6,cs),
(42,-4,o),
(28,-1,o),
(14,5,cs),
(3,9,o),
(-2,19,o),
(0,27,c)
);
}
);
width = 77;
},
{
hints = (
{
horizontal = 1;
place = (0, 286);
place = (0, 286);
type = Stem;
},
{
place = (0, 231);
place = (0, 231);
type = Stem;
}
);
layerId = m002;
shapes = (
{
closed = 1;
nodes = (
(4,148,o),
(8,198,o),
(56,230,cs),
(60,232,o),
(62,237,o),
(65,242,cs),
(80,267,o),
(96,292,o),
(130,284,cs),
(164,275,o),
(197,261,o),
(204,219,cs),
(212,169,o),
(222,118,o),
(231,68,cs),
(234,50,o),
(224,40,o),
(207,35,cs),
(193,31,o),
(178,27,o),
(166,19,cs),
(125,-10,o),
(83,-2,o),
(43,15,cs),
(9,29,o),
(-5,59,o),
(1,83,c)
);
}
);
width = 332;
},
{
hints = (
{
horizontal = 1;
place = (-231, 627);
place = (-231, 627);
type = Stem;
},
{
place = (-231, 462);
place = (-231, 462);
type = Stem;
}
);
layerId = m003;
shapes = (
{
closed = 1;
nodes = (
(13,445,o),
(25,595,o),
(169,691,cs),
(181,697,o),
(187,712,o),
(196,727,cs),
(241,802,o),
(289,877,o),
(391,853,cs),
(493,826,o),
(592,784,o),
(613,658,cs),
(637,508,o),
(667,355,o),
(694,205,cs),
(703,151,o),
(673,121,o),
(622,106,cs),
(580,94,o),
(535,82,o),
(499,58,cs),
(376,-29,o),
(250,-5,o),
(130,46,cs),
(28,88,o),
(-14,178,o),
(4,250,c)
);
}
);
width = 596;
}
);
note = l;
unicode = 108;
},
{
glyphname = m;
lastChange = "2022-03-10 22:23:03 +0000";
layers = (
{
hints = (
{
horizontal = 1;
place = (135, 333);
place = (135, 333);
type = Stem;
},
{
place = (229, 337);
place = (229, 337);
type = Stem;
}
);
layerId = m01;
shapes = (
{
closed = 1;
nodes = (
(70,-56,o),
(76,-61,o),
(84,-69,cs),
(93,-78,o),
(100,-88,o),
(103,-101,cs),
(106,-116,o),
(118,-124,o),
(127,-134,cs),
(142,-149,o),
(144,-166,o),
(130,-183,cs),
(126,-188,o),
(120,-190,o),
(114,-188,cs),
(107,-185,o),
(101,-187,o),
(93,-189,cs),
(83,-192,o),
(72,-192,o),
(61,-192,cs),
(51,-193,o),
(42,-192,o),
(33,-192,cs),
(25,-191,o),
(17,-192,o),
(10,-191,cs),
(0,-188,o),
(-2,-181,o),
(3,-173,c),
(6,-170,o),
(7,-166,o),
(10,-163,cs),
(17,-157,o),
(18,-151,o),
(18,-142,cs),
(17,-122,o),
(21,-102,o),
(23,-83,cs),
(24,-74,o),
(31,-72,o),
(38,-70,cs),
(45,-67,o),
(52,-63,o),
(60,-60,cs)
);
}
);
width = 139;
},
{
hints = (
{
horizontal = 1;
place = (-192, 402);
place = (-192, 402);
type = Stem;
},
{
place = (90, 416);
place = (90, 416);
type = Stem;
}
);
layerId = m002;
shapes = (
{
closed = 1;
nodes = (
(297,218,o),
(317,202,o),
(340,179,cs),
(368,150,o),
(389,121,o),
(397,82,cs),
(406,38,o),
(441,12,o),
(469,-17,cs),
(513,-63,o),
(519,-113,o),
(479,-164,cs),
(466,-180,o),
(449,-184,o),
(430,-178,cs),
(408,-170,o),
(390,-177,o),
(368,-183,cs),
(337,-192,o),
(303,-191,o),
(270,-192,cs),
(242,-193,o),
(215,-191,o),
(187,-190,cs),
(163,-189,o),
(140,-192,o),
(117,-187,cs),
(89,-180,o),
(83,-159,o),
(98,-133,c),
(105,-124,o),
(110,-113,o),
(119,-105,cs),
(139,-87,o),
(141,-68,o),
(141,-40,cs),
(140,19,o),
(150,78,o),
(156,137,cs),
(159,164,o),
(182,168,o),
(202,176,cs),
(224,185,o),
(245,196,o),
(267,206,cs)
);
}
);
width = 516;
},
{
hints = (
{
horizontal = 1;
place = (-1172, 610);
place = (-1172, 610);
type = Stem;
},
{
place = (-326, 652);
place = (-326, 652);
type = Stem;
}
);
layerId = m003;
shapes = (
{
closed = 1;
nodes = (
(621,1039,o),
(681,991,o),
(750,922,cs),
(834,835,o),
(897,748,o),
(921,631,cs),
(948,499,o),
(1053,421,o),
(1137,334,cs),
(1269,196,o),
(1287,46,o),
(1167,-107,cs),
(1128,-155,o),
(1077,-167,o),
(1020,-149,cs),
(954,-125,o),
(900,-146,o),
(834,-164,cs),
(741,-191,o),
(639,-188,o),
(540,-191,cs),
(456,-194,o),
(375,-188,o),
(291,-185,cs),
(219,-182,o),
(150,-191,o),
(81,-176,cs),
(-3,-155,o),
(-21,-92,o),
(24,-14,c),
(45,13,o),
(60,46,o),
(87,70,cs),
(147,124,o),
(153,181,o),
(153,265,cs),
(150,442,o),
(180,619,o),
(198,796,cs),
(207,877,o),
(276,889,o),
(336,913,cs),
(402,940,o),
(465,973,o),
(531,1003,cs)
);
}
);
width = 1147;
}
);
note = m;
unicode = 109;
},
{
glyphname = n;
lastChange = "2022-03-10 22:23:03 +0000";
layers = (
{
hints = (
{
horizontal = 1;
place = (155, 221);
place = (155, 221);
type = Stem;
},
{
place = (79, 136);
place = (79, 136);
type = Stem;
}
);
layerId = m01;
shapes = (
{
closed = 1;
nodes = (
(16,252,o),
(15,259,o),
(12,265,cs),
(5,278,o),
(-2,292,o),
(0,308,cs),
(0,318,o),
(1,320,o),
(12,320,cs),
(24,321,o),
(25,321,o),
(27,333,cs),
(29,343,o),
(30,354,o),
(32,364,cs),
(33,369,o),
(34,375,o),
(36,380,cs),
(38,386,o),
(42,394,o),
(49,392,cs),
(54,390,o),
(60,383,o),
(61,378,cs),
(63,369,o),
(61,359,o),
(59,350,cs),
(57,343,o),
(56,336,o),
(59,329,cs),
(67,310,o),
(63,295,o),
(44,284,cs),
(40,282,o),
(36,276,o),
(36,272,cs),
(36,258,o),
(28,251,o),
(18,245,c)
);
}
);
width = 63;
},
{
hints = (
{
horizontal = 1;
place = (245, 442);
place = (245, 442);
type = Stem;
},
{
place = (16, 188);
place = (16, 188);
type = Stem;
}
);
layerId = m002;
shapes = (
{
closed = 1;
nodes = (
(65,265,o),
(62,287,o),
(52,305,cs),
(31,345,o),
(12,385,o),
(16,433,cs),
(18,465,o),
(21,470,o),
(53,471,cs),
(90,472,o),
(92,473,o),
(99,508,cs),
(104,539,o),
(107,571,o),
(113,602,cs),
(115,618,o),
(119,635,o),
(125,650,cs),
(132,668,o),
(143,693,o),
(165,686,cs),
(180,681,o),
(198,660,o),
(201,643,cs),
(205,617,o),
(201,587,o),
(194,560,cs),
(188,539,o),
(184,519,o),
(193,498,cs),
(217,440,o),
(205,395,o),
(150,362,cs),
(138,355,o),
(126,339,o),
(126,327,cs),
(126,285,o),
(101,264,o),
(70,245,c)
);
}
);
width = 290;
},
{
hints = (
{
horizontal = 1;
place = (515, 1106);
place = (515, 1106);
type = Stem;
},
{
place = (-172, 344);
place = (-172, 344);
type = Stem;
}
);
layerId = m003;
shapes = (
{
closed = 1;
nodes = (
(149,305,o),
(140,371,o),
(110,425,cs),
(47,545,o),
(-10,665,o),
(2,809,cs),
(8,905,o),
(17,920,o),
(113,923,cs),
(224,926,o),
(230,929,o),
(251,1034,cs),
(266,1127,o),
(275,1223,o),
(293,1316,cs),
(299,1364,o),
(311,1415,o),
(329,1460,cs),
(350,1514,o),
(383,1589,o),
(449,1568,cs),
(494,1553,o),
(548,1490,o),
(557,1439,cs),
(569,1361,o),
(557,1271,o),
(536,1190,cs),
(518,1127,o),
(506,1067,o),
(533,1004,cs),
(605,830,o),
(569,695,o),
(404,596,cs),
(368,575,o),
(332,527,o),
(332,491,cs),
(332,365,o),
(257,302,o),
(164,245,c)
);
}
);
width = 468;
}
);
note = n;
unicode = 110;
},
{
glyphname = o;
lastChange = "2022-03-10 22:23:03 +0000";
layers = (
{
hints = (
{
horizontal = 1;
place = (11, 263);
place = (11, 263);
type = Stem;
},
{
place = (69, 156);
place = (69, 156);
type = Stem;
}
);
layerId = m01;
shapes = (
{
closed = 1;
nodes = (
(8,-71,o),
(5,-48,o),
(22,-31,cs),
(25,-28,o),
(27,-22,o),
(26,-18,cs),
(24,-9,o),
(29,-5,o),
(36,-1,cs),
(42,4,o),
(48,2,o),
(54,-1,cs),
(67,-9,o),
(68,-12,o),
(66,-27,cs),
(65,-39,o),
(64,-51,o),
(63,-63,cs),
(62,-75,o),
(64,-86,o),
(70,-96,cs),
(74,-103,o),
(77,-110,o),
(73,-118,cs),
(71,-123,o),
(75,-131,o),
(77,-137,cs),
(78,-142,o),
(81,-146,o),
(82,-151,cs),
(84,-162,o),
(83,-167,o),
(72,-172,cs),
(65,-175,o),
(60,-180,o),
(54,-184,cs),
(42,-190,o),
(35,-188,o),
(29,-176,cs),
(25,-167,o),
(22,-158,o),
(19,-148,cs),
(15,-138,o),
(11,-129,o),
(8,-119,cs),
(5,-110,o),
(3,-101,o),
(0,-92,c)
);
}
);
width = 83;
},
{
hints = (
{
horizontal = 1;
place = (-187, 567);
place = (-187, 567);
type = Stem;
},
{
place = (-14, 248);
place = (-14, 248);
type = Stem;
}
);
layerId = m002;
shapes = (
{
closed = 1;
nodes = (
(9,160,o),
(1,230,o),
(53,280,cs),
(61,289,o),
(67,307,o),
(64,320,cs),
(59,347,o),
(74,359,o),
(93,372,cs),
(113,385,o),
(129,381,o),
(148,370,cs),
(186,347,o),
(191,338,o),
(185,293,cs),
(181,257,o),
(179,221,o),
(175,184,cs),
(171,149,o),
(178,116,o),
(197,85,cs),
(208,66,o),
(216,45,o),
(204,19,cs),
(198,5,o),
(210,-18,o),
(216,-37,cs),
(220,-51,o),
(228,-64,o),
(231,-78,cs),
(239,-113,o),
(235,-128,o),
(202,-142,cs),
(182,-150,o),
(167,-167,o),
(148,-177,cs),
(113,-195,o),
(91,-189,o),
(74,-154,cs),
(61,-127,o),
(52,-99,o),
(42,-71,cs),
(31,-41,o),
(19,-12,o),
(10,17,cs),
(1,44,o),
(-6,72,o),
(-14,99,c)
);
}
);
width = 349;
},
{
hints = (
{
horizontal = 1;
place = (-782, 1480);
place = (-782, 1480);
type = Stem;
},
{
place = (-263, 523);
place = (-263, 523);
type = Stem;
}
);
layerId = m003;
shapes = (
{
closed = 1;
nodes = (
(69,854,o),
(45,1064,o),
(201,1214,cs),
(225,1241,o),
(243,1295,o),
(234,1334,cs),
(219,1415,o),
(264,1451,o),
(321,1490,cs),
(381,1529,o),
(429,1517,o),
(486,1484,cs),
(600,1415,o),
(615,1388,o),
(597,1253,cs),
(585,1145,o),
(579,1037,o),
(567,926,cs),
(555,821,o),
(576,722,o),
(633,629,cs),
(666,572,o),
(690,509,o),
(654,431,cs),
(636,389,o),
(672,320,o),
(690,263,cs),
(702,221,o),
(726,182,o),
(735,140,cs),
(759,35,o),
(747,-10,o),
(648,-52,cs),
(588,-76,o),
(543,-127,o),
(486,-157,cs),
(381,-211,o),
(315,-193,o),
(264,-88,cs),
(225,-7,o),
(198,77,o),
(168,161,cs),
(135,251,o),
(99,338,o),
(72,425,cs),
(45,506,o),
(24,590,o),
(0,671,c)
);
}
);
width = 646;
}
);
note = o;
unicode = 111;
},
{
glyphname = p;
lastChange = "2022-03-10 22:23:03 +0000";
layers = (
{
hints = (
{
horizontal = 1;
place = (257, 220);
place = (257, 220);
type = Stem;
},
{
place = (106, 212);
place = (106, 212);
type = Stem;
}
);
layerId = m01;
shapes = (
{
closed = 1;
nodes = (
(59,529,o),
(64,532,o),
(69,534,cs),
(81,541,o),
(90,540,o),
(96,529,cs),
(106,510,o),
(109,490,o),
(100,470,cs),
(93,453,o),
(73,449,o),
(60,462,cs),
(49,474,o),
(38,486,o),
(28,499,cs),
(24,504,o),
(22,511,o),
(23,516,cs),
(26,526,o),
(22,531,o),
(14,536,cs),
(6,542,o),
(-1,549,o),
(0,561,cs),
(0,568,o),
(4,571,o),
(11,568,cs),
(31,560,o),
(45,546,o),
(53,525,c)
);
}
);
width = 105;
},
{
hints = (
{
horizontal = 1;
place = (454, 344);
place = (454, 344);
type = Stem;
},
{
place = (0, 318);
place = (0, 318);
type = Stem;
}
);
layerId = m002;
shapes = (
{
closed = 1;
nodes = (
(178,677,o),
(192,686,o),
(207,694,cs),
(243,713,o),
(270,710,o),
(288,677,cs),
(319,621,o),
(329,560,o),
(302,500,cs),
(280,450,o),
(221,439,o),
(182,477,cs),
(147,512,o),
(115,550,o),
(84,589,cs),
(74,602,o),
(68,624,o),
(71,640,cs),
(78,670,o),
(67,684,o),
(43,700,cs),
(18,716,o),
(-3,739,o),
(0,774,cs),
(2,795,o),
(14,803,o),
(34,795,cs),
(93,771,o),
(135,730,o),
(159,666,c)
);
}
);
width = 418;
},
{
hints = (
{
horizontal = 1;
place = (1045, 715);
place = (1045, 715);
type = Stem;
},
{
place = (-317, 637);
place = (-317, 637);
type = Stem;
}
);
layerId = m003;
shapes = (
{
closed = 1;
nodes = (
(535,1122,o),
(577,1149,o),
(622,1173,cs),
(730,1230,o),
(811,1221,o),
(865,1122,cs),
(958,954,o),
(988,771,o),
(907,591,cs),
(841,441,o),
(664,408,o),
(547,522,cs),
(442,627,o),
(346,741,o),
(253,858,cs),
(223,897,o),
(205,963,o),
(214,1011,cs),
(235,1101,o),
(202,1143,o),
(130,1191,cs),
(55,1239,o),
(-8,1308,o),
(1,1413,cs),
(7,1476,o),
(43,1500,o),
(103,1476,cs),
(280,1404,o),
(406,1281,o),
(478,1089,c)
);
}
);
width = 854;
}
);
note = p;
unicode = 112;
},
{
glyphname = q;
lastChange = "2022-03-10 22:23:03 +0000";
layers = (
{
hints = (
{
horizontal = 1;
place = (-1, 170);
place = (-1, 170);
type = Stem;
},
{
place = (50, 167);
place = (50, 167);
type = Stem;
}
);
layerId = m01;
shapes = (
{
closed = 1;
nodes = (
(14,-192,o),
(15,-193,o),
(17,-194,cs),
(22,-195,o),
(23,-199,o),
(19,-202,cs),
(18,-204,o),
(12,-203,o),
(11,-201,cs),
(7,-196,o),
(3,-190,o),
(2,-184,cs),
(0,-175,o),
(1,-166,o),
(0,-155,c),
(13,-154,o),
(19,-148,o),
(23,-138,cs),
(27,-128,o),
(34,-119,o),
(45,-114,cs),
(47,-112,o),
(49,-111,o),
(51,-109,c),
(67,-96,o),
(67,-96,o),
(76,-115,cs),
(79,-121,o),
(83,-127,o),
(87,-131,cs),
(99,-140,o),
(101,-152,o),
(101,-165,c),
(92,-168,o),
(85,-171,o),
(77,-173,cs),
(74,-174,o),
(70,-175,o),
(67,-175,cs),
(51,-171,o),
(35,-168,o),
(17,-163,c),
(16,-172,o),
(14,-182,o),
(13,-191,c)
);
}
);
width = 101;
},
{
hints = (
{
horizontal = 1;
place = (-203, 309);
place = (-203, 309);
type = Stem;
},
{
place = (-50, 301);
place = (-50, 301);
type = Stem;
}
);
layerId = m002;
shapes = (
{
closed = 1;
nodes = (
(-9,-170,o),
(-5,-173,o),
(0,-175,cs),
(15,-180,o),
(18,-191,o),
(6,-201,cs),
(2,-205,o),
(-15,-203,o),
(-19,-198,cs),
(-30,-182,o),
(-41,-165,o),
(-45,-146,cs),
(-50,-119,o),
(-48,-91,o),
(-50,-60,c),
(-13,-56,o),
(6,-39,o),
(18,-7,cs),
(30,23,o),
(51,50,o),
(83,65,cs),
(91,69,o),
(97,74,o),
(103,80,c),
(150,118,o),
(151,117,o),
(178,60,cs),
(186,42,o),
(197,24,o),
(211,12,cs),
(245,-15,o),
(252,-49,o),
(251,-88,c),
(225,-97,o),
(203,-106,o),
(180,-114,cs),
(171,-117,o),
(160,-120,o),
(151,-118,cs),
(103,-108,o),
(54,-97,o),
(-1,-84,c),
(-4,-111,o),
(-8,-139,o),
(-11,-168,c)
);
}
);
width = 401;
},
{
hints = (
{
horizontal = 1;
place = (-810, 726);
place = (-810, 726);
type = Stem;
},
{
place = (-351, 702);
place = (-351, 702);
type = Stem;
}
);
layerId = m003;
shapes = (
{
closed = 1;
nodes = (
(123,-104,o),
(135,-113,o),
(150,-119,cs),
(195,-134,o),
(204,-167,o),
(168,-197,cs),
(156,-209,o),
(105,-203,o),
(93,-188,cs),
(60,-140,o),
(27,-89,o),
(15,-32,cs),
(0,49,o),
(6,133,o),
(0,226,c),
(111,238,o),
(168,289,o),
(204,385,cs),
(240,475,o),
(303,556,o),
(399,601,cs),
(423,613,o),
(441,628,o),
(459,646,c),
(600,760,o),
(603,757,o),
(684,586,cs),
(708,532,o),
(741,478,o),
(783,442,cs),
(885,361,o),
(906,259,o),
(903,142,c),
(825,115,o),
(759,88,o),
(690,64,cs),
(663,55,o),
(630,46,o),
(603,52,cs),
(459,82,o),
(312,115,o),
(147,154,c),
(138,73,o),
(126,-11,o),
(117,-98,c)
);
}
);
width = 803;
}
);
note = q;
unicode = 113;
},
{
glyphname = r;
lastChange = "2022-03-10 22:23:03 +0000";
layers = (
{
hints = (
{
horizontal = 1;
place = (297, 310);
place = (297, 310);
type = Stem;
},
{
place = (210, 286);
place = (210, 286);
type = Stem;
}
);
layerId = m01;
shapes = (
{
closed = 1;
nodes = (
(79,363,o),
(66,363,o),
(54,370,cs),
(44,375,o),
(39,383,o),
(37,393,cs),
(32,416,o),
(22,436,o),
(8,454,cs),
(4,459,o),
(1,465,o),
(0,471,cs),
(-3,487,o),
(8,497,o),
(24,494,cs),
(39,490,o),
(51,483,o),
(57,467,cs),
(64,449,o),
(73,432,o),
(82,415,cs),
(85,410,o),
(90,405,o),
(94,401,cs),
(102,395,o),
(106,387,o),
(108,377,cs),
(110,363,o),
(108,360,o),
(91,361,c)
);
}
);
width = 109;
},
{
hints = (
{
horizontal = 1;
place = (361, 401);
place = (361, 401);
type = Stem;
},
{
place = (101, 328);
place = (101, 328);
type = Stem;
}
);
layerId = m002;
shapes = (
{
closed = 1;
nodes = (
(341,368,o),
(302,368,o),
(266,388,cs),
(236,405,o),
(221,429,o),
(214,457,cs),
(198,526,o),
(170,588,o),
(126,642,cs),
(115,656,o),
(107,674,o),
(103,691,cs),
(93,739,o),
(128,771,o),
(176,760,cs),
(221,749,o),
(256,728,o),
(275,680,cs),
(296,626,o),
(323,575,o),
(350,524,cs),
(358,508,o),
(372,495,o),
(386,483,cs),
(409,464,o),
(421,440,o),
(426,411,cs),
(434,368,o),
(426,358,o),
(376,361,c)
);
}
);
width = 428;
},
{
hints = (
{
horizontal = 1;
place = (553, 673);
place = (553, 673);
type = Stem;
},
{
place = (-227, 454);
place = (-227, 454);
type = Stem;
}
);
layerId = m003;
shapes = (
{
closed = 1;
nodes = (
(719,383,o),
(602,383,o),
(494,443,cs),
(404,494,o),
(359,566,o),
(338,650,cs),
(290,857,o),
(206,1043,o),
(74,1205,cs),
(41,1247,o),
(17,1301,o),
(5,1352,cs),
(-25,1496,o),
(80,1592,o),
(224,1559,cs),
(359,1526,o),
(464,1463,o),
(521,1319,cs),
(584,1157,o),
(665,1004,o),
(746,851,cs),
(770,803,o),
(812,764,o),
(854,728,cs),
(923,671,o),
(959,599,o),
(974,512,cs),
(998,383,o),
(974,353,o),
(824,362,c)
);
}
);
width = 882;
}
);
note = r;
unicode = 114;
},
{
glyphname = s;
lastChange = "2022-03-10 22:23:03 +0000";
layers = (
{
hints = (
{
horizontal = 1;
place = (97, 211);
place = (97, 211);
type = Stem;
},
{
place = (237, 138);
place = (237, 138);
type = Stem;
}
);
layerId = m01;
shapes = (
{
closed = 1;
nodes = (
(132,-104,o),
(124,-111,o),
(115,-108,cs),
(110,-106,o),
(106,-103,o),
(102,-100,cs),
(92,-94,o),
(83,-88,o),
(72,-88,cs),
(69,-88,o),
(67,-87,o),
(65,-86,cs),
(55,-79,o),
(45,-78,o),
(35,-87,c),
(34,-89,o),
(31,-90,o),
(29,-89,cs),
(18,-85,o),
(5,-80,o),
(0,-67,cs),
(-1,-63,o),
(1,-55,o),
(3,-52,cs),
(6,-49,o),
(13,-48,o),
(16,-49,cs),
(26,-54,o),
(37,-50,o),
(46,-58,cs),
(51,-62,o),
(56,-56,o),
(60,-52,cs),
(65,-46,o),
(70,-39,o),
(77,-34,cs),
(89,-26,o),
(102,-31,o),
(108,-44,cs),
(109,-45,l),
(104,-45,l),
(104,-46,l),
(109,-46,l),
(109,-45,l),
(115,-57,o),
(121,-67,o),
(127,-79,cs),
(129,-84,o),
(131,-89,o),
(132,-92,c)
);
}
);
width = 132;
},
{
hints = (
{
horizontal = 1;
place = (-108, 234);
place = (-108, 234);
type = Stem;
},
{
place = (313, 15);
place = (313, 15);
type = Stem;
}
);
layerId = m002;
shapes = (
{
closed = 1;
nodes = (
(398,-96,o),
(374,-116,o),
(345,-106,cs),
(331,-101,o),
(318,-92,o),
(306,-84,cs),
(278,-66,o),
(251,-46,o),
(216,-47,cs),
(209,-47,o),
(202,-44,o),
(197,-41,cs),
(166,-20,o),
(136,-16,o),
(107,-45,c),
(104,-49,o),
(94,-53,o),
(89,-51,cs),
(54,-37,o),
(17,-22,o),
(2,17,cs),
(-3,29,o),
(3,51,o),
(11,61,cs),
(18,69,o),
(39,73,o),
(50,69,cs),
(79,56,o),
(112,66,o),
(139,43,cs),
(154,31,o),
(169,50,o),
(180,62,cs),
(197,80,o),
(212,101,o),
(232,114,cs),
(267,139,o),
(307,124,o),
(326,85,cs),
(328,81,l),
(313,81,l),
(313,79,l),
(328,79,l),
(328,81,l),
(345,46,o),
(364,15,o),
(381,-19,cs),
(388,-34,o),
(394,-49,o),
(398,-58,c)
);
}
);
width = 498;
},
{
hints = (
{
horizontal = 1;
place = (-722, 304);
place = (-722, 304);
type = Stem;
},
{
place = (541, -353);
place = (541, -353);
type = Stem;
}
);
layerId = m003;
shapes = (
{
closed = 1;
nodes = (
(1193,-71,o),
(1121,-131,o),
(1034,-101,cs),
(992,-86,o),
(953,-59,o),
(917,-35,cs),
(833,19,o),
(752,79,o),
(647,76,cs),
(626,76,o),
(605,85,o),
(590,94,cs),
(497,157,o),
(407,169,o),
(320,82,c),
(311,70,o),
(281,58,o),
(266,64,cs),
(161,106,o),
(50,151,o),
(5,268,cs),
(-10,304,o),
(8,370,o),
(32,400,cs),
(53,424,o),
(116,436,o),
(149,424,cs),
(236,385,o),
(335,415,o),
(416,346,cs),
(461,310,o),
(506,367,o),
(539,403,cs),
(590,457,o),
(635,520,o),
(695,559,cs),
(800,634,o),
(920,589,o),
(977,472,cs),
(983,460,l),
(938,460,l),
(938,454,l),
(983,454,l),
(983,460,l),
(1034,355,o),
(1091,262,o),
(1142,160,cs),
(1163,115,o),
(1181,70,o),
(1193,43,c)
);
}
);
width = 1093;
}
);
note = s;
unicode = 115;
},
{
glyphname = t;
lastChange = "2022-03-10 22:23:03 +0000";
layers = (
{
hints = (
{
horizontal = 1;
place = (147, 324);
place = (147, 324);
type = Stem;
},
{
place = (147, 295);
place = (147, 295);
type = Stem;
}
);
layerId = m01;
shapes = (
{
closed = 1;
nodes = (
(2,153,l),
(23,145,o),
(36,161,o),
(51,170,cs),
(67,179,o),
(76,180,o),
(88,165,cs),
(102,150,o),
(113,133,o),
(117,112,cs),
(121,91,o),
(130,72,o),
(141,54,cs),
(150,39,o),
(150,25,o),
(141,10,cs),
(140,8,o),
(139,5,o),
(137,1,c),
(128,1,o),
(119,0,o),
(110,0,cs),
(96,1,o),
(87,8,o),
(84,22,cs),
(80,36,o),
(76,49,o),
(63,58,cs),
(57,61,o),
(54,68,o),
(51,74,cs),
(44,88,o),
(38,102,o),
(32,116,cs),
(29,121,o),
(26,125,o),
(22,129,cs),
(15,136,o),
(8,143,o),
(0,149,c)
);
}
);
width = 148;
},
{
hints = (
{
horizontal = 1;
place = (0, 530);
place = (0, 530);
type = Stem;
},
{
place = (0, 442);
place = (0, 442);
type = Stem;
}
);
layerId = m002;
shapes = (
{
closed = 1;
nodes = (
(4,460,l),
(68,436,o),
(107,483,o),
(152,510,cs),
(201,538,o),
(227,541,o),
(264,496,cs),
(304,449,o),
(339,399,o),
(350,335,cs),
(361,273,o),
(388,216,o),
(421,162,cs),
(448,117,o),
(449,74,o),
(423,30,cs),
(418,23,o),
(416,15,o),
(411,3,c),
(384,2,o),
(356,-1,o),
(328,0,cs),
(286,2,o),
(260,25,o),
(250,65,cs),
(239,108,o),
(227,147,o),
(187,174,cs),
(171,184,o),
(161,204,o),
(152,222,cs),
(132,263,o),
(114,307,o),
(94,348,cs),
(87,363,o),
(77,376,o),
(65,388,cs),
(44,409,o),
(22,428,o),
(0,448,c)
);
}
);
width = 542;
},
{
hints = (
{
horizontal = 1;
place = (-442, 1148);
place = (-442, 1148);
type = Stem;
},
{
place = (-442, 884);
place = (-442, 884);
type = Stem;
}
);
layerId = m003;
shapes = (
{
closed = 1;
nodes = (
(12,1380,l),
(204,1308,o),
(321,1449,o),
(456,1530,cs),
(603,1614,o),
(681,1623,o),
(792,1488,cs),
(912,1347,o),
(1017,1197,o),
(1050,1005,cs),
(1083,819,o),
(1164,648,o),
(1263,486,cs),
(1344,351,o),
(1347,222,o),
(1269,90,cs),
(1254,69,o),
(1248,45,o),
(1233,9,c),
(1152,6,o),
(1068,-3,o),
(984,0,cs),
(858,6,o),
(780,75,o),
(750,195,cs),
(717,324,o),
(681,441,o),
(561,522,cs),
(513,552,o),
(483,612,o),
(456,666,cs),
(396,789,o),
(342,921,o),
(282,1044,cs),
(261,1089,o),
(231,1128,o),
(195,1164,cs),
(132,1227,o),
(66,1284,o),
(0,1344,c)
);
}
);
width = 1226;
}
);
note = t;
unicode = 116;
},
{
glyphname = u;
lastChange = "2022-03-10 22:23:03 +0000";
layers = (
{
hints = (
{
horizontal = 1;
place = (297, 160);
place = (297, 160);
type = Stem;
},
{
horizontal = 1;
place = (331, 160);
place = (331, 160);
type = Stem;
},
{
place = (157, 314);
place = (157, 314);
type = Stem;
},
{
horizontal = 1;
place = (331, 160);
place = (331, 160);
type = Stem;
}
);
layerId = m01;
shapes = (
{
closed = 1;
nodes = (
(101,203,o),
(104,199,o),
(107,194,cs),
(113,182,o),
(121,172,o),
(130,162,cs),
(142,149,o),
(150,133,o),
(157,116,c),
(154,114,l),
(151,115,o),
(148,116,o),
(146,118,cs),
(143,121,o),
(141,125,o),
(139,129,cs),
(130,149,o),
(117,167,o),
(102,182,cs),
(96,188,o),
(94,195,o),
(94,204,c)
);
},
{
closed = 1;
nodes = (
(0,316,l),
(3,310,ls),
(9,298,o),
(15,286,o),
(22,274,cs),
(27,266,o),
(34,260,o),
(40,253,c),
(38,253,o),
(37,253,o),
(36,254,cs),
(25,263,o),
(9,289,o),
(3,310,cs),
(3,311,o),
(3,312,o),
(2,313,cs),
(2,314,l),
(17,292,o),
(30,273,o),
(44,252,c),
(41,253,l),
(35,260,o),
(28,267,o),
(23,275,cs),
(15,287,o),
(9,300,o),
(2,313,cs),
(1,316,l)
);
},
{
closed = 1;
nodes = (
(40,253,l),
(43,249,l),
(44,250,l),
(43,251,o),
(42,252,o),
(41,253,c)
);
},
{
closed = 1;
nodes = (
(68,241,o),
(71,237,o),
(66,221,c),
(64,228,l),
(63,228,l),
(64,225,o),
(65,222,o),
(66,219,c),
(58,225,o),
(53,231,o),
(53,242,c)
);
},
{
closed = 1;
nodes = (
(66,219,l),
(67,216,l),
(67,216,l),
(67,217,o),
(66,219,o),
(66,221,c)
);
},
{
closed = 1;
nodes = (
(82,213,o),
(85,216,o),
(85,216,cs),
(87,215,o),
(89,214,o),
(93,212,c),
(90,210,o),
(88,208,o),
(87,209,cs),
(85,209,o),
(84,211,o),
(83,212,cs)
);
},
{
closed = 1;
nodes = (
(100,194,l),
(106,182,o),
(114,171,o),
(125,162,c),
(126,163,l),
(115,172,o),
(107,183,o),
(101,194,c)
);
}
);
width = 157;
},
{
hints = (
{
horizontal = 1;
place = (420, 10);
place = (420, 10);
type = Stem;
},
{
horizontal = 1;
place = (521, 9);
place = (521, 9);
type = Stem;
},
{
place = (0, 471);
place = (0, 471);
type = Stem;
},
{
horizontal = 1;
place = (521, 8.5);
place = (521, 8.5);
type = Stem;
}
);
layerId = m002;
shapes = (
{
closed = 1;
nodes = (
(302,381,o),
(313,370,o),
(320,354,cs),
(338,318,o),
(363,289,o),
(390,259,cs),
(427,220,o),
(451,171,o),
(471,121,c),
(461,114,l),
(454,118,o),
(444,120,o),
(439,126,cs),
(430,136,o),
(423,148,o),
(417,160,cs),
(390,220,o),
(352,272,o),
(306,318,cs),
(288,336,o),
(281,356,o),
(281,383,c)
);
},
{
closed = 1;
nodes = (
(0,720,l),
(10,701,ls),
(28,665,o),
(45,629,o),
(66,594,cs),
(80,571,o),
(101,551,o),
(120,530,c),
(115,531,o),
(110,531,o),
(108,533,cs),
(75,560,o),
(28,639,o),
(10,701,cs),
(9,704,o),
(8,707,o),
(7,710,cs),
(6,715,l),
(50,649,o),
(89,592,o),
(131,529,c),
(124,530,l),
(104,552,o),
(83,572,o),
(68,596,cs),
(45,632,o),
(27,671,o),
(7,710,cs),
(2,720,l)
);
},
{
closed = 1;
nodes = (
(120,530,l),
(130,519,l),
(132,521,l),
(129,524,o),
(127,527,o),
(124,530,c)
);
},
{
closed = 1;
nodes = (
(205,494,o),
(212,484,o),
(198,434,c),
(192,455,l),
(190,455,l),
(192,447,o),
(195,438,o),
(197,430,c),
(175,447,o),
(160,466,o),
(158,498,c)
);
},
{
closed = 1;
nodes = (
(197,430,l),
(200,420,l),
(202,420,l),
(201,424,o),
(199,429,o),
(198,434,c)
);
},
{
closed = 1;
nodes = (
(247,410,o),
(254,419,o),
(256,419,cs),
(261,418,o),
(266,414,o),
(278,407,c),
(269,402,o),
(264,397,o),
(261,398,cs),
(256,400,o),
(251,405,o),
(248,409,cs)
);
},
{
closed = 1;
nodes = (
(300,355,l),
(319,318,o),
(343,285,o),
(375,259,c),
(377,261,l),
(345,287,o),
(321,320,o),
(302,355,c)
);
}
);
width = 571;
},
{
hints = (
{
horizontal = 1;
place = (789, -441);
place = (789, -441);
type = Stem;
},
{
horizontal = 1;
place = (1092, -444);
place = (1092, -444);
type = Stem;
},
{
place = (-471, 942);
place = (-471, 942);
type = Stem;
},
{
horizontal = 1;
place = (1092, -446);
place = (1092, -446);
type = Stem;
}
);
layerId = m003;
shapes = (
{
closed = 1;
nodes = (
(906,915,o),
(939,882,o),
(960,834,cs),
(1014,726,o),
(1089,639,o),
(1170,549,cs),
(1281,432,o),
(1353,285,o),
(1413,135,c),
(1383,114,l),
(1362,126,o),
(1332,132,o),
(1317,150,cs),
(1290,180,o),
(1269,216,o),
(1251,252,cs),
(1170,432,o),
(1056,588,o),
(918,726,cs),
(864,780,o),
(843,840,o),
(843,921,c)
);
},
{
closed = 1;
nodes = (
(0,1932,l),
(30,1875,ls),
(84,1767,o),
(135,1659,o),
(198,1554,cs),
(240,1485,o),
(303,1425,o),
(360,1362,c),
(345,1365,o),
(330,1365,o),
(324,1371,cs),
(225,1452,o),
(84,1689,o),
(30,1875,cs),
(27,1884,o),
(24,1893,o),
(21,1902,cs),
(18,1917,l),
(150,1719,o),
(267,1548,o),
(393,1359,c),
(372,1362,l),
(312,1428,o),
(249,1488,o),
(204,1560,cs),
(135,1668,o),
(81,1785,o),
(21,1902,cs),
(6,1932,l)
);
},
{
closed = 1;
nodes = (
(360,1362,l),
(390,1329,l),
(396,1335,l),
(387,1344,o),
(381,1353,o),
(372,1362,c)
);
},
{
closed = 1;
nodes = (
(615,1254,o),
(636,1224,o),
(594,1074,c),
(576,1137,l),
(570,1137,l),
(576,1113,o),
(585,1086,o),
(591,1062,c),
(525,1113,o),
(480,1170,o),
(474,1266,c)
);
},
{
closed = 1;
nodes = (
(591,1062,l),
(600,1032,l),
(606,1032,l),
(603,1044,o),
(597,1059,o),
(594,1074,c)
);
},
{
closed = 1;
nodes = (
(741,1002,o),
(762,1029,o),
(768,1029,cs),
(783,1026,o),
(798,1014,o),
(834,993,c),
(807,978,o),
(792,963,o),
(783,966,cs),
(768,972,o),
(753,987,o),
(744,999,cs)
);
},
{
closed = 1;
nodes = (
(900,837,l),
(957,726,o),
(1029,627,o),
(1125,549,c),
(1131,555,l),
(1035,633,o),
(963,732,o),
(906,837,c)
);
}
);
width = 1313;
}
);
note = u;
unicode = 117;
},
{
glyphname = v;
lastChange = "2022-03-10 22:23:03 +0000";
layers = (
{
hints = (
{
horizontal = 1;
place = (212, 244);
place = (212, 244);
type = Stem;
},
{
place = (123, 181);
place = (123, 181);
type = Stem;
}
);
layerId = m01;
shapes = (
{
closed = 1;
nodes = (
(59,341,o),
(45,358,o),
(33,377,cs),
(26,389,o),
(16,399,o),
(7,410,cs),
(3,414,o),
(1,420,o),
(0,422,c),
(2,427,o),
(5,432,o),
(7,436,c),
(11,437,o),
(15,437,o),
(19,438,c),
(19,438,l),
(15,438,o),
(11,438,o),
(8,437,c),
(16,453,l),
(34,447,o),
(42,435,o),
(40,418,cs),
(37,395,o),
(43,377,o),
(62,362,cs),
(78,351,o),
(78,341,o),
(65,316,c)
);
},
{
closed = 1;
nodes = (
(6,436,l),
(7,436,ls),
(7,436,o),
(7,437,o),
(8,437,c),
(6,437,l)
);
}
);
width = 74;
},
{
hints = (
{
horizontal = 1;
place = (316, 412);
place = (316, 412);
type = Stem;
},
{
place = (48, 224);
place = (48, 224);
type = Stem;
}
);
layerId = m002;
shapes = (
{
closed = 1;
nodes = (
(227,392,o),
(185,443,o),
(149,498,cs),
(126,535,o),
(97,566,o),
(69,599,cs),
(59,611,o),
(53,627,o),
(48,634,c),
(56,649,o),
(63,663,o),
(70,677,c),
(82,678,o),
(94,680,o),
(106,681,c),
(106,683,l),
(95,682,o),
(83,681,o),
(72,679,c),
(97,728,l),
(150,708,o),
(175,673,o),
(168,621,cs),
(159,552,o),
(178,498,o),
(234,455,cs),
(282,420,o),
(283,392,o),
(243,316,c)
);
},
{
closed = 1;
nodes = (
(66,676,l),
(70,677,ls),
(71,677,o),
(71,678,o),
(72,679,c),
(66,678,l)
);
}
);
width = 324;
},
{
hints = (
{
horizontal = 1;
place = (628, 916);
place = (628, 916);
type = Stem;
},
{
place = (-176, 352);
place = (-176, 352);
type = Stem;
}
);
layerId = m003;
shapes = (
{
closed = 1;
nodes = (
(537,544,o),
(411,697,o),
(303,862,cs),
(234,973,o),
(147,1066,o),
(63,1165,cs),
(33,1201,o),
(15,1249,o),
(0,1270,c),
(24,1315,o),
(45,1357,o),
(66,1399,c),
(102,1402,o),
(138,1408,o),
(174,1411,c),
(174,1417,l),
(141,1414,o),
(105,1411,o),
(72,1405,c),
(147,1552,l),
(306,1492,o),
(381,1387,o),
(360,1231,cs),
(333,1024,o),
(390,862,o),
(558,733,cs),
(702,628,o),
(705,544,o),
(585,316,c)
);
},
{
closed = 1;
nodes = (
(54,1396,l),
(66,1399,ls),
(69,1399,o),
(69,1402,o),
(72,1405,c),
(54,1402,l)
);
}
);
width = 571;
}
);
note = v;
unicode = 118;
},
{
glyphname = w;
lastChange = "2022-03-10 22:23:03 +0000";
layers = (
{
hints = (
{
horizontal = 1;
place = (54, 138);
place = (54, 138);
type = Stem;
},
{
place = (53, 107);
place = (53, 107);
type = Stem;
}
);
layerId = m01;
shapes = (
{
closed = 1;
nodes = (
(37,73,o),
(45,64,o),
(50,54,cs),
(53,46,o),
(55,35,o),
(53,27,cs),
(50,18,o),
(44,9,o),
(37,3,cs),
(33,0,o),
(24,1,o),
(18,2,cs),
(15,2,o),
(10,5,o),
(9,8,cs),
(6,15,o),
(3,24,o),
(1,32,cs),
(-1,39,o),
(1,45,o),
(7,49,cs),
(14,55,o),
(19,60,o),
(19,70,cs),
(19,74,o),
(24,78,o),
(29,85,c)
);
}
);
width = 54;
},
{
hints = (
{
horizontal = 1;
place = (1, 253);
place = (1, 253);
type = Stem;
},
{
place = (0, 160);
place = (0, 160);
type = Stem;
}
);
layerId = m002;
shapes = (
{
closed = 1;
nodes = (
(111,216,o),
(135,190,o),
(148,159,cs),
(159,135,o),
(164,103,o),
(157,78,cs),
(150,51,o),
(131,25,o),
(110,7,cs),
(98,-3,o),
(72,2,o),
(53,4,cs),
(43,5,o),
(30,13,o),
(26,22,cs),
(16,44,o),
(9,69,o),
(2,93,cs),
(-4,114,o),
(3,133,o),
(20,146,cs),
(42,162,o),
(55,179,o),
(57,207,cs),
(57,220,o),
(71,232,o),
(85,254,c)
);
}
);
width = 260;
},
{
hints = (
{
horizontal = 1;
place = (-157, 599);
place = (-157, 599);
type = Stem;
},
{
place = (-160, 320);
place = (-160, 320);
type = Stem;
}
);
layerId = m003;
shapes = (
{
closed = 1;
nodes = (
(333,646,o),
(405,568,o),
(444,475,cs),
(477,403,o),
(492,307,o),
(471,232,cs),
(450,151,o),
(393,73,o),
(330,19,cs),
(294,-11,o),
(216,4,o),
(159,10,cs),
(129,13,o),
(90,37,o),
(78,64,cs),
(48,130,o),
(27,205,o),
(6,277,cs),
(-12,340,o),
(9,397,o),
(60,436,cs),
(126,484,o),
(165,535,o),
(171,619,cs),
(171,658,o),
(213,694,o),
(255,760,c)
);
}
);
width = 381;
}
);
note = w;
unicode = 119;
},
{
glyphname = x;
lastChange = "2022-03-10 22:23:03 +0000";
layers = (
{
hints = (
{
horizontal = 1;
place = (261, 153);
place = (261, 153);
type = Stem;
},
{
place = (74, 151);
place = (74, 151);
type = Stem;
}
);
layerId = m01;
shapes = (
{
closed = 1;
nodes = (
(34,558,o),
(29,557,o),
(24,559,cs),
(11,563,o),
(2,572,o),
(0,586,cs),
(-1,598,o),
(9,617,o),
(19,622,cs),
(23,625,o),
(28,626,o),
(30,629,cs),
(39,640,o),
(48,635,o),
(57,631,cs),
(71,625,o),
(81,603,o),
(75,588,cs),
(74,584,o),
(72,580,o),
(70,576,cs),
(63,562,o),
(56,558,o),
(39,557,c)
);
}
);
width = 77;
},
{
hints = (
{
horizontal = 1;
place = (557, 235);
place = (557, 235);
type = Stem;
},
{
place = (-2, 229);
place = (-2, 229);
type = Stem;
}
);
layerId = m002;
shapes = (
{
closed = 1;
nodes = (
(98,559,o),
(83,558,o),
(69,562,cs),
(30,575,o),
(4,602,o),
(-2,643,cs),
(-7,679,o),
(23,736,o),
(54,753,cs),
(65,760,o),
(81,763,o),
(88,772,cs),
(113,805,o),
(140,791,o),
(167,780,cs),
(211,761,o),
(239,696,o),
(223,651,cs),
(218,639,o),
(214,626,o),
(208,615,cs),
(185,571,o),
(165,559,o),
(113,557,c)
);
}
);
width = 331;
},
{
hints = (
{
horizontal = 1;
place = (1446, 480);
place = (1446, 480);
type = Stem;
},
{
place = (-231, 462);
place = (-231, 462);
type = Stem;
}
);
layerId = m003;
shapes = (
{
closed = 1;
nodes = (
(302,563,o),
(257,560,o),
(215,572,cs),
(98,611,o),
(20,692,o),
(2,815,cs),
(-13,923,o),
(77,1094,o),
(170,1145,cs),
(203,1166,o),
(251,1175,o),
(272,1202,cs),
(347,1301,o),
(428,1259,o),
(509,1226,cs),
(641,1169,o),
(725,974,o),
(677,839,cs),
(662,803,o),
(650,764,o),
(632,731,cs),
(563,599,o),
(503,563,o),
(347,557,c)
);
}
);
width = 591;
}
);
note = x;
unicode = 120;
},
{
glyphname = y;
lastChange = "2022-03-10 22:23:03 +0000";
layers = (
{
hints = (
{
horizontal = 1;
place = (192, 177);
place = (192, 177);
type = Stem;
},
{
place = (83, 167);
place = (83, 167);
type = Stem;
}
);
layerId = m01;
shapes = (
{
closed = 1;
nodes = (
(1,393,o),
(8,404,o),
(25,408,cs),
(29,409,o),
(33,412,o),
(37,414,cs),
(43,416,o),
(50,418,o),
(56,418,cs),
(80,420,o),
(89,406,o),
(80,383,cs),
(78,379,o),
(76,374,o),
(75,369,cs),
(72,361,o),
(67,354,o),
(60,348,cs),
(56,346,o),
(53,342,o),
(50,338,cs),
(39,322,o),
(24,320,o),
(15,337,cs),
(8,349,o),
(5,362,o),
(0,375,c)
);
}
);
width = 83;
},
{
hints = (
{
horizontal = 1;
place = (325, 280);
place = (325, 280);
type = Stem;
},
{
place = (0, 250);
place = (0, 250);
type = Stem;
}
);
layerId = m002;
shapes = (
{
closed = 1;
nodes = (
(2,528,o),
(23,561,o),
(74,574,cs),
(87,577,o),
(98,587,o),
(110,591,cs),
(129,597,o),
(148,604,o),
(167,605,cs),
(240,609,o),
(267,568,o),
(239,500,cs),
(233,486,o),
(227,473,o),
(223,458,cs),
(215,432,o),
(201,411,o),
(178,395,cs),
(166,387,o),
(157,375,o),
(148,363,cs),
(115,315,o),
(71,311,o),
(43,361,cs),
(23,396,o),
(14,437,o),
(0,476,c)
);
}
);
width = 350;
},
{
hints = (
{
horizontal = 1;
place = (725, 590);
place = (725, 590);
type = Stem;
},
{
place = (-250, 500);
place = (-250, 500);
type = Stem;
}
);
layerId = m003;
shapes = (
{
closed = 1;
nodes = (
(6,934,o),
(69,1033,o),
(222,1072,cs),
(261,1081,o),
(294,1111,o),
(330,1123,cs),
(387,1141,o),
(444,1162,o),
(501,1165,cs),
(720,1177,o),
(801,1054,o),
(717,850,cs),
(699,808,o),
(681,769,o),
(669,724,cs),
(645,646,o),
(603,583,o),
(534,535,cs),
(498,511,o),
(471,475,o),
(444,439,cs),
(345,295,o),
(213,283,o),
(129,433,cs),
(69,538,o),
(42,661,o),
(0,778,c)
);
}
);
width = 650;
}
);
note = y;
unicode = 121;
},
{
glyphname = z;
lastChange = "2022-03-10 22:23:03 +0000";
layers = (
{
hints = (
{
horizontal = 1;
place = (39, 199);
place = (39, 199);
type = Stem;
},
{
place = (95, 155);
place = (95, 155);
type = Stem;
}
);
layerId = m01;
shapes = (
{
closed = 1;
nodes = (
(71,-115,o),
(56,-131,o),
(32,-141,cs),
(25,-144,o),
(18,-143,o),
(12,-137,cs),
(5,-130,o),
(-2,-123,o),
(1,-111,cs),
(1,-109,o),
(3,-106,o),
(5,-105,cs),
(23,-97,o),
(20,-81,o),
(19,-67,cs),
(19,-62,o),
(18,-58,o),
(16,-54,cs),
(14,-44,o),
(18,-38,o),
(26,-33,cs),
(36,-28,o),
(45,-28,o),
(53,-34,cs),
(61,-41,o),
(66,-50,o),
(67,-61,cs),
(68,-70,o),
(68,-79,o),
(69,-88,cs)
);
}
);
width = 69;
},
{
hints = (
{
horizontal = 1;
place = (-142, 339);
place = (-142, 339);
type = Stem;
},
{
place = (27, 205);
place = (27, 205);
type = Stem;
}
);
layerId = m002;
shapes = (
{
closed = 1;
nodes = (
(239,-61,o),
(194,-107,o),
(123,-137,cs),
(102,-146,o),
(81,-145,o),
(63,-127,cs),
(42,-105,o),
(21,-83,o),
(28,-49,cs),
(30,-42,o),
(36,-33,o),
(42,-30,cs),
(96,-5,o),
(87,41,o),
(83,85,cs),
(82,98,o),
(79,111,o),
(75,124,cs),
(67,154,o),
(81,171,o),
(105,185,cs),
(133,202,o),
(161,202,o),
(184,183,cs),
(209,162,o),
(224,134,o),
(228,102,cs),
(231,76,o),
(231,49,o),
(232,22,cs)
);
}
);
width = 306;
},
{
hints = (
{
horizontal = 1;
place = (-685, 758);
place = (-685, 758);
type = Stem;
},
{
place = (-178, 356);
place = (-178, 356);
type = Stem;
}
);
layerId = m003;
shapes = (
{
closed = 1;
nodes = (
(637,102,o),
(502,-36,o),
(289,-126,cs),
(226,-153,o),
(163,-150,o),
(109,-96,cs),
(46,-30,o),
(-17,36,o),
(4,138,cs),
(10,159,o),
(28,186,o),
(46,195,cs),
(208,270,o),
(181,408,o),
(169,540,cs),
(166,579,o),
(157,618,o),
(145,657,cs),
(121,747,o),
(163,798,o),
(235,840,cs),
(319,891,o),
(403,891,o),
(472,834,cs),
(547,771,o),
(592,687,o),
(604,591,cs),
(613,513,o),
(613,432,o),
(616,351,cs)
);
}
);
width = 518;
}
);
note = z;
unicode = 122;
},
{
glyphname = .notdef;
lastChange = "2022-03-10 22:23:03 +0000";
layers = (
{
hints = (
{
horizontal = 1;
place = (97, 186);
place = (97, 186);
type = Stem;
},
{
horizontal = 1;
place = (131, 179);
place = (131, 179);
type = Stem;
},
{
horizontal = 1;
place = (157, 171);
place = (157, 171);
type = Stem;
},
{
horizontal = 1;
place = (176, 179);
place = (176, 179);
type = Stem;
},
{
horizontal = 1;
place = (203, 183);
place = (203, 183);
type = Stem;
},
{
horizontal = 1;
place = (234, 171);
place = (234, 171);
type = Stem;
},
{
horizontal = 1;
place = (260, 171);
place = (260, 171);
type = Stem;
},
{
horizontal = 1;
place = (279, 171);
place = (279, 171);
type = Stem;
},
{
horizontal = 1;
place = (298, 176);
place = (298, 176);
type = Stem;
},
{
horizontal = 1;
place = (321, 172);
place = (321, 172);
type = Stem;
},
{
horizontal = 1;
place = (341, 175);
place = (341, 175);
type = Stem;
},
{
horizontal = 1;
place = (365, 172);
place = (365, 172);
type = Stem;
},
{
horizontal = 1;
place = (384, 176);
place = (384, 176);
type = Stem;
},
{
horizontal = 1;
place = (408, 186);
place = (408, 186);
type = Stem;
},
{
place = (194, 188);
place = (194, 188);
type = Stem;
},
{
place = (230, 174);
place = (230, 174);
type = Stem;
},
{
place = (252, 174);
place = (252, 174);
type = Stem;
},
{
place = (274, 189);
place = (274, 189);
type = Stem;
},
{
place = (194, 210);
place = (194, 210);
type = Stem;
},
{
place = (252, 211);
place = (252, 211);
type = Stem;
},
{
horizontal = 1;
place = (301, 172);
place = (301, 172);
type = Stem;
},
{
place = (194, 188);
place = (194, 188);
type = Stem;
},
{
place = (230, 233);
place = (230, 233);
type = Stem;
},
{
place = (194, 232);
place = (194, 232);
type = Stem;
}
);
layerId = m01;
shapes = (
{
closed = 1;
nodes = (
(42,-25,o),
(31,-24,o),
(20,-21,cs),
(5,-16,o),
(-2,-6,o),
(0,10,cs),
(3,30,o),
(11,38,o),
(28,38,cs),
(40,37,o),
(50,37,o),
(61,36,cs),
(77,34,o),
(80,29,o),
(77,13,cs),
(73,-1,o),
(67,-13,o),
(51,-16,c)
);
}
);
width = 78;
},
{
hints = (
{
horizontal = 1;
place = (-200, 69);
place = (-200, 69);
type = Stem;
},
{
horizontal = 1;
place = (-98, 47);
place = (-98, 47);
type = Stem;
},
{
horizontal = 1;
place = (-18, 23);
place = (-18, 23);
type = Stem;
},
{
horizontal = 1;
place = (38, 47);
place = (38, 47);
type = Stem;
},
{
horizontal = 1;
place = (118, 60);
place = (118, 60);
type = Stem;
},
{
horizontal = 1;
place = (211, 24);
place = (211, 24);
type = Stem;
},
{
horizontal = 1;
place = (291, 22);
place = (291, 22);
type = Stem;
},
{
horizontal = 1;
place = (347, 23);
place = (347, 23);
type = Stem;
},
{
horizontal = 1;
place = (403, 37);
place = (403, 37);
type = Stem;
},
{
horizontal = 1;
place = (473, 27);
place = (473, 27);
type = Stem;
},
{
horizontal = 1;
place = (534, 36);
place = (534, 36);
type = Stem;
},
{
horizontal = 1;
place = (604, 26);
place = (604, 26);
type = Stem;
},
{
horizontal = 1;
place = (663, 37);
place = (663, 37);
type = Stem;
},
{
horizontal = 1;
place = (733, 67);
place = (733, 67);
type = Stem;
},
{
place = (93, 74);
place = (93, 74);
type = Stem;
},
{
place = (200, 33);
place = (200, 33);
type = Stem;
},
{
place = (267, 33);
place = (267, 33);
type = Stem;
},
{
place = (333, 77);
place = (333, 77);
type = Stem;
},
{
place = (93, 140);
place = (93, 140);
type = Stem;
},
{
place = (267, 143);
place = (267, 143);
type = Stem;
},
{
horizontal = 1;
place = (413, 27);
place = (413, 27);
type = Stem;
},
{
place = (93, 75);
place = (93, 75);
type = Stem;
},
{
place = (200, 210);
place = (200, 210);
type = Stem;
},
{
place = (93, 207);
place = (93, 207);
type = Stem;
}
);
layerId = m002;
shapes = (
{
closed = 1;
nodes = (
(254,-28,o),
(222,-26,o),
(188,-16,cs),
(144,-2,o),
(123,28,o),
(128,75,cs),
(136,135,o),
(161,160,o),
(213,159,cs),
(247,158,o),
(279,157,o),
(312,154,cs),
(359,149,o),
(369,133,o),
(359,86,cs),
(348,44,o),
(330,7,o),
(281,-3,c)
);
}
);
width = 500;
},
{
hints = (
{
horizontal = 1;
place = (-1090, -283);
place = (-1090, -283);
type = Stem;
},
{
horizontal = 1;
place = (-784, -349);
place = (-784, -349);
type = Stem;
},
{
horizontal = 1;
place = (-544, -421);
place = (-544, -421);
type = Stem;
},
{
horizontal = 1;
place = (-376, -349);
place = (-376, -349);
type = Stem;
},
{
horizontal = 1;
place = (-136, -310);
place = (-136, -310);
type = Stem;
},
{
horizontal = 1;
place = (143, -418);
place = (143, -418);
type = Stem;
},
{
horizontal = 1;
place = (383, -424);
place = (383, -424);
type = Stem;
},
{
horizontal = 1;
place = (551, -421);
place = (551, -421);
type = Stem;
},
{
horizontal = 1;
place = (719, -379);
place = (719, -379);
type = Stem;
},
{
horizontal = 1;
place = (929, -409);
place = (929, -409);
type = Stem;
},
{
horizontal = 1;
place = (1112, -382);
place = (1112, -382);
type = Stem;
},
{
horizontal = 1;
place = (1322, -412);
place = (1322, -412);
type = Stem;
},
{
horizontal = 1;
place = (1499, -379);
place = (1499, -379);
type = Stem;
},
{
horizontal = 1;
place = (1709, -289);
place = (1709, -289);
type = Stem;
},
{
place = (-211, -268);
place = (-211, -268);
type = Stem;
},
{
place = (110, -391);
place = (110, -391);
type = Stem;
},
{
place = (311, -391);
place = (311, -391);
type = Stem;
},
{
place = (509, -259);
place = (509, -259);
type = Stem;
},
{
place = (-211, -70);
place = (-211, -70);
type = Stem;
},
{
place = (311, -61);
place = (311, -61);
type = Stem;
},
{
horizontal = 1;
place = (749, -409);
place = (749, -409);
type = Stem;
},
{
place = (-211, -265);
place = (-211, -265);
type = Stem;
},
{
place = (110, 140);
place = (110, 140);
type = Stem;
},
{
place = (-211, 131);
place = (-211, 131);
type = Stem;
}
);
layerId = m003;
shapes = (
{
closed = 1;
nodes = (
(380,-37,o),
(284,-31,o),
(182,-1,cs),
(50,41,o),
(-13,131,o),
(2,272,cs),
(26,452,o),
(101,527,o),
(257,524,cs),
(359,521,o),
(455,518,o),
(554,509,cs),
(695,494,o),
(725,446,o),
(695,305,cs),
(662,179,o),
(608,68,o),
(461,38,c)
);
}
);
width = 606;
}
);
note = .notdef;
},
